<svg width="105" height="104" viewBox="0 0 105 104" fill="none" xmlns="http://www.w3.org/2000/svg">
<g id="_?&#235;&#141;&#137;&#236;&#148;&#160;??1" clip-path="url(#clip0_445_14359)">
<g id="Group">
<path id="Vector" d="M34.3251 56.4852C32.4051 57.9352 29.6251 58.7752 26.5051 58.3652C23.3851 57.9552 21.0251 56.9652 19.7051 54.6052" stroke="black" stroke-width="2" stroke-linecap="round" stroke-linejoin="round"/>
<path id="Vector_2" d="M54.7754 56.4852C56.6954 57.9352 59.4754 58.7752 62.5954 58.3652C65.7154 57.9552 68.0754 56.9652 69.3954 54.6052" stroke="black" stroke-width="2" stroke-linecap="round" stroke-linejoin="round"/>
<path id="Vector_3" d="M70.8154 46.5251C68.5154 45.4151 65.1954 44.7751 61.4754 45.0951C57.7554 45.4151 55.0154 45.9551 53.0654 47.4251" stroke="black" stroke-width="2" stroke-linecap="round" stroke-linejoin="round"/>
<path id="Vector_4" d="M18.2852 46.5251C20.5852 45.4151 23.9052 44.7751 27.6252 45.0951C31.3452 45.4151 34.2052 46.6051 36.1652 47.9651" stroke="black" stroke-width="2" stroke-linecap="round" stroke-linejoin="round"/>
<path id="Vector_5" d="M53.0648 47.425C53.0648 47.425 42.2148 53.195 49.4148 70.765L45.9248 73.9851" stroke="black" stroke-width="2" stroke-linecap="round" stroke-linejoin="round"/>
<path id="Vector_6" d="M35.7256 81.7051C35.7256 81.7051 38.7256 83.6651 41.5856 82.2151C42.9456 81.5251 43.5756 81.5851 44.9856 82.2151C46.3956 82.8451 46.7756 81.0951 49.2356 82.2151C51.6956 83.3351 53.8456 81.7651 55.5656 81.1851C55.5656 81.1851 53.1156 90.8451 39.9256 87.3551" stroke="black" stroke-width="2" stroke-linecap="round" stroke-linejoin="round"/>
</g>
<path id="Vector_7" d="M5.49512 59.4351C5.49512 59.4351 11.1251 59.5851 12.2651 61.2051" stroke="black" stroke-width="2" stroke-linecap="round" stroke-linejoin="round"/>
<path id="Vector_8" d="M83.605 59.4351C83.605 59.4351 77.975 59.5851 76.835 61.2051" stroke="black" stroke-width="2" stroke-linecap="round" stroke-linejoin="round"/>
<path id="Vector_9" d="M47.4451 10.2651C63.3651 10.2651 76.3151 25.9351 76.3451 45.2051L75.3451 61.0651C75.3451 61.0651 75.3451 61.1451 75.3451 61.1951C75.3451 76.6451 68.6851 89.9751 57.9751 95.9851L50.4151 100.225C48.5551 101.265 46.5851 101.795 44.5451 101.795C42.5051 101.795 40.5351 101.265 38.6751 100.225L31.1151 95.9851C20.3951 89.9751 13.7451 76.6351 13.7451 61.1951C13.7451 61.1551 13.7451 61.1151 13.7451 61.0651L12.7451 45.2051C12.7751 25.9351 25.7251 10.2651 41.6451 10.2651H47.4451ZM47.4451 8.26514H41.6451C24.5851 8.26514 10.7451 24.8351 10.7451 45.2751L11.7451 61.2051C11.7451 76.8551 18.3051 91.1051 30.1451 97.7451L37.7051 101.985C39.8751 103.205 42.2151 103.815 44.5551 103.815C46.8951 103.815 49.2351 103.205 51.4051 101.985L58.9651 97.7451C70.8051 91.1051 77.3651 76.8651 77.3651 61.2051L78.3651 45.2751C78.3651 24.8351 64.5351 8.26514 47.4651 8.26514H47.4451Z" fill="black"/>
<path id="Vector_10" d="M12.2646 51.625C12.2646 32.995 25.4747 17.885 41.7747 17.885H47.3146C63.6146 17.885 76.8246 32.995 76.8246 51.625" stroke="black" stroke-width="2" stroke-linecap="round" stroke-linejoin="round"/>
<path id="Vector_11" d="M8.60446 52.325C3.71446 35.945 7.41446 3.705 36.5045 1.365C39.2745 1.145 49.7845 1.145 52.5445 1.355C82.6745 3.625 83.9945 37.015 80.2445 52.325" stroke="black" stroke-width="2" stroke-linecap="round" stroke-linejoin="round"/>
<path id="Vector_12" d="M12.8247 74.385C6.46469 74.385 1.30469 68.865 1.30469 62.045V59.615C1.30469 56.005 4.03469 53.085 7.40469 53.085H11.9847" stroke="black" stroke-width="2" stroke-linecap="round" stroke-linejoin="round"/>
<path id="Vector_13" d="M75.9746 74.385C82.3346 74.385 87.4946 68.865 87.4946 62.045V59.615C87.4946 56.005 84.7646 53.085 81.3946 53.085H76.8146" stroke="black" stroke-width="2" stroke-linecap="round" stroke-linejoin="round"/>
<path id="Vector_14" d="M100.215 66.2151H96.0049V79.3851H100.215V66.2151Z" fill="#B4B0AA"/>
<path id="Vector_15" d="M104.694 74.9051V70.6951H91.5243V74.9051H104.694Z" fill="#B4B0AA"/>
<path id="Vector_16" d="M87.0342 78.9851H82.8242V92.1551H87.0342V78.9851Z" fill="#B4B0AA"/>
<path id="Vector_17" d="M91.5146 87.6751V83.4651H78.3447V87.6751H91.5146Z" fill="#B4B0AA"/>
</g>
<defs>
<clipPath id="clip0_445_14359">
<rect width="104.39" height="103.61" fill="white" transform="translate(0.304688 0.195068)"/>
</clipPath>
</defs>
</svg>
