<svg width="107" height="106" viewBox="0 0 107 106" fill="none" xmlns="http://www.w3.org/2000/svg">
<g id="_?&#235;&#141;&#137;&#236;&#148;&#160;??1" clip-path="url(#clip0_445_14438)">
<path id="Vector" d="M5.96582 61.425C5.96582 61.425 11.5958 61.575 12.7358 63.195" stroke="black" stroke-width="2" stroke-linecap="round" stroke-linejoin="round"/>
<path id="Vector_2" d="M84.0757 61.425C84.0757 61.425 78.4457 61.575 77.3057 63.195" stroke="black" stroke-width="2" stroke-linecap="round" stroke-linejoin="round"/>
<path id="Vector_3" d="M47.9158 12.2551C63.8358 12.2551 76.7858 27.9251 76.8158 47.1951L75.8158 63.0551C75.8158 63.0551 75.8158 63.1351 75.8158 63.1851C75.8158 78.6351 69.1558 91.9651 58.4458 97.9751L50.8858 102.215C49.0258 103.255 47.0558 103.785 45.0158 103.785C42.9758 103.785 41.0058 103.255 39.1458 102.215L31.5858 97.9751C20.8658 91.9651 14.2158 78.6251 14.2158 63.1851C14.2158 63.1451 14.2158 63.1051 14.2158 63.0551L13.2158 47.1951C13.2458 27.9251 26.1958 12.2551 42.1158 12.2551H47.9158ZM47.9158 10.2551H42.1158C25.0558 10.2551 11.2158 26.8251 11.2158 47.2651L12.2158 63.1951C12.2158 78.8451 18.7758 93.0951 30.6158 99.7351L38.1758 103.975C40.3458 105.195 42.6858 105.805 45.0258 105.805C47.3658 105.805 49.7058 105.195 51.8758 103.975L59.4358 99.7351C71.2758 93.0951 77.8358 78.8551 77.8358 63.1951L78.8358 47.2651C78.8358 26.8251 65.0058 10.2551 47.9358 10.2551H47.9158Z" fill="black"/>
<path id="Vector_4" d="M12.7354 53.615C12.7354 34.985 25.9454 19.875 42.2454 19.875H47.7854C64.0854 19.875 77.2953 34.985 77.2953 53.615" stroke="black" stroke-width="2" stroke-linecap="round" stroke-linejoin="round"/>
<path id="Vector_5" d="M9.07517 54.305C4.18517 37.935 7.88517 5.69498 36.9752 3.34498C39.7452 3.12498 50.2552 3.12498 53.0152 3.33498C83.1452 5.60498 84.4652 38.995 80.7152 54.305" stroke="black" stroke-width="2" stroke-linecap="round" stroke-linejoin="round"/>
<path id="Vector_6" d="M13.2954 76.3652C6.93539 76.3652 1.77539 70.8452 1.77539 64.0252V61.5952C1.77539 57.9852 4.50539 55.0652 7.87539 55.0652H12.4554" stroke="black" stroke-width="2" stroke-linecap="round" stroke-linejoin="round"/>
<path id="Vector_7" d="M76.4453 76.3652C82.8053 76.3652 87.9653 70.8452 87.9653 64.0252V61.5952C87.9653 57.9852 85.2353 55.0652 81.8653 55.0652H77.2853" stroke="black" stroke-width="2" stroke-linecap="round" stroke-linejoin="round"/>
<g id="Group">
<path id="Vector_8" d="M21.1454 76.585C22.6354 85.485 33.5954 89.135 33.5954 89.135C25.0354 79.815 25.7754 73.625 25.7754 73.625L28.3254 72.505L20.6254 68.595L18.7754 78.725L21.1554 76.595L21.1454 76.585Z" fill="#B4B0AA"/>
<path id="Vector_9" d="M68.8855 76.585C67.3955 85.485 56.4355 89.135 56.4355 89.135C64.9955 79.815 64.2555 73.625 64.2555 73.625L61.7055 72.505L69.4055 68.595L71.2556 78.725L68.8755 76.595L68.8855 76.585Z" fill="#B4B0AA"/>
</g>
<g id="Group_2">
<path id="Vector_10" d="M21.1454 50.645C22.6354 59.545 33.5954 63.195 33.5954 63.195C25.0354 53.875 25.7754 47.685 25.7754 47.685L28.3254 46.565L20.6254 42.655L18.7754 52.785L21.1554 50.655L21.1454 50.645Z" fill="#B4B0AA"/>
<path id="Vector_11" d="M68.8855 50.645C67.3955 59.545 56.4355 63.195 56.4355 63.195C64.9955 53.875 64.2555 47.685 64.2555 47.685L61.7055 46.565L69.4055 42.655L71.2556 52.785L68.8755 50.655L68.8855 50.645Z" fill="#B4B0AA"/>
</g>
<g id="Group_3">
<path id="Vector_12" d="M94.8752 5.76514C100.025 5.76514 104.215 9.95514 104.215 15.1051C104.215 20.2551 100.025 24.4451 94.8752 24.4451C89.7252 24.4451 85.5352 20.2551 85.5352 15.1051C85.5352 9.95514 89.7252 5.76514 94.8752 5.76514ZM94.8752 3.76514C88.6052 3.76514 83.5352 8.84514 83.5352 15.1051C83.5352 21.3651 88.6152 26.4451 94.8752 26.4451C101.135 26.4451 106.215 21.3651 106.215 15.1051C106.215 8.84514 101.135 3.76514 94.8752 3.76514Z" fill="black"/>
<path id="Vector_13" d="M100.845 11.4851L94.875 15.1051L98.455 18.1551" stroke="black" stroke-width="2" stroke-linecap="round" stroke-linejoin="round"/>
<path id="Vector_14" d="M91.9355 4.48509C91.9355 2.67509 93.4955 1.21509 95.4155 1.21509C97.3355 1.21509 98.8955 2.67509 98.8955 4.48509" stroke="black" stroke-width="2" stroke-linecap="round" stroke-linejoin="round"/>
</g>
</g>
<defs>
<clipPath id="clip0_445_14438">
<rect width="105.45" height="105.57" fill="white" transform="translate(0.775391 0.215088)"/>
</clipPath>
</defs>
</svg>
