<svg width="103" height="92" viewBox="0 0 103 92" fill="none" xmlns="http://www.w3.org/2000/svg">
<g id="_?&#235;&#141;&#137;&#236;&#148;&#160;??1" clip-path="url(#clip0_445_14490)">
<g id="Group">
<path id="Vector" d="M6.86027 50.985C5.81027 50.985 4.93027 50.795 4.23027 50.425C3.53027 50.055 3.00027 49.535 2.65027 48.865C2.30027 48.195 2.12027 47.415 2.12027 46.525V41.565C2.12027 41.225 2.04027 40.935 1.89027 40.695C1.74027 40.455 1.54027 40.305 1.29027 40.235C0.950273 40.145 0.780273 40.025 0.780273 39.865C0.780273 39.795 0.820273 39.745 0.920273 39.705C1.01027 39.665 1.12027 39.645 1.26027 39.645C1.58027 39.645 1.91027 39.655 2.25027 39.675C2.60027 39.695 2.93027 39.705 3.26027 39.705C3.55027 39.705 3.89027 39.705 4.27027 39.675C4.65027 39.645 4.98027 39.645 5.25027 39.645C5.39027 39.645 5.50027 39.665 5.58027 39.695C5.66027 39.725 5.71027 39.785 5.71027 39.865C5.71027 39.975 5.64027 40.065 5.50027 40.115C5.36027 40.165 5.19027 40.235 5.00027 40.315C4.84027 40.385 4.69027 40.525 4.55027 40.735C4.41027 40.945 4.34027 41.235 4.34027 41.595V46.165C4.34027 46.985 4.48027 47.655 4.75027 48.175C5.02027 48.695 5.38027 49.085 5.84027 49.335C6.29027 49.585 6.80027 49.705 7.37027 49.705C8.45027 49.705 9.24027 49.365 9.76027 48.685C10.2803 48.005 10.5403 47.035 10.5403 45.765V44.765C10.5403 44.385 10.5403 43.985 10.5403 43.565C10.5403 43.155 10.5303 42.755 10.5103 42.385C10.5103 41.945 10.4803 41.585 10.4203 41.305C10.3603 41.025 10.2703 40.805 10.1603 40.645C10.0503 40.485 9.89027 40.355 9.69027 40.265C9.58027 40.225 9.44027 40.165 9.29027 40.115C9.14027 40.055 9.06027 39.985 9.06027 39.895C9.06027 39.805 9.11027 39.745 9.20027 39.705C9.29027 39.675 9.41027 39.655 9.56027 39.655C9.92027 39.655 10.2003 39.655 10.4003 39.675C10.6003 39.685 10.8303 39.695 11.0903 39.695C11.2803 39.695 11.4603 39.695 11.6103 39.695C11.7603 39.695 11.9103 39.685 12.0603 39.665C12.2103 39.645 12.3803 39.645 12.5703 39.645C12.7103 39.645 12.8103 39.655 12.8903 39.685C12.9703 39.715 13.0103 39.775 13.0103 39.865C13.0103 40.025 12.8403 40.145 12.5203 40.225C12.1703 40.315 11.9303 40.475 11.7903 40.715C11.6503 40.955 11.5803 41.265 11.5503 41.645C11.5003 42.535 11.4703 43.355 11.4603 44.105C11.4503 44.855 11.4303 45.605 11.4203 46.365C11.4103 47.275 11.2003 48.075 10.8003 48.765C10.4003 49.465 9.86027 50.005 9.18027 50.395C8.50027 50.785 7.74027 50.975 6.90027 50.975L6.86027 50.985Z" fill="black"/>
<path id="Vector_2" d="M13.9007 50.835C13.7807 50.835 13.6807 50.805 13.6107 50.755C13.5407 50.705 13.5107 50.655 13.5107 50.595C13.5107 50.505 13.5507 50.435 13.6307 50.385C13.7107 50.335 13.7907 50.295 13.8707 50.275C14.2807 50.175 14.5807 50.045 14.7707 49.895C14.9607 49.745 15.0607 49.495 15.0607 49.135V41.325C15.0607 41.065 15.0307 40.865 14.9707 40.735C14.9107 40.605 14.8007 40.495 14.6507 40.425C14.5007 40.355 14.2707 40.285 13.9807 40.225C13.6907 40.165 13.5407 40.045 13.5407 39.865C13.5407 39.795 13.5807 39.745 13.6607 39.705C13.7407 39.665 13.8307 39.645 13.9307 39.645C14.2107 39.645 14.4807 39.645 14.7407 39.665C14.9907 39.675 15.2407 39.685 15.4807 39.695C15.7207 39.705 15.9607 39.715 16.1907 39.715C16.4507 39.715 16.7107 39.715 16.9807 39.695C17.2507 39.685 17.5207 39.675 17.8007 39.665C18.0807 39.655 18.3507 39.645 18.6107 39.645C18.7207 39.645 18.8107 39.665 18.8807 39.705C18.9507 39.745 18.9807 39.805 18.9807 39.885C18.9807 39.975 18.9407 40.045 18.8707 40.095C18.8007 40.145 18.6907 40.185 18.5607 40.225C18.1207 40.335 17.7907 40.455 17.5807 40.585C17.3707 40.715 17.2707 40.945 17.2707 41.275V49.035C17.2707 49.365 17.3407 49.605 17.4907 49.755C17.6407 49.905 17.9107 49.985 18.3207 49.985H20.1707C20.4307 49.985 20.6707 49.945 20.8807 49.845C21.0907 49.745 21.2707 49.645 21.4107 49.505C21.6107 49.325 21.7807 49.135 21.9207 48.925C22.0607 48.725 22.1907 48.485 22.3107 48.215C22.3907 48.045 22.4607 47.915 22.5307 47.825C22.6007 47.735 22.6707 47.685 22.7307 47.685C22.8107 47.685 22.8707 47.725 22.9007 47.795C22.9307 47.865 22.9507 47.945 22.9507 48.025C22.9507 48.035 22.9507 48.075 22.9307 48.125C22.9207 48.185 22.9107 48.225 22.9107 48.265C22.8207 48.595 22.7407 48.875 22.6807 49.115C22.6207 49.355 22.5707 49.585 22.5307 49.805C22.4907 50.025 22.4507 50.265 22.4207 50.525C22.4107 50.605 22.3907 50.675 22.3507 50.735C22.3207 50.795 22.2507 50.825 22.1507 50.825C21.8107 50.825 21.4007 50.825 20.9307 50.805C20.4507 50.795 19.9507 50.785 19.4207 50.775C18.8907 50.765 18.3507 50.765 17.8207 50.745C17.2807 50.735 16.7807 50.725 16.3007 50.725C16.0507 50.725 15.7707 50.725 15.4407 50.745C15.1207 50.755 14.8207 50.775 14.5307 50.785C14.2507 50.805 14.0407 50.815 13.9207 50.815L13.9007 50.835Z" fill="black"/>
<path id="Vector_3" d="M24.6502 50.815C24.5402 50.815 24.4402 50.795 24.3502 50.755C24.2702 50.715 24.2202 50.665 24.2202 50.595C24.2202 50.505 24.2602 50.435 24.3402 50.375C24.4202 50.315 24.5302 50.275 24.6802 50.255C25.1102 50.165 25.4302 50.035 25.6302 49.875C25.8302 49.715 25.9402 49.445 25.9402 49.065V42.185C25.9402 41.725 25.9302 41.375 25.9102 41.135C25.8902 40.895 25.8602 40.735 25.8202 40.655C25.7802 40.575 25.7202 40.525 25.6402 40.515C25.5302 40.475 25.3902 40.445 25.2202 40.435C25.0502 40.425 24.8902 40.415 24.7302 40.415H24.2002C23.8702 40.415 23.5502 40.495 23.2502 40.645C22.9402 40.795 22.7102 41.005 22.5402 41.265C22.5002 41.335 22.4202 41.425 22.3302 41.555C22.2302 41.675 22.1302 41.795 22.0202 41.895C21.9102 41.995 21.8002 42.045 21.6902 42.045C21.6102 42.045 21.5602 42.015 21.5302 41.965C21.5002 41.905 21.4902 41.845 21.4902 41.775C21.4902 41.635 21.5202 41.505 21.5902 41.365C21.7802 40.985 21.9302 40.645 22.0202 40.355C22.1202 40.065 22.1802 39.725 22.2202 39.325C22.2402 39.155 22.2902 39.045 22.3602 38.995C22.4302 38.945 22.5102 38.915 22.5902 38.915C22.6602 38.915 22.7402 38.985 22.8402 39.125C22.9402 39.265 23.0202 39.385 23.1002 39.475C23.2002 39.575 23.3802 39.655 23.6402 39.705C23.9002 39.755 24.1202 39.785 24.3002 39.785L30.5602 39.765C30.8802 39.765 31.1402 39.735 31.3602 39.685C31.5802 39.635 31.7402 39.585 31.8702 39.525C32.0402 39.425 32.1702 39.315 32.2802 39.215C32.3802 39.105 32.5002 39.055 32.6402 39.055C32.7002 39.055 32.7402 39.085 32.7702 39.145C32.8002 39.205 32.8102 39.285 32.8102 39.375C32.8102 39.435 32.8102 39.495 32.7902 39.575C32.7802 39.645 32.7702 39.715 32.7602 39.775C32.7102 39.985 32.6702 40.185 32.6202 40.345C32.5802 40.505 32.5402 40.665 32.5102 40.805C32.4802 40.945 32.4702 41.105 32.4702 41.285V41.575C32.4702 41.735 32.4502 41.865 32.4002 41.985C32.3602 42.095 32.2802 42.155 32.1802 42.155C32.0902 42.155 32.0102 42.105 31.9502 41.995C31.8902 41.885 31.8202 41.725 31.7502 41.495C31.6502 41.135 31.4802 40.865 31.2402 40.685C31.0002 40.515 30.6302 40.425 30.1202 40.425H28.9702C28.7602 40.425 28.5902 40.465 28.4702 40.545C28.3502 40.625 28.2702 40.795 28.2202 41.065C28.1702 41.335 28.1402 41.745 28.1402 42.295V49.065C28.1402 49.425 28.2402 49.685 28.4502 49.855C28.6502 50.015 28.9802 50.155 29.4202 50.275C29.5602 50.305 29.6602 50.345 29.7402 50.395C29.8202 50.435 29.8602 50.505 29.8602 50.595C29.8602 50.675 29.8202 50.735 29.7502 50.765C29.6802 50.795 29.5802 50.815 29.4702 50.815C29.2002 50.815 28.9302 50.815 28.6502 50.795C28.3802 50.785 28.1102 50.775 27.8402 50.765C27.5702 50.755 27.3202 50.745 27.0702 50.745C26.8202 50.745 26.5602 50.745 26.3002 50.765C26.0302 50.775 25.7602 50.795 25.4802 50.805C25.2002 50.825 24.9302 50.835 24.6602 50.835L24.6502 50.815Z" fill="black"/>
<path id="Vector_4" d="M33.5804 50.815C33.4804 50.815 33.3904 50.795 33.3104 50.745C33.2304 50.695 33.1904 50.645 33.1904 50.575C33.1904 50.415 33.3304 50.305 33.6104 50.255C34.0204 50.165 34.2904 50.045 34.4204 49.885C34.5604 49.725 34.6204 49.465 34.6204 49.085V41.395C34.6204 41.025 34.5604 40.755 34.4504 40.595C34.3404 40.435 34.0704 40.315 33.6504 40.225C33.3704 40.165 33.2304 40.055 33.2304 39.885C33.2304 39.805 33.2704 39.745 33.3404 39.705C33.4104 39.665 33.5104 39.645 33.6204 39.645C33.8904 39.645 34.1504 39.645 34.3804 39.665C34.6204 39.675 34.8504 39.685 35.0804 39.695C35.3104 39.705 35.5304 39.715 35.7604 39.715C35.9904 39.715 36.2204 39.715 36.4704 39.695C36.7104 39.685 36.9604 39.675 37.2204 39.665C37.4804 39.655 37.7404 39.645 38.0004 39.645C38.2604 39.645 38.3704 39.725 38.3704 39.895C38.3704 39.985 38.3404 40.055 38.2704 40.095C38.2004 40.135 38.0904 40.175 37.9504 40.215C37.5104 40.325 37.2104 40.465 37.0604 40.635C36.9104 40.805 36.8304 41.055 36.8304 41.395V44.555C36.8304 44.635 36.8604 44.685 36.9104 44.715C36.9604 44.745 37.0204 44.755 37.0904 44.755H42.1704C42.2904 44.755 42.3604 44.675 42.3604 44.515V41.375C42.3604 41.045 42.2904 40.795 42.1404 40.625C41.9904 40.455 41.7004 40.315 41.2604 40.205C41.1104 40.175 41.0004 40.135 40.9304 40.085C40.8604 40.045 40.8204 39.975 40.8204 39.885C40.8204 39.715 40.9404 39.635 41.1904 39.635C41.4604 39.635 41.7304 39.635 42.0004 39.655C42.2704 39.675 42.5404 39.675 42.7904 39.685C43.0404 39.695 43.2904 39.705 43.5304 39.705C43.7404 39.705 43.9504 39.705 44.1604 39.685C44.3604 39.675 44.5804 39.665 44.8104 39.655C45.0404 39.645 45.2904 39.635 45.5704 39.635C45.6704 39.635 45.7604 39.655 45.8404 39.695C45.9204 39.735 45.9604 39.795 45.9604 39.875C45.9604 40.045 45.8104 40.155 45.5204 40.215C45.1204 40.305 44.8704 40.435 44.7504 40.605C44.6304 40.775 44.5704 41.035 44.5704 41.385V49.075C44.5704 49.445 44.6304 49.715 44.7604 49.875C44.8804 50.035 45.1504 50.155 45.5604 50.245C45.8404 50.305 45.9804 50.405 45.9804 50.565C45.9804 50.635 45.9404 50.685 45.8604 50.735C45.7804 50.785 45.6904 50.805 45.5904 50.805C45.3304 50.805 45.0804 50.805 44.8404 50.775C44.6004 50.755 44.3704 50.745 44.1404 50.735C43.9104 50.725 43.6804 50.715 43.4504 50.715C43.2204 50.715 42.9904 50.715 42.7404 50.735C42.4904 50.755 42.2404 50.755 41.9804 50.765C41.7204 50.775 41.4504 50.785 41.1804 50.785C41.0804 50.785 40.9904 50.765 40.9304 50.725C40.8604 50.685 40.8304 50.625 40.8304 50.545C40.8304 50.455 40.8604 50.385 40.9304 50.345C41.0004 50.305 41.1004 50.265 41.2404 50.235C41.6504 50.135 41.9404 49.995 42.1104 49.825C42.2804 49.655 42.3704 49.405 42.3704 49.065V45.835C42.3704 45.765 42.3704 45.705 42.3404 45.645C42.3204 45.585 42.2704 45.565 42.2004 45.565H37.0404C36.9204 45.565 36.8504 45.645 36.8504 45.815V48.985C36.8504 49.325 36.9504 49.595 37.1504 49.785C37.3504 49.975 37.6504 50.125 38.0604 50.225C38.2104 50.255 38.3104 50.295 38.3804 50.335C38.4504 50.375 38.4804 50.435 38.4804 50.535C38.4804 50.615 38.4504 50.675 38.3904 50.715C38.3304 50.755 38.2304 50.775 38.1104 50.775C37.8504 50.775 37.5804 50.775 37.3104 50.755C37.0404 50.745 36.7704 50.735 36.5204 50.725C36.2704 50.715 36.0204 50.705 35.7804 50.705C35.5404 50.705 35.3004 50.705 35.0704 50.725C34.8304 50.735 34.5904 50.755 34.3404 50.765C34.0904 50.785 33.8404 50.795 33.5904 50.795L33.5804 50.815Z" fill="black"/>
<path id="Vector_5" d="M47.2498 50.835C47.1298 50.835 47.0298 50.815 46.9498 50.765C46.8798 50.725 46.8398 50.665 46.8398 50.595C46.8398 50.445 46.9898 50.345 47.2798 50.275C47.6898 50.175 47.9798 50.045 48.1498 49.895C48.3198 49.745 48.4098 49.475 48.4098 49.105V41.415C48.4098 41.035 48.3298 40.755 48.1798 40.605C48.0298 40.445 47.7398 40.325 47.3198 40.235C47.1598 40.205 47.0498 40.155 46.9798 40.095C46.9098 40.035 46.8798 39.965 46.8798 39.895C46.8798 39.815 46.9198 39.755 46.9898 39.715C47.0598 39.675 47.1598 39.655 47.2898 39.655C47.6198 39.655 47.9298 39.655 48.2298 39.675C48.5298 39.695 48.8198 39.695 49.0998 39.705C49.3798 39.715 49.6798 39.725 49.9798 39.725C50.4998 39.725 51.0498 39.725 51.6398 39.705C52.2198 39.695 52.7498 39.685 53.2098 39.685C53.5798 39.675 53.8898 39.655 54.1398 39.635C54.3798 39.615 54.5298 39.605 54.5698 39.605C54.6498 39.605 54.7298 39.625 54.8198 39.655C54.8998 39.685 54.9498 39.755 54.9598 39.855C54.9998 40.225 55.0598 40.595 55.1298 40.955C55.1998 41.315 55.2298 41.635 55.2298 41.905C55.2298 42.005 55.1998 42.085 55.1498 42.135C55.0998 42.185 55.0398 42.215 54.9898 42.215C54.9398 42.215 54.8798 42.195 54.8398 42.155C54.7998 42.115 54.7598 42.055 54.7198 41.975C54.6298 41.715 54.5498 41.485 54.4698 41.295C54.3898 41.105 54.2998 40.955 54.1998 40.855C54.0498 40.695 53.8798 40.575 53.6898 40.485C53.4998 40.395 53.2698 40.345 52.9898 40.345H51.4098C51.2098 40.345 51.0198 40.405 50.8498 40.525C50.6798 40.645 50.5998 40.815 50.5998 41.025V44.355C50.5998 44.475 50.6398 44.575 50.7098 44.645C50.7798 44.715 50.8698 44.745 50.9698 44.745H52.5298C52.8398 44.745 53.0498 44.665 53.1798 44.495C53.3098 44.325 53.4198 44.095 53.5098 43.795C53.5898 43.565 53.6998 43.455 53.8298 43.455C53.8898 43.455 53.9398 43.485 53.9798 43.545C54.0198 43.605 54.0498 43.685 54.0498 43.795C54.0398 43.905 54.0298 44.045 54.0198 44.205C54.0098 44.365 53.9998 44.525 53.9898 44.675C53.9898 44.835 53.9898 44.975 53.9898 45.095C53.9898 45.235 53.9898 45.385 53.9898 45.555C53.9898 45.725 53.9998 45.895 54.0098 46.055C54.0198 46.215 54.0198 46.355 54.0398 46.475C54.0498 46.595 54.0398 46.695 54.0098 46.765C53.9798 46.835 53.9298 46.865 53.8698 46.865C53.6898 46.865 53.5598 46.705 53.4798 46.385C53.3898 46.065 53.2798 45.835 53.1598 45.675C53.0398 45.515 52.8698 45.435 52.6498 45.435H51.0498C50.8998 45.435 50.7898 45.465 50.7098 45.515C50.6298 45.575 50.5898 45.675 50.5898 45.835V49.065C50.5898 49.435 50.6698 49.695 50.8298 49.845C50.9898 49.995 51.2298 50.065 51.5598 50.065H52.9498C53.2298 50.065 53.4898 50.035 53.7198 49.985C53.9498 49.925 54.1498 49.835 54.3198 49.715C54.5098 49.575 54.6798 49.395 54.8398 49.165C54.9898 48.935 55.1398 48.675 55.2898 48.395C55.3298 48.305 55.3798 48.245 55.4298 48.215C55.4698 48.185 55.5298 48.175 55.5998 48.175C55.6598 48.185 55.6998 48.215 55.7298 48.275C55.7598 48.335 55.7698 48.395 55.7698 48.465C55.7698 48.625 55.7398 48.825 55.6898 49.075C55.6398 49.325 55.5598 49.585 55.4798 49.845C55.3998 50.105 55.3198 50.355 55.2498 50.585C55.2198 50.665 55.1698 50.725 55.1098 50.765C55.0498 50.805 54.9898 50.825 54.9098 50.825C54.6398 50.825 54.2898 50.825 53.8698 50.825C53.4498 50.825 52.9798 50.815 52.4898 50.795C51.9898 50.785 51.4798 50.775 50.9598 50.765C50.4398 50.765 49.9398 50.765 49.4698 50.765C49.2298 50.765 48.9898 50.765 48.7498 50.785C48.5098 50.795 48.2598 50.815 48.0098 50.825C47.7598 50.845 47.5098 50.855 47.2498 50.855V50.835Z" fill="black"/>
<path id="Vector_6" d="M67.0104 51.105C66.5204 51.105 66.1004 51.055 65.7404 50.945C65.3804 50.835 65.0704 50.685 64.8104 50.475C64.5504 50.275 64.3104 50.035 64.1004 49.765C63.8504 49.425 63.6104 49.095 63.3704 48.775C63.1304 48.455 62.8904 48.095 62.6504 47.705C62.4104 47.315 62.1404 46.845 61.8404 46.305C61.6904 46.045 61.5104 45.855 61.2804 45.725C61.1304 45.645 60.9804 45.585 60.8304 45.555C60.6804 45.525 60.5504 45.505 60.4504 45.505C60.3804 45.495 60.3304 45.525 60.3004 45.585C60.2704 45.655 60.2504 45.735 60.2504 45.835V48.995C60.2504 49.345 60.3404 49.615 60.5304 49.815C60.7204 50.005 61.0404 50.155 61.4904 50.255C61.6404 50.275 61.7404 50.315 61.8104 50.365C61.8804 50.415 61.9104 50.485 61.9104 50.575C61.9104 50.655 61.8804 50.715 61.8204 50.745C61.7604 50.775 61.6604 50.795 61.5404 50.795C61.2804 50.795 61.0104 50.795 60.7404 50.765C60.4704 50.745 60.2004 50.735 59.9504 50.725C59.7004 50.715 59.4504 50.705 59.2304 50.705C58.9804 50.705 58.7204 50.705 58.4604 50.725C58.1904 50.735 57.9304 50.755 57.6504 50.775C57.3804 50.795 57.1104 50.805 56.8304 50.805C56.7304 50.805 56.6404 50.785 56.5604 50.745C56.4804 50.705 56.4404 50.655 56.4404 50.585C56.4404 50.415 56.5804 50.305 56.8604 50.245C57.2904 50.155 57.6004 50.035 57.7804 49.875C57.9604 49.715 58.0504 49.455 58.0504 49.075V41.575C58.0504 41.245 58.0204 40.995 57.9704 40.825C57.9204 40.645 57.8204 40.515 57.6704 40.425C57.5204 40.335 57.3004 40.265 57.0104 40.225C56.8504 40.205 56.7404 40.155 56.6704 40.085C56.6004 40.015 56.5704 39.945 56.5704 39.885C56.5704 39.805 56.6104 39.745 56.6804 39.705C56.7504 39.665 56.8504 39.645 56.9804 39.645C57.3204 39.645 57.5904 39.645 57.7904 39.665C57.9904 39.685 58.1904 39.695 58.3804 39.705C58.5704 39.725 58.7904 39.735 59.0504 39.735C59.3104 39.735 59.5204 39.725 59.7104 39.705C59.9004 39.685 60.1204 39.655 60.3504 39.635C60.5904 39.615 60.8904 39.605 61.2704 39.605C62.5704 39.605 63.5704 39.835 64.2604 40.285C64.9504 40.735 65.3004 41.425 65.3004 42.355C65.3004 42.865 65.1904 43.295 64.9804 43.655C64.7604 44.015 64.5004 44.305 64.1704 44.525C63.8404 44.745 63.5204 44.925 63.1804 45.055C63.1404 45.065 63.1104 45.095 63.1204 45.135C63.1304 45.175 63.1504 45.215 63.1804 45.255C63.5204 45.775 63.8504 46.275 64.1704 46.745C64.4904 47.215 64.8304 47.655 65.1904 48.075C65.5504 48.495 65.9304 48.895 66.3504 49.285C66.7004 49.615 67.0604 49.805 67.4304 49.865C67.8004 49.925 68.1804 49.955 68.5804 49.955C68.7504 49.955 68.8304 50.035 68.8304 50.205C68.8304 50.435 68.7504 50.605 68.5804 50.735C68.4104 50.865 68.1904 50.955 67.9104 51.015C67.6304 51.075 67.3304 51.095 67.0204 51.095L67.0104 51.105ZM60.9704 45.015C61.4304 45.015 61.8204 44.915 62.1304 44.705C62.4404 44.495 62.6804 44.215 62.8404 43.865C63.0004 43.515 63.0904 43.125 63.0904 42.695C63.0904 42.185 63.0304 41.755 62.9004 41.395C62.7804 41.035 62.5604 40.765 62.2604 40.565C61.9604 40.365 61.5504 40.265 61.0304 40.265C60.7404 40.265 60.5304 40.375 60.4304 40.575C60.3204 40.785 60.2604 41.205 60.2504 41.835C60.2404 42.095 60.2304 42.435 60.2304 42.865V44.385C60.2304 44.635 60.3004 44.805 60.4304 44.885C60.5604 44.965 60.7404 45.015 60.9704 45.015Z" fill="black"/>
<path id="Vector_7" d="M69.4507 50.835C69.3107 50.835 69.2007 50.8151 69.1107 50.7751C69.0207 50.7351 68.9707 50.6751 68.9707 50.5751C68.9707 50.475 69.0107 50.395 69.1007 50.335C69.1907 50.275 69.3007 50.2251 69.4307 50.1851C69.7607 50.0951 70.0407 49.955 70.2907 49.765C70.5307 49.575 70.7307 49.325 70.8807 48.995C71.1607 48.325 71.4307 47.685 71.6907 47.065C71.9507 46.445 72.2007 45.8351 72.4407 45.2251C72.6807 44.6151 72.9207 43.995 73.1607 43.355C73.4007 42.725 73.6507 42.055 73.9007 41.355C74.0207 41.005 74.1107 40.7351 74.1507 40.5451C74.1907 40.3551 74.2307 40.215 74.2707 40.125C74.4407 40.085 74.6007 40.0351 74.7507 39.9851C74.9007 39.9451 75.0607 39.885 75.2407 39.815C75.4007 39.735 75.5307 39.6351 75.6507 39.5051C75.7607 39.3851 75.8507 39.285 75.9007 39.215C75.9307 39.195 75.9707 39.175 76.0007 39.175C76.0307 39.175 76.0707 39.1951 76.1007 39.2551C76.1307 39.3251 76.1607 39.3951 76.1807 39.4551C76.2007 39.5251 76.2207 39.595 76.2507 39.675C76.5007 40.475 76.7607 41.2951 77.0207 42.1151C77.2907 42.9351 77.5507 43.7451 77.8107 44.5451C78.0707 45.3451 78.3207 46.105 78.5607 46.835C78.8007 47.565 79.0307 48.2351 79.2307 48.8451C79.3307 49.1551 79.4607 49.3951 79.6107 49.5751C79.7607 49.7551 79.9307 49.895 80.1207 49.995C80.3107 50.095 80.5107 50.1651 80.7407 50.2251C80.8907 50.2551 81.0007 50.3051 81.0807 50.3651C81.1607 50.4251 81.2007 50.505 81.2007 50.605C81.2007 50.675 81.1607 50.7251 81.0907 50.7551C81.0207 50.7851 80.9207 50.805 80.8107 50.805C80.6107 50.805 80.3507 50.805 80.0407 50.785C79.7307 50.775 79.4107 50.755 79.0807 50.745C78.7507 50.725 78.4607 50.715 78.2007 50.715C77.9707 50.715 77.7207 50.715 77.4407 50.7351C77.1607 50.7451 76.8907 50.755 76.6107 50.765C76.3307 50.775 76.1007 50.785 75.9107 50.785C75.8007 50.785 75.7007 50.7651 75.6107 50.7251C75.5307 50.6851 75.4807 50.6251 75.4807 50.5451C75.4807 50.4551 75.5207 50.375 75.6207 50.315C75.7207 50.255 75.8207 50.2151 75.9407 50.1851C76.3507 50.1151 76.6407 50.015 76.8207 49.875C77.0007 49.735 77.0707 49.5251 77.0207 49.2551C76.9907 49.0651 76.9407 48.835 76.8707 48.565C76.8007 48.295 76.7307 48.0251 76.6607 47.7351C76.5907 47.4451 76.5107 47.185 76.4307 46.945C76.4107 46.855 76.3707 46.785 76.3307 46.745C76.2907 46.705 76.2007 46.6851 76.0807 46.6851H73.0207C72.9407 46.6851 72.8807 46.715 72.8307 46.765C72.7807 46.815 72.7507 46.895 72.7307 46.995C72.6807 47.145 72.6307 47.305 72.5707 47.495C72.5107 47.685 72.4507 47.8751 72.3807 48.0751C72.3207 48.2751 72.2607 48.455 72.2107 48.625C72.1607 48.795 72.1207 48.945 72.1007 49.065C72.0407 49.375 72.1007 49.615 72.2607 49.785C72.4207 49.955 72.7107 50.0951 73.1207 50.2051C73.4307 50.2851 73.5807 50.405 73.5807 50.565C73.5807 50.635 73.5407 50.6851 73.4707 50.7251C73.4007 50.7651 73.2907 50.785 73.1607 50.785C72.9007 50.785 72.6307 50.7851 72.3507 50.7551C72.0707 50.7351 71.7607 50.7251 71.4207 50.7251C71.0807 50.7251 70.7507 50.7451 70.4307 50.7751C70.1107 50.8051 69.7807 50.8251 69.4507 50.8251V50.835ZM73.4907 45.9151H75.8507C76.0107 45.9151 76.0907 45.885 76.0907 45.815C76.0907 45.785 76.0907 45.7551 76.0907 45.7351C76.0907 45.7151 76.0807 45.6751 76.0607 45.6351L74.8707 41.715C74.8207 41.555 74.7907 41.4751 74.7507 41.4751C74.7307 41.4751 74.6907 41.545 74.6307 41.695L73.2007 45.6351C73.1807 45.6951 73.1707 45.7351 73.1707 45.7751C73.1707 45.8351 73.2007 45.8751 73.2607 45.8951C73.3207 45.9151 73.4007 45.925 73.4907 45.925V45.9151Z" fill="black"/>
<path id="Vector_8" d="M81.6898 50.8149C81.5898 50.8149 81.4998 50.7949 81.4198 50.7549C81.3398 50.7149 81.2998 50.6649 81.2998 50.5949C81.2998 50.4249 81.4398 50.3149 81.7198 50.2549C82.1498 50.1649 82.4598 50.0449 82.6398 49.8849C82.8198 49.7249 82.9098 49.4649 82.9098 49.0849V41.6149C82.9098 41.1849 82.8398 40.8649 82.6998 40.6649C82.5598 40.4649 82.2798 40.3149 81.8798 40.2249C81.7198 40.1949 81.6098 40.1449 81.5398 40.0849C81.4698 40.0249 81.4398 39.9549 81.4398 39.8849C81.4398 39.8049 81.4798 39.7449 81.5498 39.7049C81.6198 39.6649 81.7198 39.6449 81.8498 39.6449C82.1198 39.6449 82.3698 39.6449 82.5998 39.6449C82.8298 39.6449 83.0598 39.6549 83.2698 39.6749C83.4798 39.6849 83.7098 39.6949 83.9298 39.6949C84.1798 39.6949 84.4098 39.6849 84.6298 39.6649C84.8498 39.6449 85.0798 39.6249 85.3098 39.5949C85.5398 39.5749 85.8098 39.5649 86.1198 39.5649C87.4698 39.5649 88.5398 39.8449 89.3498 40.4149C90.1498 40.9849 90.5598 41.7649 90.5598 42.7549C90.5598 43.4549 90.4198 44.1049 90.1298 44.6949C89.8398 45.2849 89.3998 45.7649 88.8098 46.1249C88.2198 46.4849 87.4698 46.6649 86.5598 46.6649C86.2798 46.6649 86.0598 46.6249 85.9198 46.5349C85.7698 46.4549 85.6998 46.3549 85.6998 46.2549C85.6998 46.1849 85.7398 46.1249 85.8098 46.0749C85.8798 46.0249 85.9498 45.9949 85.9998 45.9949C86.0998 45.9949 86.1998 45.9949 86.2998 46.0249C86.3998 46.0449 86.5398 46.0549 86.7298 46.0549C87.2598 46.0549 87.6698 45.7849 87.9398 45.2349C88.2198 44.6949 88.3598 43.9649 88.3598 43.0649C88.3598 42.0649 88.1598 41.3449 87.7598 40.8849C87.3598 40.4249 86.8198 40.1949 86.1398 40.1949C85.8198 40.1949 85.5798 40.2649 85.3998 40.3949C85.2198 40.5249 85.1398 40.7349 85.1398 41.0149L85.1198 48.9749C85.1198 49.3449 85.2098 49.6249 85.3998 49.8149C85.5898 50.0049 85.9098 50.1449 86.3598 50.2449C86.5098 50.2649 86.6098 50.3049 86.6798 50.3549C86.7498 50.4049 86.7798 50.4749 86.7798 50.5649C86.7798 50.6449 86.7498 50.7049 86.6898 50.7349C86.6298 50.7649 86.5298 50.7849 86.4098 50.7849C86.1498 50.7849 85.8798 50.7849 85.6098 50.7549C85.3398 50.7349 85.0698 50.7249 84.8198 50.7149C84.5698 50.7049 84.3198 50.6949 84.0998 50.6949C83.8498 50.6949 83.5898 50.6949 83.3298 50.7149C83.0598 50.7249 82.7998 50.7449 82.5198 50.7649C82.2498 50.7849 81.9798 50.7949 81.6998 50.7949L81.6898 50.8149Z" fill="black"/>
<path id="Vector_9" d="M94.19 50.845C94.04 50.845 93.93 50.825 93.84 50.775C93.75 50.725 93.71 50.665 93.71 50.585C93.71 50.495 93.76 50.425 93.85 50.375C93.95 50.325 94.07 50.285 94.21 50.245C94.64 50.165 94.95 50.015 95.14 49.785C95.33 49.555 95.43 49.255 95.43 48.885V46.475C95.43 46.145 95.37 45.855 95.26 45.585C95.15 45.315 95.04 45.095 94.94 44.915L92.82 41.575C92.73 41.425 92.61 41.265 92.47 41.075C92.33 40.885 92.17 40.715 92 40.555C91.83 40.395 91.64 40.285 91.42 40.235C91.28 40.195 91.17 40.145 91.09 40.095C91.01 40.045 90.96 39.975 90.96 39.885C90.96 39.805 91 39.745 91.08 39.705C91.16 39.665 91.25 39.645 91.37 39.645C91.78 39.645 92.18 39.655 92.58 39.685C92.98 39.715 93.41 39.725 93.86 39.725C94.19 39.725 94.5 39.715 94.8 39.685C95.1 39.655 95.41 39.645 95.72 39.645C95.83 39.645 95.94 39.665 96.04 39.705C96.14 39.745 96.19 39.805 96.19 39.885C96.19 39.975 96.14 40.045 96.04 40.105C95.94 40.165 95.82 40.205 95.68 40.245C95.42 40.305 95.22 40.365 95.1 40.445C94.97 40.525 94.9 40.645 94.9 40.805C94.9 40.975 94.97 41.175 95.1 41.395L96.78 44.365C96.93 44.645 97.05 44.785 97.15 44.785C97.21 44.785 97.26 44.755 97.32 44.685C97.38 44.615 97.45 44.505 97.54 44.365C97.81 43.925 98.06 43.485 98.29 43.055C98.52 42.625 98.76 42.155 99.02 41.645C99.09 41.505 99.14 41.375 99.18 41.245C99.22 41.115 99.24 40.995 99.24 40.895C99.24 40.665 99.15 40.505 98.97 40.415C98.79 40.315 98.6 40.255 98.41 40.235C98.3 40.225 98.18 40.185 98.05 40.115C97.93 40.045 97.86 39.965 97.86 39.875C97.86 39.795 97.91 39.735 98.01 39.705C98.11 39.675 98.22 39.655 98.35 39.655C98.66 39.655 98.92 39.665 99.16 39.685C99.39 39.705 99.65 39.715 99.93 39.715C100.25 39.715 100.55 39.695 100.84 39.665C101.13 39.635 101.41 39.615 101.68 39.615C101.82 39.615 101.93 39.635 102.03 39.665C102.13 39.695 102.17 39.765 102.17 39.855C102.17 39.955 102.1 40.035 101.97 40.085C101.84 40.135 101.69 40.185 101.53 40.225C101.21 40.315 100.94 40.465 100.71 40.685C100.48 40.905 100.26 41.175 100.05 41.515C99.86 41.835 99.68 42.125 99.51 42.385C99.34 42.655 99.18 42.905 99.03 43.145C98.88 43.385 98.72 43.635 98.56 43.895C98.4 44.145 98.23 44.425 98.05 44.735C97.94 44.925 97.85 45.105 97.79 45.265C97.73 45.425 97.68 45.585 97.65 45.755C97.62 45.925 97.6 46.125 97.6 46.345V48.855C97.6 49.275 97.7 49.585 97.89 49.775C98.08 49.975 98.39 50.125 98.82 50.225C98.98 50.255 99.11 50.295 99.2 50.345C99.3 50.385 99.34 50.465 99.34 50.565C99.34 50.635 99.3 50.685 99.21 50.735C99.13 50.785 99.01 50.805 98.88 50.805C98.61 50.805 98.34 50.795 98.07 50.775C97.8 50.755 97.53 50.735 97.28 50.715C97.03 50.695 96.77 50.685 96.53 50.685C96.29 50.685 96.03 50.685 95.77 50.715C95.51 50.735 95.24 50.755 94.97 50.785C94.7 50.815 94.43 50.825 94.16 50.825L94.19 50.845Z" fill="black"/>
</g>
<path id="Vector_10" d="M51.5505 2.89502C69.6905 2.89502 85.9905 14.465 92.1005 31.345H88.0505C82.1005 16.525 67.6105 6.66502 51.5405 6.66502C36.5205 6.66502 22.6005 15.425 16.0805 28.975L15.4705 30.255L16.4705 31.255L17.3005 32.085L10.7305 33.075L10.5705 25.365L10.6905 25.485L12.5605 27.355L13.8505 25.045C21.4805 11.385 35.9205 2.89502 51.5505 2.89502ZM51.5505 0.89502C34.5905 0.89502 19.8305 10.245 12.1205 24.075L8.48047 20.435L8.79047 35.395L21.5305 33.485L17.9005 29.855C23.9105 17.315 36.7205 8.66502 51.5505 8.66502C67.7305 8.66502 81.5005 18.955 86.6805 33.345H94.8605C89.3805 14.585 72.0605 0.89502 51.5505 0.89502Z" fill="black"/>
<path id="Vector_11" d="M92.2902 58.0251L92.5402 66.8151L92.3202 66.5951L90.4502 64.7251L89.1602 67.0251C81.5302 80.6351 67.1102 89.0951 51.5302 89.0951C33.3802 89.0951 17.0802 77.5251 10.9702 60.6451H15.0202C20.9702 75.4651 35.4602 85.3251 51.5302 85.3251C66.5102 85.3251 80.4102 76.6051 86.9402 63.1151L87.5602 61.8351L86.5502 60.8251L85.5102 59.7851L92.2802 58.0151M94.2102 55.4451L81.6402 58.7351L85.1502 62.2451C79.1102 74.7151 66.3302 83.3251 51.5402 83.3251C35.3602 83.3251 21.5902 73.0351 16.4102 58.6451H8.24023C13.7002 77.4051 31.0202 91.0951 51.5502 91.0951C68.4602 91.0951 83.2002 81.7851 90.9202 68.0051L94.7002 71.7851L94.2302 55.4451H94.2102Z" fill="black"/>
</g>
<defs>
<clipPath id="clip0_445_14490">
<rect width="101.44" height="90.21" fill="white" transform="translate(0.780273 0.89502)"/>
</clipPath>
</defs>
</svg>
