<svg width="106" height="104" viewBox="0 0 106 104" fill="none" xmlns="http://www.w3.org/2000/svg">
<g id="_?&#235;&#141;&#137;&#236;&#148;&#160;??1" clip-path="url(#clip0_445_14456)">
<g id="Group">
<path id="Vector" d="M34.5155 56.305C32.5955 57.755 29.8155 58.595 26.6955 58.185C23.5755 57.775 21.2155 56.785 19.8955 54.425" stroke="black" stroke-width="2" stroke-linecap="round" stroke-linejoin="round"/>
<path id="Vector_2" d="M54.9756 56.305C56.8956 57.755 59.6756 58.595 62.7956 58.185C65.9156 57.775 68.2756 56.785 69.5956 54.425" stroke="black" stroke-width="2" stroke-linecap="round" stroke-linejoin="round"/>
<path id="Vector_3" d="M61.6756 44.905C57.8056 45.235 55.2156 45.765 53.2656 47.235" stroke="black" stroke-width="2" stroke-linecap="round" stroke-linejoin="round"/>
<path id="Vector_4" d="M22.3359 45.1351C23.9859 44.8351 25.8459 44.7351 27.8259 44.9051C31.6959 45.2351 34.4059 46.4151 36.3659 47.7751" stroke="black" stroke-width="2" stroke-linecap="round" stroke-linejoin="round"/>
<path id="Vector_5" d="M53.266 47.2351C53.266 47.2351 42.416 53.0051 49.616 70.5751L46.126 73.7951" stroke="black" stroke-width="2" stroke-linecap="round" stroke-linejoin="round"/>
<path id="Vector_6" d="M36.8154 82.0652C36.8154 82.0652 39.3154 83.0052 41.7854 82.0252C43.2054 81.4552 43.7754 81.3952 45.1854 82.0252C46.5954 82.6552 46.9354 81.0052 49.4354 82.0252C51.1854 82.7452 53.1754 82.7152 54.8954 82.1352C54.8954 82.1352 53.3154 90.6552 40.1254 87.1652" stroke="black" stroke-width="2" stroke-linecap="round" stroke-linejoin="round"/>
</g>
<path id="Vector_7" d="M5.97559 59.375C5.97559 59.375 11.6056 59.525 12.7456 61.145" stroke="black" stroke-width="2" stroke-linecap="round" stroke-linejoin="round"/>
<path id="Vector_8" d="M84.0854 59.375C84.0854 59.375 78.4554 59.525 77.3154 61.145" stroke="black" stroke-width="2" stroke-linecap="round" stroke-linejoin="round"/>
<path id="Vector_9" d="M77.3151 53.425L76.9051 61.455C76.9051 76.675 70.5251 90.515 59.0251 96.965L51.6851 101.085C47.4651 103.455 42.5951 103.455 38.3751 101.085L31.0351 96.965C19.5351 90.505 13.1551 76.665 13.1551 61.455L12.7451 53.805" stroke="black" stroke-width="2" stroke-linecap="round" stroke-linejoin="round"/>
<path id="Vector_10" d="M9.08493 52.2649C4.19493 35.8849 7.89493 3.64494 36.9849 1.30494C39.7549 1.08494 50.2649 1.08494 53.0249 1.29494C83.1549 3.56494 84.4749 36.9549 80.7249 52.2649" stroke="black" stroke-width="2" stroke-linecap="round" stroke-linejoin="round"/>
<path id="Vector_11" d="M13.3052 74.3249C6.94516 74.3249 1.78516 68.8049 1.78516 61.9849V59.5549C1.78516 55.9449 4.51516 53.0249 7.88516 53.0249H12.4652" stroke="black" stroke-width="2" stroke-linecap="round" stroke-linejoin="round"/>
<path id="Vector_12" d="M76.4551 74.3249C82.8151 74.3249 87.9751 68.8049 87.9751 61.9849V59.5549C87.9751 55.9449 85.2451 53.0249 81.8751 53.0249H77.2951" stroke="black" stroke-width="2" stroke-linecap="round" stroke-linejoin="round"/>
<path id="Vector_13" d="M98.9448 56.6149C99.8448 58.0949 100.885 59.4149 102.035 60.5049C100.885 61.6049 99.8448 62.9149 98.9548 64.3949C98.0548 62.9149 97.0148 61.5949 95.8648 60.5049C97.0148 59.4049 98.0548 58.0949 98.9448 56.6149ZM98.9448 52.0249C97.5548 55.7449 95.3548 58.7349 92.6748 60.5049C95.3548 62.2749 97.5648 65.2749 98.9448 68.9949C100.335 65.2749 102.535 62.2849 105.215 60.5049C102.535 58.7349 100.335 55.7449 98.9448 52.0249Z" fill="#B4B0AA"/>
<path id="Vector_14" d="M92.6753 38.705C93.5753 40.185 94.6153 41.505 95.7653 42.595C94.6153 43.695 93.5753 45.005 92.6853 46.485C91.7853 45.005 90.7453 43.685 89.5953 42.595C90.7453 41.495 91.7853 40.185 92.6753 38.705ZM92.6753 34.115C91.2853 37.835 89.0853 40.825 86.4053 42.595C89.0853 44.365 91.2953 47.365 92.6753 51.085C94.0653 47.365 96.2653 44.375 98.9453 42.595C96.2653 40.825 94.0653 37.835 92.6753 34.115Z" fill="#B4B0AA"/>
<path id="Vector_15" d="M12.7451 53.025C12.7451 53.025 33.2051 37.085 41.3751 20.385C41.3751 20.385 50.7451 43.505 77.3151 53.025" stroke="black" stroke-width="2" stroke-linecap="round" stroke-linejoin="round"/>
<path id="Vector_16" d="M9.35547 74.325V101.425" stroke="black" stroke-width="2" stroke-linecap="round" stroke-linejoin="round"/>
<path id="Vector_17" d="M80.6953 74.325V101.425" stroke="black" stroke-width="2" stroke-linecap="round" stroke-linejoin="round"/>
</g>
<defs>
<clipPath id="clip0_445_14456">
<rect width="104.43" height="103.73" fill="white" transform="translate(0.785156 0.13501)"/>
</clipPath>
</defs>
</svg>
