<svg width="88" height="112" viewBox="0 0 88 112" fill="none" xmlns="http://www.w3.org/2000/svg">
<g id="_?&#235;&#141;&#137;&#236;&#148;&#160;??1" clip-path="url(#clip0_445_14647)">
<path id="Vector" d="M5.70508 59.6602C5.70508 59.6602 11.3351 59.8102 12.4751 61.4302" stroke="black" stroke-width="2" stroke-linecap="round" stroke-linejoin="round"/>
<path id="Vector_2" d="M82.0444 59.6602C82.0444 59.6602 76.4144 59.8102 75.2744 61.4302" stroke="black" stroke-width="2" stroke-linecap="round" stroke-linejoin="round"/>
<path id="Vector_3" d="M46.9646 10.49C62.8646 10.49 75.8046 26.13 75.8646 45.37L73.8847 61.17C73.8747 61.25 73.8646 61.34 73.8646 61.42C73.8646 79.86 69.9946 89.57 60.5146 94.9L49.9846 100.42C49.9846 100.42 49.9546 100.44 49.9346 100.45C48.0746 101.49 46.1046 102.02 44.0646 102.02C42.0246 102.02 40.0546 101.49 38.1946 100.45L27.6346 94.52C18.1346 89.19 14.2646 79.6 14.2646 61.42C14.2646 61.34 14.2646 61.25 14.2446 61.17L12.2646 45.37C12.3246 26.12 25.2647 10.49 41.1646 10.49H46.9646ZM46.9646 8.48998H41.1646C24.1047 8.48998 10.2646 25.06 10.2646 45.5L12.2646 61.43C12.2646 77.08 14.8246 89.63 26.6646 96.27L37.2246 102.2C39.3946 103.42 41.7346 104.03 44.0746 104.03C46.4146 104.03 48.7546 103.42 50.9246 102.2L61.4846 96.66C73.3246 90.02 75.8847 77.07 75.8847 61.42L77.8847 45.49C77.8847 25.05 64.0546 8.47998 46.9846 8.47998L46.9646 8.48998Z" fill="black"/>
<path id="Vector_4" d="M46.2749 111.58C45.7849 111.58 45.3549 111.22 45.2849 110.72C45.2049 110.17 45.5849 109.67 46.1349 109.59C46.4449 109.55 46.7549 109.49 47.0549 109.43C47.5949 109.32 48.1249 109.67 48.2349 110.21C48.3449 110.75 47.9949 111.28 47.4549 111.39C47.1049 111.46 46.7549 111.52 46.4049 111.57C46.3549 111.57 46.3049 111.57 46.2649 111.57L46.2749 111.58ZM41.2949 111.49C41.2349 111.49 41.1749 111.49 41.1249 111.47C40.7749 111.41 40.4249 111.34 40.0849 111.25C39.5449 111.12 39.2149 110.58 39.3449 110.04C39.4749 109.5 40.0149 109.17 40.5549 109.3C40.8549 109.37 41.1649 109.44 41.4749 109.49C42.0149 109.59 42.3849 110.1 42.2849 110.65C42.1949 111.13 41.7749 111.48 41.3049 111.48L41.2949 111.49ZM51.9249 109.68C51.5649 109.68 51.2149 109.49 51.0349 109.15C50.7749 108.66 50.9649 108.06 51.4549 107.8L52.3349 107.33C52.8249 107.08 53.4249 107.26 53.6849 107.75C53.9449 108.24 53.7549 108.84 53.2649 109.1L52.3849 109.57C52.2349 109.65 52.0749 109.69 51.9249 109.69V109.68ZM35.6949 109.41C35.5249 109.41 35.3649 109.37 35.2049 109.28L34.3349 108.79C33.8549 108.52 33.6849 107.91 33.9549 107.43C34.2249 106.95 34.8349 106.78 35.3149 107.05L36.1849 107.54C36.6649 107.81 36.8349 108.42 36.5649 108.9C36.3849 109.23 36.0449 109.41 35.6949 109.41ZM57.2349 106.89C56.8749 106.89 56.5249 106.7 56.3449 106.35C56.0849 105.86 56.2749 105.26 56.7649 105L57.6549 104.54C58.1449 104.28 58.7449 104.47 59.0049 104.96C59.2649 105.45 59.0749 106.05 58.5849 106.31L57.6949 106.77C57.5449 106.85 57.3849 106.88 57.2349 106.88V106.89ZM30.4649 106.47C30.2949 106.47 30.1349 106.43 29.9749 106.34L29.1049 105.85C28.6249 105.58 28.4549 104.97 28.7249 104.49C28.9949 104.01 29.6049 103.84 30.0849 104.11L30.9549 104.6C31.4349 104.87 31.6049 105.48 31.3349 105.96C31.1549 106.29 30.8149 106.47 30.4649 106.47ZM62.5449 104.11C62.1849 104.11 61.8349 103.92 61.6549 103.57C61.3949 103.08 61.5849 102.48 62.0749 102.22L62.9649 101.76C63.4549 101.5 64.0549 101.69 64.3149 102.18C64.5749 102.67 64.3849 103.27 63.8949 103.53L63.0049 103.99C62.8549 104.07 62.6949 104.1 62.5449 104.1V104.11ZM25.2349 103.53C25.0649 103.53 24.9049 103.49 24.7449 103.4L23.8749 102.91C23.3949 102.64 23.2249 102.03 23.4949 101.55C23.7649 101.07 24.3749 100.9 24.8549 101.17L25.7249 101.66C26.2049 101.93 26.3749 102.54 26.1049 103.02C25.9249 103.35 25.5849 103.53 25.2349 103.53ZM67.6749 101.02C67.3649 101.02 67.0649 100.88 66.8749 100.62C66.5449 100.18 66.6349 99.5498 67.0849 99.2198C67.3449 99.0298 67.5949 98.8298 67.8449 98.6298C68.2749 98.2898 68.9049 98.3498 69.2549 98.7898C69.6049 99.2298 69.5349 99.8498 69.0949 100.2C68.8249 100.41 68.5549 100.62 68.2749 100.83C68.0949 100.96 67.8849 101.03 67.6749 101.03V101.02ZM20.1549 100.36C19.9449 100.36 19.7349 100.29 19.5549 100.16C19.2749 99.9498 19.0049 99.7398 18.7449 99.5198C18.3149 99.1698 18.2549 98.5398 18.5949 98.1098C18.9449 97.6798 19.5749 97.6198 20.0049 97.9598C20.2549 98.1598 20.5049 98.3598 20.7649 98.5498C21.2049 98.8798 21.2949 99.5098 20.9549 99.9498C20.7549 100.21 20.4549 100.35 20.1549 100.35V100.36ZM72.0749 96.9598C71.8449 96.9598 71.6049 96.8798 71.4149 96.7098C70.9949 96.3498 70.9549 95.7198 71.3149 95.2998C71.5249 95.0598 71.7349 94.8098 71.9349 94.5598C72.2849 94.1298 72.9149 94.0698 73.3449 94.4098C73.7749 94.7598 73.8349 95.3898 73.4949 95.8198C73.2749 96.0898 73.0549 96.3498 72.8349 96.6098C72.6349 96.8398 72.3549 96.9498 72.0849 96.9498L72.0749 96.9598ZM15.7849 96.2698C15.5049 96.2698 15.2249 96.1498 15.0249 95.9198C14.7949 95.6598 14.5749 95.3898 14.3649 95.1198C14.0149 94.6898 14.0849 94.0598 14.5249 93.7098C14.9549 93.3598 15.5849 93.4298 15.9349 93.8698C16.1349 94.1198 16.3449 94.3698 16.5549 94.6098C16.9149 95.0298 16.8649 95.6598 16.4549 96.0198C16.2649 96.1798 16.0349 96.2598 15.8049 96.2598L15.7849 96.2698ZM75.5149 92.0598C75.3449 92.0598 75.185 92.0198 75.0249 91.9298C74.5449 91.6598 74.3749 91.0498 74.6449 90.5698C74.8049 90.2898 74.9549 89.9998 75.1049 89.7198C75.3649 89.2298 75.965 89.0398 76.4549 89.2998C76.9449 89.5598 77.1349 90.1598 76.8749 90.6498C76.7149 90.9598 76.5549 91.2598 76.3849 91.5598C76.2049 91.8898 75.8649 92.0698 75.5149 92.0698V92.0598ZM12.3749 91.3398C12.0249 91.3398 11.6849 91.1498 11.4949 90.8198C11.3249 90.5198 11.1649 90.2198 11.0149 89.9098C10.7649 89.4198 10.9549 88.8198 11.4449 88.5598C11.9349 88.3098 12.5449 88.4998 12.7949 88.9998C12.9449 89.2898 13.0949 89.5698 13.2449 89.8498C13.5149 90.3298 13.3349 90.9398 12.8549 91.2098C12.7049 91.2898 12.5349 91.3298 12.3749 91.3298V91.3398ZM77.9749 86.5898C77.8649 86.5898 77.7549 86.5698 77.6449 86.5298C77.1249 86.3498 76.8549 85.7698 77.0349 85.2498C77.1449 84.9398 77.2449 84.6398 77.3549 84.3298C77.5249 83.7998 78.0949 83.5198 78.6149 83.6898C79.1349 83.8598 79.4249 84.4298 79.2549 84.9498C79.1449 85.2798 79.035 85.5998 78.9249 85.9198C78.7749 86.3298 78.395 86.5898 77.9849 86.5898H77.9749ZM9.95494 85.8598C9.54494 85.8598 9.15494 85.5998 9.00494 85.1898C8.89494 84.8698 8.78494 84.5498 8.68494 84.2198C8.51494 83.6898 8.80494 83.1298 9.33494 82.9598C9.86494 82.7898 10.4249 83.0798 10.5949 83.6098C10.6949 83.9198 10.7949 84.2298 10.9049 84.5398C11.0849 85.0598 10.8049 85.6298 10.2849 85.8098C10.1749 85.8498 10.0649 85.8598 9.95494 85.8598ZM79.5949 80.8198C79.5249 80.8198 79.4549 80.8198 79.3849 80.7998C78.8449 80.6798 78.5049 80.1498 78.6149 79.6098C78.6849 79.2898 78.7449 78.9698 78.8149 78.6498C78.9249 78.1098 79.4449 77.7598 79.9949 77.8598C80.535 77.9698 80.8849 78.4898 80.7849 79.0398C80.7149 79.3698 80.6549 79.7098 80.5749 80.0398C80.4749 80.5098 80.0549 80.8298 79.5949 80.8298V80.8198ZM8.38494 80.0798C7.92494 80.0798 7.50494 79.7598 7.40494 79.2798L7.36494 79.0798C7.25494 78.5398 7.60494 78.0098 8.14494 77.8998C8.68494 77.7898 9.21494 78.1398 9.32494 78.6798L9.36494 78.8598C9.47494 79.3998 9.13494 79.9298 8.58494 80.0398C8.51494 80.0498 8.44494 80.0598 8.38494 80.0598V80.0798Z" fill="#B4B0AA"/>
<path id="Vector_5" d="M11.5049 47.1001C11.5049 31.0901 24.8349 18.1201 41.2749 18.1201H46.8649C63.3049 18.1201 76.6349 31.1001 76.6349 47.1001" stroke="black" stroke-width="2" stroke-linecap="round" stroke-linejoin="round"/>
<path id="Vector_6" d="M8.12497 52.5501C3.23497 36.1701 6.93497 3.9301 36.025 1.5901C38.795 1.3701 49.305 1.3701 52.065 1.5801C82.195 3.8501 83.515 37.2401 79.765 52.5501" stroke="black" stroke-width="2" stroke-linecap="round" stroke-linejoin="round"/>
<path id="Vector_7" d="M13.0346 74.6101C6.67465 74.6101 1.51465 69.0901 1.51465 62.2701V59.8401C1.51465 56.2301 4.24465 53.3101 7.61465 53.3101H12.1946" stroke="black" stroke-width="2" stroke-linecap="round" stroke-linejoin="round"/>
<path id="Vector_8" d="M74.9648 74.6101C81.3248 74.6101 86.4848 69.0901 86.4848 62.2701V59.8401C86.4848 56.2301 83.7548 53.3101 80.3848 53.3101H76.3548" stroke="black" stroke-width="2" stroke-linecap="round" stroke-linejoin="round"/>
</g>
<defs>
<clipPath id="clip0_445_14647">
<rect width="86.97" height="111.16" fill="white" transform="translate(0.514648 0.419922)"/>
</clipPath>
</defs>
</svg>
