<svg width="78" height="104" viewBox="0 0 78 104" fill="none" xmlns="http://www.w3.org/2000/svg">
<g id="_?&#235;&#141;&#137;&#236;&#148;&#160;??1" clip-path="url(#clip0_445_14528)">
<path id="Vector" d="M37.4451 59.4702C41.6651 47.7302 57.4751 45.4702 57.4751 45.4702C43.5451 56.0402 43.0051 64.6402 43.0051 64.6402L46.1951 66.7902L34.7651 70.2102L34.7451 55.9802L37.4551 59.4602L37.4451 59.4702Z" fill="#B4B0AA"/>
<path id="Vector_2" d="M9.84488 9.56006C3.04488 20.8901 6.61488 30.1701 8.65488 33.3701C14.4849 42.5101 3.13488 54.4701 2.12488 56.7801C0.504883 60.5001 8.10488 60.2801 10.4349 62.9801C12.7649 65.6801 11.9449 67.6701 11.9449 68.5401C11.9449 69.4101 15.1849 70.2701 15.1849 70.2701L14.5349 73.7201L18.2049 75.8801C18.2049 75.8801 19.7149 80.2001 19.9349 82.3501C20.1549 84.5001 22.9849 88.0401 29.3149 86.2301C36.4949 84.1801 44.9649 80.1901 52.5149 73.2801" stroke="black" stroke-width="2" stroke-linecap="round" stroke-linejoin="round"/>
<path id="Vector_3" d="M16.085 42.4899C16.085 42.4899 22.125 43.8899 27.955 39.1499" stroke="black" stroke-width="2" stroke-linecap="round" stroke-linejoin="round"/>
<path id="Vector_4" d="M17.7656 36.6499C17.7656 36.6499 21.0056 38.8899 19.4656 41.6299" stroke="black" stroke-width="2" stroke-linecap="round" stroke-linejoin="round"/>
<path id="Vector_5" d="M45.1152 79C45.1152 79 51.6452 87.3 48.8352 102.19" stroke="black" stroke-width="2" stroke-linecap="round" stroke-linejoin="round"/>
<path id="Vector_6" d="M63.415 36.2301C63.415 36.2301 66.785 29.0901 71.505 30.8901C76.225 32.6901 76.735 42.1301 75.555 49.2101C74.375 56.2901 69.825 54.5701 69.315 54.5701" stroke="black" stroke-width="2" stroke-linecap="round" stroke-linejoin="round"/>
<path id="Vector_7" d="M66.4952 45.48C66.4952 45.48 65.5552 37.3 69.5052 36.98" stroke="black" stroke-width="2" stroke-linecap="round" stroke-linejoin="round"/>
<path id="Vector_8" d="M13.6357 1.81006C13.6357 1.81006 24.4157 35.3801 65.0157 33.7001" stroke="black" stroke-width="2" stroke-linecap="round" stroke-linejoin="round"/>
</g>
<defs>
<clipPath id="clip0_445_14528">
<rect width="76.19" height="102.38" fill="white" transform="translate(0.905273 0.810059)"/>
</clipPath>
</defs>
</svg>
