<svg width="90" height="104" viewBox="0 0 90 104" fill="none" xmlns="http://www.w3.org/2000/svg">
<g id="_?&#235;&#141;&#137;&#236;&#148;&#160;??1" clip-path="url(#clip0_445_14656)">
<path id="Vector" d="M44.1248 99.0247C44.1248 99.0247 44.0648 99.0247 44.0348 99.0247C43.6748 98.9947 43.3148 98.9447 42.9548 98.8847C42.4148 98.7847 42.0548 98.2647 42.1448 97.7247C42.2448 97.1847 42.7648 96.8247 43.3048 96.9147C43.6048 96.9647 43.9048 97.0047 44.2048 97.0347C44.7548 97.0847 45.1648 97.5647 45.1148 98.1147C45.0648 98.6347 44.6348 99.0247 44.1148 99.0247H44.1248ZM49.0448 98.3847C48.6348 98.3847 48.2448 98.1347 48.1048 97.7247C47.9148 97.2047 48.1848 96.6347 48.7048 96.4447C48.9948 96.3447 49.2748 96.2247 49.5548 96.1047C50.0548 95.8747 50.6548 96.1047 50.8748 96.6047C51.0948 97.1047 50.8748 97.7047 50.3748 97.9247C50.0448 98.0747 49.7048 98.2147 49.3748 98.3347C49.2648 98.3747 49.1448 98.3947 49.0348 98.3947L49.0448 98.3847ZM38.5248 97.0447C38.3348 97.0447 38.1448 96.9947 37.9848 96.8847L37.1448 96.3247C36.6848 96.0147 36.5648 95.3947 36.8648 94.9347C37.1748 94.4747 37.7848 94.3447 38.2548 94.6547L39.0748 95.2047C39.5348 95.5047 39.6648 96.1247 39.3648 96.5847C39.1748 96.8747 38.8548 97.0447 38.5248 97.0447ZM54.2748 95.4647C53.9448 95.4647 53.6148 95.2947 53.4248 94.9947C53.1348 94.5247 53.2748 93.9047 53.7448 93.6147L54.5948 93.0847C55.0648 92.7947 55.6848 92.9347 55.9748 93.4047C56.2648 93.8747 56.1248 94.4947 55.6548 94.7847L54.8048 95.3147C54.6448 95.4147 54.4548 95.4647 54.2748 95.4647ZM33.5248 93.7247C33.3348 93.7247 33.1448 93.6747 32.9748 93.5547L32.1448 93.0047C31.6848 92.6947 31.5648 92.0747 31.8648 91.6147C32.1648 91.1547 32.7948 91.0247 33.2548 91.3347L34.0848 91.8847C34.5448 92.1947 34.6648 92.8147 34.3648 93.2747C34.1748 93.5647 33.8548 93.7247 33.5348 93.7247H33.5248ZM59.3748 92.3047C59.0448 92.3047 58.7148 92.1347 58.5248 91.8347C58.2348 91.3647 58.3748 90.7447 58.8448 90.4547L59.6948 89.9247C60.1648 89.6347 60.7748 89.7747 61.0748 90.2447C61.3648 90.7147 61.2248 91.3347 60.7548 91.6247L59.9048 92.1547C59.7448 92.2547 59.5548 92.3047 59.3748 92.3047ZM28.5348 90.4047C28.3448 90.4047 28.1548 90.3547 27.9848 90.2347L27.1448 89.6747C26.6848 89.3647 26.5648 88.7447 26.8748 88.2847C27.1848 87.8247 27.8048 87.7047 28.2648 88.0147L29.0948 88.5647C29.5548 88.8747 29.6748 89.4947 29.3748 89.9547C29.1848 90.2447 28.8648 90.4047 28.5448 90.4047H28.5348ZM64.3648 88.9747C64.0748 88.9747 63.7848 88.8447 63.5848 88.6047C63.2348 88.1747 63.3048 87.5447 63.7348 87.1947C63.9848 86.9947 64.2248 86.7847 64.4648 86.5747C64.8748 86.2147 65.5048 86.2447 65.8748 86.6647C66.2448 87.0847 66.2048 87.7147 65.7848 88.0747C65.5248 88.3047 65.2548 88.5247 64.9848 88.7447C64.8048 88.8947 64.5748 88.9647 64.3548 88.9647L64.3648 88.9747ZM23.8548 86.6647C23.5948 86.6647 23.3448 86.5647 23.1448 86.3747C22.8948 86.1247 22.6548 85.8747 22.4248 85.6247C22.0548 85.2147 22.0748 84.5847 22.4848 84.2147C22.8948 83.8347 23.5248 83.8647 23.8948 84.2747C24.1148 84.5047 24.3348 84.7347 24.5548 84.9647C24.9448 85.3547 24.9448 85.9847 24.5548 86.3747C24.3548 86.5747 24.1048 86.6647 23.8448 86.6647H23.8548ZM68.5348 84.6747C68.3248 84.6747 68.1048 84.6047 67.9248 84.4647C67.4848 84.1247 67.4048 83.5047 67.7348 83.0647C67.9348 82.8147 68.1248 82.5547 68.3048 82.2847C68.6248 81.8347 69.2448 81.7247 69.6948 82.0447C70.1448 82.3647 70.2548 82.9847 69.9348 83.4347C69.7348 83.7147 69.5248 83.9947 69.3148 84.2647C69.1148 84.5247 68.8248 84.6547 68.5248 84.6547L68.5348 84.6747ZM20.1448 81.9747C19.8148 81.9747 19.4848 81.8047 19.2948 81.5047C19.1148 81.2147 18.9348 80.9147 18.7648 80.6247C18.4848 80.1447 18.6548 79.5347 19.1248 79.2547C19.6048 78.9747 20.2148 79.1447 20.4948 79.6147C20.6548 79.8947 20.8248 80.1647 20.9948 80.4447C21.2848 80.9147 21.1448 81.5347 20.6748 81.8247C20.5048 81.9247 20.3248 81.9747 20.1448 81.9747ZM71.6648 79.5647C71.5148 79.5647 71.3748 79.5347 71.2348 79.4647C70.7348 79.2247 70.5248 78.6247 70.7648 78.1347C70.9048 77.8447 71.0448 77.5547 71.1748 77.2547C71.3948 76.7547 71.9848 76.5247 72.4948 76.7547C72.9948 76.9847 73.2248 77.5747 72.9948 78.0747C72.8548 78.3847 72.7048 78.6947 72.5648 79.0047C72.3948 79.3647 72.0348 79.5747 71.6648 79.5747V79.5647ZM17.4748 76.6147C17.0748 76.6147 16.6948 76.3747 16.5448 75.9847C16.4248 75.6647 16.2948 75.3447 16.1848 75.0247C15.9948 74.5047 16.2648 73.9347 16.7848 73.7447C17.3048 73.5647 17.8748 73.8247 18.0648 74.3447C18.1748 74.6547 18.2948 74.9547 18.4048 75.2547C18.6048 75.7647 18.3548 76.3447 17.8348 76.5547C17.7148 76.6047 17.5948 76.6247 17.4648 76.6247L17.4748 76.6147ZM73.8248 73.9747C73.7248 73.9747 73.6348 73.9647 73.5348 73.9347C73.0048 73.7747 72.7048 73.2147 72.8648 72.6847C72.9548 72.3747 73.0448 72.0647 73.1348 71.7447C73.2848 71.2147 73.8348 70.9047 74.3648 71.0547C74.8948 71.2047 75.2048 71.7547 75.0548 72.2847C74.9648 72.6147 74.8648 72.9447 74.7748 73.2647C74.6448 73.6947 74.2448 73.9747 73.8148 73.9747H73.8248ZM15.6948 70.8947C15.2448 70.8947 14.8348 70.5847 14.7248 70.1247C14.6448 69.7947 14.5648 69.4647 14.4948 69.1347C14.3748 68.5947 14.7148 68.0647 15.2548 67.9447C15.7948 67.8247 16.3248 68.1647 16.4448 68.7047C16.5148 69.0247 16.5848 69.3447 16.6648 69.6647C16.7948 70.2047 16.4648 70.7447 15.9248 70.8747C15.8448 70.8947 15.7648 70.9047 15.6948 70.9047V70.8947ZM75.2048 68.1447C75.1448 68.1447 75.0848 68.1447 75.0248 68.1247C74.4848 68.0247 74.1248 67.5047 74.2248 66.9647C74.2848 66.6447 74.3448 66.3147 74.3948 65.9947C74.4848 65.4547 75.0048 65.0747 75.5448 65.1747C76.0848 65.2647 76.4548 65.7747 76.3648 66.3247C76.3048 66.6647 76.2548 66.9947 76.1948 67.3247C76.1048 67.8047 75.6848 68.1447 75.2148 68.1447H75.2048Z" fill="#B4B0AA"/>
<path id="Vector_2" d="M6.0957 59.4351C6.0957 59.4351 11.7257 59.5851 12.8657 61.2051" stroke="black" stroke-width="2" stroke-linecap="round" stroke-linejoin="round"/>
<path id="Vector_3" d="M84.2056 59.4351C84.2056 59.4351 78.5755 59.5851 77.4355 61.2051" stroke="black" stroke-width="2" stroke-linecap="round" stroke-linejoin="round"/>
<path id="Vector_4" d="M48.0455 10.2649C63.9655 10.2649 76.9155 25.9349 76.9455 45.2049L75.9455 61.0649C75.9455 61.0649 75.9455 61.1449 75.9455 61.1949C75.9455 81.6149 72.0255 89.0849 66.1355 94.0149C62.6255 96.9549 58.1455 98.9349 53.1855 99.7549L51.6755 100.005C51.4455 100.045 51.2255 100.125 51.0255 100.235C49.1655 101.275 47.1955 101.805 45.1555 101.805C43.1155 101.805 41.1455 101.275 39.2855 100.235C39.0855 100.125 38.8655 100.045 38.6355 100.005L36.8455 99.7149C32.5555 99.0149 28.5655 97.3949 25.3055 95.0349C18.3755 90.0149 14.3555 82.8649 14.3555 61.2049C14.3555 61.1649 14.3555 61.1249 14.3555 61.0749L13.3555 45.2149C13.3855 25.9449 26.3355 10.2749 42.2555 10.2749H48.0555M48.0555 8.2749H42.2555C25.1955 8.2749 11.3555 24.8449 11.3555 45.2849L12.3555 61.2149C12.3555 83.4849 16.4955 91.1349 24.1255 96.6649C27.7755 99.3149 32.0555 100.965 36.5155 101.705L38.3055 101.995C40.4755 103.215 42.8155 103.825 45.1555 103.825C47.4955 103.825 49.8355 103.215 52.0055 101.995L53.5155 101.745C58.6055 100.905 63.4755 98.8749 67.4255 95.5649C74.2655 89.8349 77.9555 81.4549 77.9555 61.2149L78.9555 45.2849C78.9555 24.8449 65.1255 8.2749 48.0555 8.2749Z" fill="black"/>
<path id="Vector_5" d="M12.8652 51.6248C12.8652 32.9948 26.0752 17.8848 42.3752 17.8848H47.9152C64.2152 17.8848 77.4252 32.9948 77.4252 51.6248" stroke="black" stroke-width="2" stroke-linecap="round" stroke-linejoin="round"/>
<path id="Vector_6" d="M9.20505 52.325C4.31505 35.945 8.01505 3.705 37.105 1.365C39.875 1.145 50.3851 1.145 53.1451 1.355C83.275 3.625 84.595 37.015 80.845 52.325" stroke="black" stroke-width="2" stroke-linecap="round" stroke-linejoin="round"/>
<path id="Vector_7" d="M13.4253 74.385C7.06527 74.385 1.90527 68.865 1.90527 62.045V59.615C1.90527 56.005 4.63527 53.085 8.00527 53.085H12.5853" stroke="black" stroke-width="2" stroke-linecap="round" stroke-linejoin="round"/>
<path id="Vector_8" d="M76.5752 74.385C82.9352 74.385 88.0952 68.865 88.0952 62.045V59.615C88.0952 56.005 85.3652 53.085 81.9952 53.085H77.4152" stroke="black" stroke-width="2" stroke-linecap="round" stroke-linejoin="round"/>
</g>
<defs>
<clipPath id="clip0_445_14656">
<rect width="88.19" height="103.61" fill="white" transform="translate(0.905273 0.194824)"/>
</clipPath>
</defs>
</svg>
