<svg width="90" height="104" viewBox="0 0 90 104" fill="none" xmlns="http://www.w3.org/2000/svg">
<g id="_?&#235;&#141;&#137;&#236;&#148;&#160;??1" clip-path="url(#clip0_445_14605)">
<path id="Vector" d="M6.0957 59.4351C6.0957 59.4351 11.7257 59.5851 12.8657 61.2051" stroke="black" stroke-width="2" stroke-linecap="round" stroke-linejoin="round"/>
<path id="Vector_2" d="M84.2056 59.4351C84.2056 59.4351 78.5755 59.5851 77.4355 61.2051" stroke="black" stroke-width="2" stroke-linecap="round" stroke-linejoin="round"/>
<path id="Vector_3" d="M48.0457 10.2646C63.9657 10.2646 76.9157 25.9346 76.9457 45.2046L75.9457 61.0646C75.9457 61.0646 75.9457 61.1446 75.9457 61.1946C75.9457 76.6446 69.2857 89.9746 58.5757 95.9846L51.0157 100.225C49.1557 101.265 47.1857 101.795 45.1457 101.795C43.1057 101.795 41.1357 101.265 39.2757 100.225L31.7157 95.9846C20.9957 89.9746 14.3457 76.6347 14.3457 61.1946C14.3457 61.1546 14.3457 61.1146 14.3457 61.0646L13.3457 45.2046C13.3757 25.9346 26.3257 10.2646 42.2457 10.2646H48.0457ZM48.0457 8.26465H42.2457C25.1857 8.26465 11.3457 24.8347 11.3457 45.2747L12.3457 61.2046C12.3457 76.8546 18.9057 91.1047 30.7457 97.7447L38.3057 101.985C40.4757 103.205 42.8157 103.815 45.1557 103.815C47.4957 103.815 49.8357 103.205 52.0057 101.985L59.5657 97.7447C71.4057 91.1047 77.9657 76.8646 77.9657 61.2046L78.9657 45.2747C78.9657 24.8347 65.1357 8.26465 48.0657 8.26465H48.0457Z" fill="black"/>
<path id="Vector_4" d="M12.8652 51.6248C12.8652 32.9948 26.0752 17.8848 42.3752 17.8848H47.9152C64.2152 17.8848 77.4252 32.9948 77.4252 51.6248" stroke="black" stroke-width="2" stroke-linecap="round" stroke-linejoin="round"/>
<path id="Vector_5" d="M9.20505 52.325C4.31505 35.945 8.01505 3.705 37.105 1.365C39.875 1.145 50.3851 1.145 53.1451 1.355C83.275 3.625 84.595 37.015 80.845 52.325" stroke="black" stroke-width="2" stroke-linecap="round" stroke-linejoin="round"/>
<path id="Vector_6" d="M13.4253 74.385C7.06527 74.385 1.90527 68.865 1.90527 62.045V59.615C1.90527 56.005 4.63527 53.085 8.00527 53.085H12.5853" stroke="black" stroke-width="2" stroke-linecap="round" stroke-linejoin="round"/>
<path id="Vector_7" d="M76.5752 74.385C82.9352 74.385 88.0952 68.865 88.0952 62.045V59.615C88.0952 56.005 85.3652 53.085 81.9952 53.085H77.4152" stroke="black" stroke-width="2" stroke-linecap="round" stroke-linejoin="round"/>
<g id="Group">
<path id="Vector_8" d="M81.9948 89.345C78.3048 96.825 67.6348 97.115 67.6348 97.115C77.6848 91.155 78.6948 85.485 78.6948 85.485L76.7448 83.815L84.5948 82.415L83.5348 91.865L82.0048 89.345H81.9948Z" fill="#B4B0AA"/>
<path id="Vector_9" d="M8.30508 89.345C11.9951 96.825 22.6651 97.115 22.6651 97.115C12.6151 91.155 11.6051 85.485 11.6051 85.485L13.5551 83.815L5.70508 82.415L6.76508 91.865L8.29508 89.345H8.30508Z" fill="#B4B0AA"/>
</g>
</g>
<defs>
<clipPath id="clip0_445_14605">
<rect width="88.19" height="103.61" fill="white" transform="translate(0.905273 0.194824)"/>
</clipPath>
</defs>
</svg>
