<svg width="77" height="104" viewBox="0 0 77 104" fill="none" xmlns="http://www.w3.org/2000/svg">
<g id="_?&#235;&#141;&#137;&#236;&#148;&#160;??1" clip-path="url(#clip0_445_14211)">
<path id="Vector" d="M53.4255 61.2704C47.8955 72.4604 31.9355 72.9004 31.9355 72.9004C46.9755 63.9804 48.4855 55.5004 48.4855 55.5004L45.5655 53.0004L57.3155 50.9004L55.7255 65.0404L53.4355 61.2704H53.4255Z" fill="#B4B0AA"/>
<path id="Vector_2" d="M9.34488 9.63037C2.54488 20.9604 6.11488 30.2404 8.15488 33.4404C13.9849 42.5804 2.63488 54.5404 1.62488 56.8504C0.00488259 60.5704 7.60488 60.3504 9.93488 63.0504C12.2649 65.7504 11.4449 67.7404 11.4449 68.6104C11.4449 69.4804 14.6849 70.3404 14.6849 70.3404L14.0349 73.7904L17.7049 75.9504C17.7049 75.9504 19.2149 80.2704 19.4349 82.4204C19.6549 84.5704 22.4849 88.1104 28.8149 86.3004C35.9949 84.2504 44.4649 80.2604 52.0149 73.3504" stroke="black" stroke-width="2" stroke-linecap="round" stroke-linejoin="round"/>
<path id="Vector_3" d="M15.585 42.5602C15.585 42.5602 21.625 43.9602 27.455 39.2202" stroke="black" stroke-width="2" stroke-linecap="round" stroke-linejoin="round"/>
<path id="Vector_4" d="M17.2656 36.7202C17.2656 36.7202 20.5056 38.9602 18.9656 41.7002" stroke="black" stroke-width="2" stroke-linecap="round" stroke-linejoin="round"/>
<path id="Vector_5" d="M44.6152 79.0703C44.6152 79.0703 51.1452 87.3703 48.3352 102.26" stroke="black" stroke-width="2" stroke-linecap="round" stroke-linejoin="round"/>
<path id="Vector_6" d="M62.915 36.3004C62.915 36.3004 66.285 29.1604 71.005 30.9604C75.725 32.7604 76.235 42.2004 75.055 49.2804C73.875 56.3604 69.325 54.6404 68.815 54.6404" stroke="black" stroke-width="2" stroke-linecap="round" stroke-linejoin="round"/>
<path id="Vector_7" d="M65.9952 45.5503C65.9952 45.5503 65.0552 37.3703 69.0052 37.0503" stroke="black" stroke-width="2" stroke-linecap="round" stroke-linejoin="round"/>
<path id="Vector_8" d="M13.1357 1.88037C13.1357 1.88037 23.9157 35.4504 64.5157 33.7704" stroke="black" stroke-width="2" stroke-linecap="round" stroke-linejoin="round"/>
</g>
<defs>
<clipPath id="clip0_445_14211">
<rect width="76.19" height="102.38" fill="white" transform="translate(0.405273 0.880371)"/>
</clipPath>
</defs>
</svg>
