<svg width="96" height="94" viewBox="0 0 96 94" fill="none" xmlns="http://www.w3.org/2000/svg">
<g id="_?&#235;&#141;&#137;&#236;&#148;&#160;??1" clip-path="url(#clip0_445_14156)">
<path id="Vector" d="M22.1346 65.9502C20.3646 69.5902 14.9046 74.3902 2.68457 71.1602" stroke="black" stroke-width="2" stroke-linecap="round" stroke-linejoin="round"/>
<path id="Vector_2" d="M1.64453 64.7703C1.64453 64.7703 3.21453 64.8003 4.94453 64.1903C6.90453 63.5103 7.63453 63.3403 9.54453 64.1903C11.4545 65.0403 11.9145 62.8103 15.2945 64.1903C16.7145 64.7703 19.2845 65.0503 21.1245 64.6303" stroke="black" stroke-width="2" stroke-linecap="round" stroke-linejoin="round"/>
<path id="Vector_3" d="M44.905 78.52C43.715 79.32 41.145 80.8 39.885 81.51L26.635 88.95C19.025 93.22 10.235 93.22 2.625 88.95" stroke="black" stroke-width="2" stroke-linecap="round" stroke-linejoin="round"/>
<path id="Vector_4" d="M73.8844 1.33008L70.2344 24.3701" stroke="black" stroke-width="2" stroke-linecap="round" stroke-linejoin="round"/>
<path id="Vector_5" d="M49.8848 38.1502C47.2248 50.3002 31.8848 54.5602 31.8848 54.5602C44.2948 42.3302 43.7148 33.7502 43.7148 33.7502L40.2848 32.0302L51.1448 27.1802L52.9948 41.2402L49.8748 38.1502H49.8848Z" fill="#B4B0AA"/>
<path id="Vector_6" d="M60.0447 55.7599C52.0847 65.3199 36.5146 62.0399 36.5146 62.0399C53.1646 56.8999 56.6046 49.0199 56.6046 49.0199L54.3546 45.9199L66.2247 46.6199L61.3946 59.9599L60.0447 55.7799V55.7599Z" fill="#B4B0AA"/>
<g id="Group">
<path id="Vector_7" d="M47.8147 78.5201C65.3332 78.5201 79.5347 64.3186 79.5347 46.8001C79.5347 29.2816 65.3332 15.0801 47.8147 15.0801C30.2963 15.0801 16.0947 29.2816 16.0947 46.8001C16.0947 64.3186 30.2963 78.5201 47.8147 78.5201Z" stroke="black" stroke-width="2" stroke-linecap="round" stroke-linejoin="round"/>
<path id="Vector_8" d="M47.8143 71.4601C61.4336 71.4601 72.4743 60.4195 72.4743 46.8001C72.4743 33.1808 61.4336 22.1401 47.8143 22.1401C34.195 22.1401 23.1543 33.1808 23.1543 46.8001C23.1543 60.4195 34.195 71.4601 47.8143 71.4601Z" stroke="black" stroke-width="2" stroke-linecap="round" stroke-linejoin="round"/>
</g>
<path id="Vector_9" d="M72.4916 66.9738L67.9873 71.478L71.6784 75.1691L76.1827 70.6649L72.4916 66.9738Z" stroke="black" stroke-width="2" stroke-linecap="round" stroke-linejoin="round"/>
<path id="Vector_10" d="M86.0745 92.8103L70.0645 76.7903L77.8045 69.0503L94.3545 85.5903" stroke="black" stroke-width="2" stroke-linecap="round" stroke-linejoin="round"/>
</g>
<defs>
<clipPath id="clip0_445_14156">
<rect width="94.71" height="93.48" fill="white" transform="translate(0.644531 0.330078)"/>
</clipPath>
</defs>
</svg>
