<svg width="89" height="104" viewBox="0 0 89 104" fill="none" xmlns="http://www.w3.org/2000/svg">
<g id="_?&#235;&#141;&#137;&#236;&#148;&#160;??1" clip-path="url(#clip0_445_14342)">
<path id="Vector" d="M5.5957 59.5054C5.5957 59.5054 11.2257 59.6554 12.3657 61.2754" stroke="black" stroke-width="2" stroke-linecap="round" stroke-linejoin="round"/>
<path id="Vector_2" d="M83.7056 59.5054C83.7056 59.5054 78.0755 59.6554 76.9355 61.2754" stroke="black" stroke-width="2" stroke-linecap="round" stroke-linejoin="round"/>
<path id="Vector_3" d="M47.5457 10.335C63.4657 10.335 76.4157 26.005 76.4457 45.275L75.4457 61.135C75.4457 61.135 75.4457 61.215 75.4457 61.265C75.4457 76.715 68.7857 90.045 58.0757 96.055L50.5157 100.295C48.6557 101.335 46.6857 101.865 44.6457 101.865C42.6057 101.865 40.6357 101.335 38.7757 100.295L31.2157 96.055C20.4957 90.045 13.8457 76.705 13.8457 61.265C13.8457 61.225 13.8457 61.185 13.8457 61.135L12.8457 45.275C12.8757 26.005 25.8257 10.335 41.7457 10.335H47.5457ZM47.5457 8.33496H41.7457C24.6857 8.33496 10.8457 24.905 10.8457 45.345L11.8457 61.275C11.8457 76.925 18.4057 91.175 30.2457 97.815L37.8057 102.055C39.9757 103.275 42.3157 103.885 44.6557 103.885C46.9957 103.885 49.3357 103.275 51.5057 102.055L59.0657 97.815C70.9057 91.175 77.4657 76.935 77.4657 61.275L78.4657 45.345C78.4657 24.905 64.6357 8.33496 47.5657 8.33496H47.5457Z" fill="black"/>
<path id="Vector_4" d="M12.3652 51.6951C12.3652 33.0651 25.5752 17.9551 41.8752 17.9551H47.4152C63.7152 17.9551 76.9252 33.0651 76.9252 51.6951" stroke="black" stroke-width="2" stroke-linecap="round" stroke-linejoin="round"/>
<path id="Vector_5" d="M8.70505 52.3953C3.81505 36.0153 7.51505 3.77531 36.605 1.43531C39.375 1.21531 49.8851 1.21531 52.6451 1.42531C82.775 3.69531 84.095 37.0853 80.345 52.3953" stroke="black" stroke-width="2" stroke-linecap="round" stroke-linejoin="round"/>
<path id="Vector_6" d="M12.9253 74.4553C6.56527 74.4553 1.40527 68.9353 1.40527 62.1153V59.6853C1.40527 56.0753 4.13527 53.1553 7.50527 53.1553H12.0853" stroke="black" stroke-width="2" stroke-linecap="round" stroke-linejoin="round"/>
<path id="Vector_7" d="M76.0752 74.4553C82.4352 74.4553 87.5952 68.9353 87.5952 62.1153V59.6853C87.5952 56.0753 84.8652 53.1553 81.4952 53.1553H76.9152" stroke="black" stroke-width="2" stroke-linecap="round" stroke-linejoin="round"/>
<g id="Group">
<path id="Vector_8" d="M18.5449 72.1152C18.5449 72.1152 32.3649 76.2152 32.3649 92.6552L18.5449 72.1152Z" fill="#B4B0AA"/>
<path id="Vector_9" d="M70.7448 72.1152C70.7448 72.1152 56.9248 76.2152 56.9248 92.6552L70.7448 72.1152Z" fill="#B4B0AA"/>
</g>
</g>
<defs>
<clipPath id="clip0_445_14342">
<rect width="88.19" height="103.61" fill="white" transform="translate(0.405273 0.265137)"/>
</clipPath>
</defs>
</svg>
