<svg width="106" height="106" viewBox="0 0 106 106" fill="none" xmlns="http://www.w3.org/2000/svg">
<g id="_?&#235;&#141;&#137;&#236;&#148;&#160;??1" clip-path="url(#clip0_445_14168)">
<path id="Vector" d="M5.46582 61.4951C5.46582 61.4951 11.0958 61.6451 12.2358 63.2651" stroke="black" stroke-width="2" stroke-linecap="round" stroke-linejoin="round"/>
<path id="Vector_2" d="M83.5757 61.4951C83.5757 61.4951 77.9457 61.6451 76.8057 63.2651" stroke="black" stroke-width="2" stroke-linecap="round" stroke-linejoin="round"/>
<path id="Vector_3" d="M47.4158 12.3252C63.3358 12.3252 76.2858 27.9952 76.3158 47.2652L75.3158 63.1252C75.3158 63.1252 75.3158 63.2052 75.3158 63.2552C75.3158 78.7052 68.6558 92.0352 57.9458 98.0452L50.3858 102.285C48.5258 103.325 46.5558 103.855 44.5158 103.855C42.4758 103.855 40.5058 103.325 38.6458 102.285L31.0858 98.0452C20.3658 92.0352 13.7158 78.6952 13.7158 63.2552C13.7158 63.2152 13.7158 63.1752 13.7158 63.1252L12.7158 47.2652C12.7458 27.9952 25.6958 12.3252 41.6158 12.3252H47.4158ZM47.4158 10.3252H41.6158C24.5558 10.3252 10.7158 26.8952 10.7158 47.3352L11.7158 63.2652C11.7158 78.9152 18.2758 93.1652 30.1158 99.8052L37.6758 104.045C39.8458 105.265 42.1858 105.875 44.5258 105.875C46.8658 105.875 49.2058 105.265 51.3758 104.045L58.9358 99.8052C70.7758 93.1652 77.3358 78.9252 77.3358 63.2652L78.3358 47.3352C78.3358 26.8952 64.5058 10.3252 47.4358 10.3252H47.4158Z" fill="black"/>
<path id="Vector_4" d="M12.2354 53.6853C12.2354 35.0553 25.4454 19.9453 41.7454 19.9453H47.2854C63.5854 19.9453 76.7953 35.0553 76.7953 53.6853" stroke="black" stroke-width="2" stroke-linecap="round" stroke-linejoin="round"/>
<path id="Vector_5" d="M8.57517 54.3753C3.68517 38.0053 7.38517 5.7653 36.4752 3.4153C39.2452 3.1953 49.7552 3.1953 52.5152 3.4053C82.6452 5.6753 83.9652 39.0653 80.2152 54.3753" stroke="black" stroke-width="2" stroke-linecap="round" stroke-linejoin="round"/>
<path id="Vector_6" d="M12.7954 76.4353C6.43539 76.4353 1.27539 70.9153 1.27539 64.0953V61.6653C1.27539 58.0553 4.00539 55.1353 7.37539 55.1353H11.9554" stroke="black" stroke-width="2" stroke-linecap="round" stroke-linejoin="round"/>
<path id="Vector_7" d="M75.9453 76.4353C82.3053 76.4353 87.4653 70.9153 87.4653 64.0953V61.6653C87.4653 58.0553 84.7353 55.1353 81.3653 55.1353H76.7853" stroke="black" stroke-width="2" stroke-linecap="round" stroke-linejoin="round"/>
<g id="Group">
<path id="Vector_8" d="M20.6454 76.655C22.1354 85.555 33.0954 89.205 33.0954 89.205C24.5354 79.885 25.2754 73.695 25.2754 73.695L27.8254 72.575L20.1254 68.665L18.2754 78.795L20.6554 76.665L20.6454 76.655Z" fill="#B4B0AA"/>
<path id="Vector_9" d="M68.3855 76.655C66.8955 85.555 55.9355 89.205 55.9355 89.205C64.4955 79.885 63.7555 73.695 63.7555 73.695L61.2055 72.575L68.9055 68.665L70.7556 78.795L68.3755 76.665L68.3855 76.655Z" fill="#B4B0AA"/>
</g>
<g id="Group_2">
<path id="Vector_10" d="M20.6454 50.7151C22.1354 59.6151 33.0954 63.2651 33.0954 63.2651C24.5354 53.9451 25.2754 47.7551 25.2754 47.7551L27.8254 46.6351L20.1254 42.7251L18.2754 52.8551L20.6554 50.7251L20.6454 50.7151Z" fill="#B4B0AA"/>
<path id="Vector_11" d="M68.3855 50.7151C66.8955 59.6151 55.9355 63.2651 55.9355 63.2651C64.4955 53.9451 63.7555 47.7551 63.7555 47.7551L61.2055 46.6351L68.9055 42.7251L70.7556 52.8551L68.3755 50.7251L68.3855 50.7151Z" fill="#B4B0AA"/>
</g>
<g id="Group_3">
<path id="Vector_12" d="M94.3752 5.83496C99.5252 5.83496 103.715 10.025 103.715 15.175C103.715 20.325 99.5252 24.515 94.3752 24.515C89.2252 24.515 85.0352 20.325 85.0352 15.175C85.0352 10.025 89.2252 5.83496 94.3752 5.83496ZM94.3752 3.83496C88.1052 3.83496 83.0352 8.91496 83.0352 15.175C83.0352 21.435 88.1152 26.515 94.3752 26.515C100.635 26.515 105.715 21.435 105.715 15.175C105.715 8.91496 100.635 3.83496 94.3752 3.83496Z" fill="black"/>
<path id="Vector_13" d="M100.345 11.5552L94.375 15.1752L97.955 18.2252" stroke="black" stroke-width="2" stroke-linecap="round" stroke-linejoin="round"/>
<path id="Vector_14" d="M91.4355 4.55516C91.4355 2.74516 92.9955 1.28516 94.9155 1.28516C96.8355 1.28516 98.3955 2.74516 98.3955 4.55516" stroke="black" stroke-width="2" stroke-linecap="round" stroke-linejoin="round"/>
</g>
</g>
<defs>
<clipPath id="clip0_445_14168">
<rect width="105.45" height="105.57" fill="white" transform="translate(0.275391 0.285156)"/>
</clipPath>
</defs>
</svg>
