<svg width="102" height="104" viewBox="0 0 102 104" fill="none" xmlns="http://www.w3.org/2000/svg">
<g id="_?&#235;&#141;&#137;&#236;&#148;&#160;??1" clip-path="url(#clip0_445_14186)">
<path id="Vector" d="M5.38574 59.5054C5.38574 59.5054 11.0157 59.6554 12.1557 61.2754" stroke="black" stroke-width="2" stroke-linecap="round" stroke-linejoin="round"/>
<path id="Vector_2" d="M83.4956 59.5054C83.4956 59.5054 77.8656 59.6554 76.7256 61.2754" stroke="black" stroke-width="2" stroke-linecap="round" stroke-linejoin="round"/>
<path id="Vector_3" d="M47.3357 10.335C63.2557 10.335 76.2057 26.005 76.2357 45.275L75.2357 61.135C75.2357 61.135 75.2357 61.215 75.2357 61.265C75.2357 76.715 68.5757 90.045 57.8657 96.055L50.3057 100.295C48.4457 101.335 46.4757 101.865 44.4357 101.865C42.3957 101.865 40.4257 101.335 38.5657 100.295L31.0057 96.055C20.2857 90.045 13.6357 76.705 13.6357 61.265C13.6357 61.225 13.6357 61.185 13.6357 61.135L12.6357 45.275C12.6657 26.005 25.6157 10.335 41.5357 10.335H47.3357ZM47.3357 8.33496H41.5357C24.4757 8.33496 10.6357 24.905 10.6357 45.345L11.6357 61.275C11.6357 76.925 18.1957 91.175 30.0357 97.815L37.5957 102.055C39.7657 103.275 42.1057 103.885 44.4457 103.885C46.7857 103.885 49.1257 103.275 51.2957 102.055L58.8557 97.815C70.6957 91.175 77.2557 76.935 77.2557 61.275L78.2557 45.345C78.2557 24.905 64.4257 8.33496 47.3557 8.33496H47.3357Z" fill="black"/>
<path id="Vector_4" d="M12.1553 51.6951C12.1553 33.0651 25.3653 17.9551 41.6653 17.9551H47.2053C63.5053 17.9551 76.7153 33.0651 76.7153 51.6951" stroke="black" stroke-width="2" stroke-linecap="round" stroke-linejoin="round"/>
<path id="Vector_5" d="M8.49509 52.3953C3.60509 36.0153 7.30509 3.77531 36.3951 1.43531C39.1651 1.21531 49.6751 1.21531 52.4351 1.42531C82.5651 3.69531 83.8851 37.0853 80.1351 52.3953" stroke="black" stroke-width="2" stroke-linecap="round" stroke-linejoin="round"/>
<path id="Vector_6" d="M12.7153 74.4553C6.35531 74.4553 1.19531 68.9353 1.19531 62.1153V59.6853C1.19531 56.0753 3.92531 53.1553 7.29531 53.1553H11.8753" stroke="black" stroke-width="2" stroke-linecap="round" stroke-linejoin="round"/>
<path id="Vector_7" d="M75.8652 74.4553C82.2252 74.4553 87.3852 68.9353 87.3852 62.1153V59.6853C87.3852 56.0753 84.6552 53.1553 81.2852 53.1553H76.7052" stroke="black" stroke-width="2" stroke-linecap="round" stroke-linejoin="round"/>
<g id="Group">
<g id="Group_2">
<path id="Vector_8" d="M17.4258 54.9053C17.4258 54.9053 20.7158 55.8153 22.0558 55.2953" stroke="#B4B0AA" stroke-width="2" stroke-miterlimit="10" stroke-linecap="round"/>
<path id="Vector_9" d="M18.5859 59.5051C18.5859 59.5051 21.2759 59.6351 22.0559 58.7251" stroke="#B4B0AA" stroke-width="2" stroke-miterlimit="10" stroke-linecap="round"/>
</g>
<g id="Group_3">
<path id="Vector_10" d="M71.4562 54.9053C71.4562 54.9053 68.1662 55.8153 66.8262 55.2953" stroke="#B4B0AA" stroke-width="2" stroke-miterlimit="10" stroke-linecap="round"/>
<path id="Vector_11" d="M70.2962 59.5051C70.2962 59.5051 67.6062 59.6351 66.8262 58.7251" stroke="#B4B0AA" stroke-width="2" stroke-miterlimit="10" stroke-linecap="round"/>
</g>
</g>
<path id="Vector_12" d="M95.5356 73.0451C96.4356 74.5251 97.4756 75.8451 98.6256 76.9351C97.4756 78.0351 96.4356 79.3451 95.5456 80.8251C94.6456 79.3451 93.6056 78.0251 92.4556 76.9351C93.6056 75.8351 94.6456 74.5251 95.5356 73.0451ZM95.5356 68.4551C94.1456 72.1751 91.9456 75.1651 89.2656 76.9351C91.9456 78.7051 94.1556 81.7051 95.5356 85.4251C96.9256 81.7051 99.1256 78.7151 101.806 76.9351C99.1256 75.1651 96.9256 72.1751 95.5356 68.4551Z" fill="#B4B0AA"/>
<path id="Vector_13" d="M82.9956 81.5353C83.8956 83.0153 84.9356 84.3353 86.0856 85.4253C84.9356 86.5253 83.8956 87.8353 83.0056 89.3153C82.1056 87.8353 81.0656 86.5153 79.9156 85.4253C81.0656 84.3253 82.1056 83.0153 82.9956 81.5353ZM82.9956 76.9453C81.6056 80.6653 79.4056 83.6553 76.7256 85.4253C79.4056 87.1953 81.6156 90.1953 82.9956 93.9153C84.3856 90.1953 86.5856 87.2053 89.2656 85.4253C86.5856 83.6553 84.3856 80.6653 82.9956 76.9453Z" fill="#B4B0AA"/>
</g>
<defs>
<clipPath id="clip0_445_14186">
<rect width="101.61" height="103.61" fill="white" transform="translate(0.195312 0.265137)"/>
</clipPath>
</defs>
</svg>
