<svg width="106" height="104" viewBox="0 0 106 104" fill="none" xmlns="http://www.w3.org/2000/svg">
<g id="_?&#235;&#141;&#137;&#236;&#148;&#160;??1" clip-path="url(#clip0_445_14137)">
<g id="Group">
<path id="Vector" d="M34.8251 56.5548C32.9051 58.0048 30.1251 58.8448 27.0051 58.4348C23.8851 58.0248 21.5251 57.0348 20.2051 54.6748" stroke="black" stroke-width="2" stroke-linecap="round" stroke-linejoin="round"/>
<path id="Vector_2" d="M55.2754 56.5548C57.1954 58.0048 59.9754 58.8448 63.0954 58.4348C66.2154 58.0248 68.5754 57.0348 69.8954 54.6748" stroke="black" stroke-width="2" stroke-linecap="round" stroke-linejoin="round"/>
<path id="Vector_3" d="M71.3154 46.5949C69.0154 45.4849 65.6954 44.8449 61.9754 45.1649C58.2554 45.4849 55.5154 46.0249 53.5654 47.4949" stroke="black" stroke-width="2" stroke-linecap="round" stroke-linejoin="round"/>
<path id="Vector_4" d="M18.7852 46.5949C21.0852 45.4849 24.4052 44.8449 28.1252 45.1649C31.8452 45.4849 34.7052 46.6749 36.6652 48.0349" stroke="black" stroke-width="2" stroke-linecap="round" stroke-linejoin="round"/>
<path id="Vector_5" d="M53.5648 47.4951C53.5648 47.4951 42.7148 53.2651 49.9148 70.8351L46.4248 74.0551" stroke="black" stroke-width="2" stroke-linecap="round" stroke-linejoin="round"/>
<path id="Vector_6" d="M36.2256 81.7749C36.2256 81.7749 39.2256 83.7349 42.0856 82.2849C43.4456 81.5949 44.0756 81.6549 45.4856 82.2849C46.8956 82.9149 47.2756 81.1649 49.7356 82.2849C52.1956 83.4049 54.3456 81.8349 56.0656 81.2549C56.0656 81.2549 53.6156 90.9149 40.4256 87.4249" stroke="black" stroke-width="2" stroke-linecap="round" stroke-linejoin="round"/>
</g>
<path id="Vector_7" d="M5.99512 59.5054C5.99512 59.5054 11.6251 59.6554 12.7651 61.2754" stroke="black" stroke-width="2" stroke-linecap="round" stroke-linejoin="round"/>
<path id="Vector_8" d="M84.105 59.5054C84.105 59.5054 78.475 59.6554 77.335 61.2754" stroke="black" stroke-width="2" stroke-linecap="round" stroke-linejoin="round"/>
<path id="Vector_9" d="M47.9451 10.335C63.8651 10.335 76.8151 26.005 76.8451 45.275L75.8451 61.135C75.8451 61.135 75.8451 61.215 75.8451 61.265C75.8451 76.715 69.1851 90.045 58.4751 96.055L50.9151 100.295C49.0551 101.335 47.0851 101.865 45.0451 101.865C43.0051 101.865 41.0351 101.335 39.1751 100.295L31.6151 96.055C20.8951 90.045 14.2451 76.705 14.2451 61.265C14.2451 61.225 14.2451 61.185 14.2451 61.135L13.2451 45.275C13.2751 26.005 26.2251 10.335 42.1451 10.335H47.9451ZM47.9451 8.33496H42.1451C25.0851 8.33496 11.2451 24.905 11.2451 45.345L12.2451 61.275C12.2451 76.925 18.8051 91.175 30.6451 97.815L38.2051 102.055C40.3751 103.275 42.7151 103.885 45.0551 103.885C47.3951 103.885 49.7351 103.275 51.9051 102.055L59.4651 97.815C71.3051 91.175 77.8651 76.935 77.8651 61.275L78.8651 45.345C78.8651 24.905 65.0351 8.33496 47.9651 8.33496H47.9451Z" fill="black"/>
<path id="Vector_10" d="M12.7646 51.6951C12.7646 33.0651 25.9747 17.9551 42.2747 17.9551H47.8146C64.1146 17.9551 77.3246 33.0651 77.3246 51.6951" stroke="black" stroke-width="2" stroke-linecap="round" stroke-linejoin="round"/>
<path id="Vector_11" d="M9.10446 52.3953C4.21446 36.0153 7.91446 3.77531 37.0045 1.43531C39.7745 1.21531 50.2845 1.21531 53.0445 1.42531C83.1745 3.69531 84.4945 37.0853 80.7445 52.3953" stroke="black" stroke-width="2" stroke-linecap="round" stroke-linejoin="round"/>
<path id="Vector_12" d="M13.3247 74.4553C6.96469 74.4553 1.80469 68.9353 1.80469 62.1153V59.6853C1.80469 56.0753 4.53469 53.1553 7.90469 53.1553H12.4847" stroke="black" stroke-width="2" stroke-linecap="round" stroke-linejoin="round"/>
<path id="Vector_13" d="M76.4746 74.4553C82.8346 74.4553 87.9946 68.9353 87.9946 62.1153V59.6853C87.9946 56.0753 85.2646 53.1553 81.8946 53.1553H77.3146" stroke="black" stroke-width="2" stroke-linecap="round" stroke-linejoin="round"/>
<path id="Vector_14" d="M100.715 66.2852H96.5049V79.4552H100.715V66.2852Z" fill="#B4B0AA"/>
<path id="Vector_15" d="M105.194 74.9751V70.7651H92.0243V74.9751H105.194Z" fill="#B4B0AA"/>
<path id="Vector_16" d="M87.5342 79.0552H83.3242V92.2252H87.5342V79.0552Z" fill="#B4B0AA"/>
<path id="Vector_17" d="M92.0146 87.7452V83.5352H78.8447V87.7452H92.0146Z" fill="#B4B0AA"/>
</g>
<defs>
<clipPath id="clip0_445_14137">
<rect width="104.39" height="103.61" fill="white" transform="translate(0.804688 0.265137)"/>
</clipPath>
</defs>
</svg>
