<svg width="89" height="104" viewBox="0 0 89 104" fill="none" xmlns="http://www.w3.org/2000/svg">
<g id="_?&#235;&#141;&#137;&#236;&#148;&#160;??1" clip-path="url(#clip0_445_14283)">
<path id="Vector" d="M33.7653 98.8149C33.5053 98.8149 33.2353 98.7149 33.0453 98.5049C32.8053 98.2549 32.5653 97.9949 32.3453 97.7349C31.9853 97.3149 32.0253 96.6849 32.4353 96.3249C32.8553 95.9649 33.4853 96.0049 33.8453 96.4149C34.0553 96.6549 34.2753 96.8849 34.4953 97.1249C34.8753 97.5249 34.8653 98.1549 34.4653 98.5349C34.2753 98.7249 34.0253 98.8149 33.7753 98.8149H33.7653ZM30.1953 94.0149C29.8453 94.0149 29.5153 93.8349 29.3253 93.5149C29.1553 93.2149 28.9853 92.9149 28.8253 92.6149C28.5653 92.1249 28.7453 91.5249 29.2353 91.2649C29.7253 91.0049 30.3253 91.1849 30.5853 91.6749C30.7353 91.9549 30.8953 92.2449 31.0553 92.5249C31.3353 93.0049 31.1653 93.6149 30.6853 93.8949C30.5253 93.9849 30.3553 94.0249 30.1853 94.0249L30.1953 94.0149ZM27.7153 88.5549C27.3053 88.5549 26.9153 88.2949 26.7753 87.8849C26.6653 87.5649 26.5553 87.2349 26.4553 86.9049C26.2853 86.3749 26.5853 85.8149 27.1053 85.6549C27.6353 85.4849 28.1953 85.7849 28.3553 86.3049C28.4553 86.6149 28.5553 86.9249 28.6653 87.2249C28.8453 87.7449 28.5653 88.3149 28.0453 88.4949C27.9353 88.5349 27.8253 88.5549 27.7153 88.5549ZM26.2153 82.7549C25.7353 82.7549 25.3153 82.4149 25.2353 81.9249C25.1753 81.5849 25.1253 81.2549 25.0653 80.9149C24.9853 80.3649 25.3553 79.8549 25.9053 79.7749C26.4453 79.6949 26.9653 80.0649 27.0453 80.6149C27.0953 80.9349 27.1453 81.2549 27.2053 81.5849C27.3053 82.1249 26.9353 82.6449 26.3953 82.7449C26.3353 82.7449 26.2753 82.7549 26.2253 82.7549H26.2153ZM26.8153 77.4649C26.3953 77.4649 26.0053 77.2049 25.8653 76.7849C25.6853 76.2649 25.9653 75.6949 26.4953 75.5149C26.6753 75.4549 26.8653 75.3949 27.0653 75.3249L27.4553 75.2049C27.9853 75.0349 28.5453 75.3249 28.7153 75.8449C28.8853 76.3749 28.5953 76.9349 28.0753 77.1049L27.6653 77.2349C27.4753 77.2949 27.2953 77.3549 27.1253 77.4049C27.0153 77.4449 26.9153 77.4549 26.8053 77.4549L26.8153 77.4649ZM31.9453 74.5549C31.7353 74.5549 31.5153 74.4849 31.3353 74.3449C30.8953 74.0049 30.8153 73.3749 31.1553 72.9449C31.3253 72.7249 31.4753 72.4949 31.6153 72.2449C31.8753 71.7549 32.4853 71.5749 32.9753 71.8449C33.4553 72.1049 33.6353 72.7149 33.3753 73.2049C33.1853 73.5449 32.9753 73.8749 32.7453 74.1749C32.5453 74.4249 32.2553 74.5649 31.9553 74.5649L31.9453 74.5549ZM33.2953 68.9049C32.8753 68.9049 32.4853 68.6349 32.3453 68.2149C32.2753 67.9949 32.1653 67.7649 32.0153 67.5349C31.7253 67.0649 31.8653 66.4549 32.3253 66.1549C32.7953 65.8649 33.4153 66.0049 33.7053 66.4649C33.9353 66.8349 34.1153 67.2049 34.2353 67.5749C34.4053 68.0949 34.1253 68.6649 33.6053 68.8349C33.5053 68.8649 33.3953 68.8849 33.2953 68.8849V68.9049ZM29.1553 64.7049C28.9653 64.7049 28.7853 64.6549 28.6153 64.5449C28.3453 64.3749 28.0753 64.2049 27.7953 64.0349C27.3253 63.7549 27.1653 63.1349 27.4453 62.6649C27.7253 62.1849 28.3353 62.0349 28.8153 62.3149C29.1153 62.4949 29.4153 62.6749 29.6953 62.8549C30.1553 63.1549 30.2953 63.7749 29.9953 64.2349C29.8053 64.5349 29.4853 64.6949 29.1553 64.6949V64.7049ZM23.8753 61.8449C23.7253 61.8449 23.5853 61.8149 23.4353 61.7449L22.5353 61.3149C22.0353 61.0749 21.8253 60.4849 22.0653 59.9849C22.3053 59.4849 22.9053 59.2749 23.3953 59.5149L24.3053 59.9549C24.8053 60.1949 25.0053 60.7949 24.7653 61.2949C24.5953 61.6549 24.2353 61.8549 23.8653 61.8549L23.8753 61.8449ZM18.4553 59.2349C18.3053 59.2349 18.1453 59.1949 17.9953 59.1249C17.6653 58.9549 17.3553 58.7849 17.0753 58.6249C16.5953 58.3549 16.4253 57.7349 16.7053 57.2549C16.9753 56.7749 17.5953 56.6049 18.0653 56.8849C18.3253 57.0349 18.6053 57.1849 18.9053 57.3449C19.3953 57.5949 19.5853 58.2049 19.3353 58.6949C19.1553 59.0349 18.8053 59.2349 18.4453 59.2349H18.4553ZM13.5753 55.7749C13.3153 55.7749 13.0653 55.6749 12.8653 55.4749C12.3453 54.9449 12.1253 54.6249 12.0853 54.5649C11.7853 54.1049 11.9153 53.4849 12.3753 53.1849C12.8353 52.8849 13.4553 53.0149 13.7553 53.4649C13.7653 53.4849 13.9253 53.6949 14.2853 54.0649C14.6753 54.4549 14.6753 55.0949 14.2853 55.4749C14.0953 55.6649 13.8353 55.7649 13.5853 55.7649L13.5753 55.7749Z" fill="#B4B0AA"/>
<path id="Vector_2" d="M55.5748 98.8154C55.3248 98.8154 55.0748 98.7253 54.8848 98.5353C54.4848 98.1553 54.4748 97.5154 54.8548 97.1254C55.0748 96.8954 55.2948 96.6554 55.5048 96.4154C55.8648 96.0054 56.5048 95.9553 56.9148 96.3253C57.3348 96.6853 57.3748 97.3254 57.0048 97.7354C56.7748 97.9953 56.5448 98.2553 56.3048 98.5053C56.1048 98.7153 55.8448 98.8154 55.5848 98.8154H55.5748ZM59.1448 94.0154C58.9748 94.0154 58.8048 93.9754 58.6448 93.8854C58.1648 93.6054 58.0048 92.9953 58.2748 92.5154C58.4348 92.2354 58.5948 91.9554 58.7448 91.6654C59.0048 91.1754 59.6148 90.9953 60.0948 91.2553C60.5748 91.5153 60.7648 92.1253 60.5048 92.6053C60.3448 92.9053 60.1748 93.2053 60.0048 93.5053C59.8148 93.8253 59.4848 94.0053 59.1348 94.0053L59.1448 94.0154ZM61.6248 88.5554C61.5148 88.5554 61.4048 88.5354 61.2948 88.4954C60.7748 88.3154 60.4948 87.7453 60.6748 87.2253C60.7848 86.9153 60.8848 86.6154 60.9848 86.3054C61.1548 85.7754 61.7148 85.4854 62.2348 85.6553C62.7648 85.8253 63.0548 86.3853 62.8848 86.9053C62.7848 87.2354 62.6748 87.5554 62.5648 87.8854C62.4248 88.2954 62.0348 88.5554 61.6248 88.5554ZM63.1248 82.7553C63.0648 82.7553 63.0148 82.7554 62.9548 82.7454C62.4148 82.6454 62.0448 82.1353 62.1448 81.5854C62.2048 81.2654 62.2548 80.9453 62.3048 80.6153C62.3848 80.0653 62.9048 79.6954 63.4448 79.7754C63.9948 79.8554 64.3648 80.3654 64.2848 80.9154C64.2348 81.2454 64.1748 81.5854 64.1148 81.9254C64.0348 82.4154 63.6048 82.7553 63.1348 82.7553H63.1248ZM62.5248 77.4653C62.4148 77.4653 62.3148 77.4454 62.2048 77.4154C62.0348 77.3554 61.8648 77.3054 61.6648 77.2454L61.2548 77.1153C60.7248 76.9453 60.4448 76.3853 60.6148 75.8553C60.7848 75.3353 61.3448 75.0453 61.8748 75.2153L62.2648 75.3354C62.4648 75.3953 62.6648 75.4554 62.8348 75.5254C63.3548 75.7054 63.6348 76.2653 63.4648 76.7953C63.3248 77.2153 62.9348 77.4753 62.5148 77.4753L62.5248 77.4653ZM57.3948 74.5554C57.0948 74.5554 56.8048 74.4254 56.6048 74.1654C56.3748 73.8654 56.1548 73.5354 55.9748 73.1954C55.7148 72.7054 55.8848 72.1054 56.3748 71.8354C56.8548 71.5653 57.4648 71.7454 57.7348 72.2354C57.8748 72.4854 58.0248 72.7153 58.1948 72.9353C58.5348 73.3753 58.4548 74.0054 58.0148 74.3354C57.8348 74.4753 57.6148 74.5453 57.4048 74.5453L57.3948 74.5554ZM56.0448 68.9053C55.9448 68.9053 55.8348 68.8853 55.7348 68.8553C55.2148 68.6853 54.9248 68.1154 55.1048 67.5954C55.2248 67.2254 55.4048 66.8454 55.6348 66.4854C55.9248 66.0154 56.5448 65.8754 57.0148 66.1754C57.4848 66.4654 57.6248 67.0854 57.3248 67.5554C57.1748 67.7854 57.0648 68.0154 56.9948 68.2354C56.8548 68.6554 56.4648 68.9254 56.0448 68.9254V68.9053ZM60.1848 64.7054C59.8548 64.7054 59.5348 64.5454 59.3448 64.2453C59.0448 63.7853 59.1848 63.1653 59.6448 62.8653C59.9348 62.6853 60.2248 62.4954 60.5248 62.3254C61.0048 62.0454 61.6148 62.2053 61.8948 62.6754C62.1748 63.1454 62.0148 63.7653 61.5448 64.0453C61.2648 64.2153 60.9848 64.3754 60.7248 64.5554C60.5548 64.6654 60.3748 64.7153 60.1848 64.7153V64.7054ZM65.4648 61.8454C65.0948 61.8454 64.7348 61.6354 64.5648 61.2854C64.3248 60.7854 64.5348 60.1854 65.0248 59.9454L65.9348 59.5054C66.4348 59.2654 67.0348 59.4753 67.2648 59.9753C67.5048 60.4753 67.2948 61.0754 66.7948 61.3054L65.8948 61.7354C65.7548 61.8054 65.6048 61.8354 65.4548 61.8354L65.4648 61.8454ZM70.8848 59.2354C70.5248 59.2354 70.1748 59.0354 69.9948 58.6954C69.7448 58.2054 69.9348 57.6054 70.4248 57.3454C70.7248 57.1854 71.0148 57.0353 71.2648 56.8853C71.7448 56.6153 72.3548 56.7754 72.6248 57.2554C72.8948 57.7354 72.7348 58.3454 72.2548 58.6254C71.9748 58.7854 71.6648 58.9554 71.3348 59.1254C71.1848 59.2054 71.0348 59.2354 70.8748 59.2354H70.8848ZM75.7648 55.7753C75.5148 55.7753 75.2548 55.6754 75.0648 55.4854C74.6748 55.0954 74.6648 54.4654 75.0648 54.0754C75.4448 53.6954 75.5948 53.4754 75.5948 53.4654C75.9048 53.0154 76.5248 52.8854 76.9748 53.1954C77.4348 53.4954 77.5548 54.1153 77.2548 54.5653C77.2148 54.6253 76.9948 54.9553 76.4748 55.4753C76.2748 55.6753 76.0248 55.7753 75.7648 55.7753Z" fill="#B4B0AA"/>
<path id="Vector_3" d="M5.5957 59.5054C5.5957 59.5054 11.2257 59.6554 12.3657 61.2754" stroke="black" stroke-width="2" stroke-linecap="round" stroke-linejoin="round"/>
<path id="Vector_4" d="M83.7056 59.5054C83.7056 59.5054 78.0755 59.6554 76.9355 61.2754" stroke="black" stroke-width="2" stroke-linecap="round" stroke-linejoin="round"/>
<path id="Vector_5" d="M47.5457 10.335C63.4657 10.335 76.4157 26.005 76.4457 45.275L75.4457 61.135C75.4457 61.135 75.4457 61.215 75.4457 61.265C75.4457 77.535 69.4757 90.215 59.0757 96.055L51.5157 100.295C49.7357 101.295 47.2357 101.865 44.6457 101.865C42.0557 101.865 39.5557 101.295 37.7757 100.295L30.2157 96.055C19.8057 90.215 13.8457 77.535 13.8457 61.265C13.8457 61.225 13.8457 61.185 13.8457 61.135L12.8457 45.275C12.8757 26.005 25.8257 10.335 41.7457 10.335H47.5457ZM47.5457 8.33496H41.7457C24.6857 8.33496 10.8457 24.905 10.8457 45.345L11.8457 61.275C11.8457 76.925 17.4057 91.175 29.2457 97.815L36.8057 102.055C38.9757 103.275 41.8157 103.885 44.6557 103.885C47.4957 103.885 50.3357 103.275 52.5057 102.055L60.0657 97.815C71.9057 91.175 77.4657 76.935 77.4657 61.275L78.4657 45.345C78.4657 24.905 64.6357 8.33496 47.5657 8.33496H47.5457Z" fill="black"/>
<path id="Vector_6" d="M44.6449 99.245H44.5349C43.9849 99.245 43.5349 98.795 43.5349 98.245C43.5349 97.695 43.9849 97.245 44.5349 97.245H44.6449C44.9149 97.245 45.1849 97.245 45.4649 97.215C46.0249 97.175 46.4949 97.585 46.5349 98.135C46.5749 98.685 46.1649 99.165 45.6049 99.205C45.2849 99.225 44.9649 99.245 44.6449 99.245ZM39.6749 98.215C39.5449 98.215 39.4149 98.185 39.2849 98.135C38.9549 97.995 38.6349 97.845 38.3149 97.675C37.8249 97.425 37.6249 96.825 37.8849 96.325C38.1349 95.835 38.7349 95.635 39.2349 95.895C39.5149 96.035 39.7949 96.165 40.0749 96.285C40.5849 96.505 40.8249 97.085 40.6049 97.595C40.4449 97.975 40.0749 98.205 39.6849 98.205L39.6749 98.215ZM50.3249 97.885C49.9549 97.885 49.6049 97.685 49.4249 97.325C49.1749 96.825 49.3849 96.235 49.8749 95.985C50.1549 95.845 50.4249 95.705 50.6949 95.545C51.1749 95.265 51.7849 95.425 52.0649 95.905C52.3449 96.385 52.1849 96.995 51.7049 97.275C51.3949 97.455 51.0849 97.625 50.7649 97.785C50.6249 97.855 50.4749 97.885 50.3249 97.885Z" fill="#B4B0AA"/>
<path id="Vector_7" d="M12.3652 51.6951C12.3652 33.0651 25.5752 17.9551 41.8752 17.9551H47.4152C63.7152 17.9551 76.9252 33.0651 76.9252 51.6951" stroke="black" stroke-width="2" stroke-linecap="round" stroke-linejoin="round"/>
<path id="Vector_8" d="M8.70505 52.3953C3.81505 36.0153 7.51505 3.77531 36.605 1.43531C39.375 1.21531 49.8851 1.21531 52.6451 1.42531C82.775 3.69531 84.095 37.0853 80.345 52.3953" stroke="black" stroke-width="2" stroke-linecap="round" stroke-linejoin="round"/>
<path id="Vector_9" d="M12.9253 74.4553C6.56527 74.4553 1.40527 68.9353 1.40527 62.1153V59.6853C1.40527 56.0753 4.13527 53.1553 7.50527 53.1553H12.0853" stroke="black" stroke-width="2" stroke-linecap="round" stroke-linejoin="round"/>
<path id="Vector_10" d="M76.0752 74.4553C82.4352 74.4553 87.5952 68.9353 87.5952 62.1153V59.6853C87.5952 56.0753 84.8652 53.1553 81.4952 53.1553H76.9152" stroke="black" stroke-width="2" stroke-linecap="round" stroke-linejoin="round"/>
</g>
<defs>
<clipPath id="clip0_445_14283">
<rect width="88.19" height="103.61" fill="white" transform="translate(0.405273 0.265137)"/>
</clipPath>
</defs>
</svg>
