<svg width="17" height="17" viewBox="0 0 17 17" fill="none" xmlns="http://www.w3.org/2000/svg">
<g id="icon_naver" clip-path="url(#clip0_267_2508)">
<path id="Vector" d="M13.5572 1.38711V0.910544C13.5572 0.407542 13.1689 0 12.6897 0C12.2104 0 11.8221 0.407542 11.8221 0.910544V1.38711H5.17647V0.910544C5.17647 0.407542 4.78818 0 4.30894 0C3.8297 0 3.44142 0.407542 3.44142 0.910544V1.38711H0V17H17V1.38711H13.5572ZM15.5161 15.4433H1.48319V4.50058H15.5161V15.4425V15.4433Z" fill="white"/>
<path id="Vector_2" d="M7.41242 9.74713L9.67709 13.1617H11.5549V6.78125H9.58753V10.1965L7.32287 6.78125H5.4458V13.1617H7.41242V9.74713Z" fill="white"/>
</g>
<defs>
<clipPath id="clip0_267_2508">
<rect width="17" height="17" fill="white"/>
</clipPath>
</defs>
</svg>
