<svg width="17" height="15" viewBox="0 0 17 15" fill="none" xmlns="http://www.w3.org/2000/svg">
<g id="icon_kakao">
<path id="Subtract" fill-rule="evenodd" clip-rule="evenodd" d="M8.49429 0C4.06888 0 0.5 2.89573 0.5 6.41119C0.5 8.69305 1.98465 10.6911 4.21164 11.8321L3.45789 14.6873C3.44368 14.7301 3.44149 14.776 3.45158 14.82C3.46166 14.864 3.48362 14.9043 3.51499 14.9363C3.56073 14.9772 3.61959 14.9999 3.68059 15C3.73116 14.9959 3.77914 14.9756 3.81763 14.9421L7.06103 12.724C7.53979 12.791 8.02241 12.8258 8.50571 12.8282C12.9254 12.8282 16.5 9.93244 16.5 6.41119C16.5 2.88994 12.914 0 8.49429 0ZM3.29735 5.39749H2.42369C2.3154 5.40067 2.20845 5.37254 2.11533 5.3164C2.07399 5.29013 2.03845 5.25546 2.01093 5.21459C1.98342 5.17373 1.96453 5.12754 1.95545 5.07893C1.95268 5.0481 1.95268 5.01714 1.95545 4.98631C1.95274 4.92864 1.96377 4.87112 1.98763 4.81869C2.01149 4.76626 2.04746 4.72047 2.09249 4.68514C2.19204 4.61202 2.3122 4.57339 2.43511 4.57507H5.06751C5.17666 4.57118 5.28433 4.60153 5.37586 4.66195C5.41818 4.68706 5.45447 4.72142 5.48212 4.76248C5.50977 4.80355 5.52809 4.85031 5.53575 4.89943C5.53854 4.92831 5.53854 4.95742 5.53575 4.98631C5.53844 5.04482 5.52743 5.10313 5.50361 5.15648C5.47978 5.20984 5.44383 5.25667 5.3987 5.29321C5.30158 5.36625 5.18258 5.4031 5.0618 5.39749H4.21669V8.44384C4.22012 8.50874 4.21022 8.57362 4.18761 8.63444C4.165 8.69525 4.13018 8.75067 4.08536 8.79711C4.04237 8.84153 3.9907 8.87633 3.93366 8.89927C3.87662 8.92221 3.81547 8.93277 3.75416 8.93031C3.64692 8.93341 3.54196 8.89865 3.45723 8.8319C3.37657 8.76669 3.32183 8.6741 3.30306 8.57123C3.29742 8.52896 3.29742 8.48612 3.30306 8.44384L3.29735 5.39749ZM5.95365 4.56974C5.87215 4.62358 5.81317 4.70611 5.78806 4.80141L4.57749 8.13154C4.57107 8.14944 4.5633 8.1678 4.55545 8.18637L4.55544 8.18638C4.53534 8.23388 4.51468 8.2827 4.51468 8.3285C4.50487 8.38599 4.50487 8.44472 4.51468 8.50221C4.51165 8.53495 4.51165 8.56794 4.51468 8.60069C4.53141 8.69672 4.58218 8.78319 4.65743 8.84389C4.73467 8.90271 4.82925 8.93334 4.92581 8.93077C5.01496 8.94213 5.10522 8.9218 5.18123 8.87323C5.25724 8.82465 5.3143 8.75085 5.34266 8.66439L5.58249 7.95204H7.08427L7.3241 8.66439C7.35317 8.74917 7.40954 8.82157 7.48412 8.8699C7.55871 8.91823 7.64716 8.93966 7.73524 8.93077C7.79251 8.93217 7.84945 8.92159 7.9025 8.89967C7.95555 8.87774 8.00358 8.84496 8.04359 8.80338C8.08487 8.76548 8.11751 8.71888 8.1392 8.66686C8.1609 8.61484 8.17114 8.55865 8.16921 8.50221C8.17117 8.46555 8.17117 8.42885 8.16921 8.3922C8.14937 8.30397 8.12459 8.21691 8.09498 8.13154L6.95294 4.85931C6.92564 4.74335 6.85633 4.64206 6.75879 4.57553C6.66674 4.52246 6.56196 4.49639 6.45615 4.50024H6.23916C6.13944 4.49573 6.04049 4.51981 5.95365 4.56974ZM5.81661 7.29759L6.35908 5.56013L6.89583 7.29759H5.81661ZM8.30006 4.98673C8.29426 4.85676 8.33942 4.72975 8.42568 4.63345C8.46953 4.58859 8.52217 4.55353 8.5802 4.53059C8.63824 4.50764 8.70037 4.49727 8.76258 4.50019C8.86955 4.49892 8.97394 4.53356 9.05951 4.59867C9.13882 4.6666 9.1915 4.7611 9.20798 4.86506C9.2136 4.9054 9.2136 4.94639 9.20798 4.98673V8.03308H10.7783C10.8871 8.03163 10.9941 8.06172 11.0866 8.11989C11.1282 8.14589 11.1639 8.18051 11.1915 8.22141C11.219 8.26232 11.2378 8.30863 11.2465 8.35737V8.44425C11.2492 8.50193 11.2382 8.55938 11.2143 8.61181C11.1905 8.66423 11.1545 8.7101 11.1095 8.74542C11.0099 8.81855 10.8898 8.8571 10.7669 8.85543H8.83681C8.71389 8.86345 8.59171 8.831 8.48849 8.76282C8.39617 8.6928 8.33465 8.58881 8.31719 8.47324C8.313 8.4096 8.313 8.34571 8.31719 8.28207L8.30006 4.98673ZM11.4752 4.63329C11.391 4.73084 11.3461 4.85697 11.3495 4.98656L11.3153 8.4151C11.3096 8.45738 11.3096 8.50029 11.3153 8.54257C11.334 8.64544 11.3888 8.73795 11.4694 8.80316C11.5524 8.86907 11.6553 8.90388 11.7607 8.90164C11.8237 8.90432 11.8866 8.89387 11.9455 8.87096C12.0045 8.84805 12.0581 8.81311 12.1033 8.76838C12.1875 8.67083 12.2323 8.5447 12.2289 8.4151V7.44796L12.7371 6.90932L13.7992 8.64678C13.8432 8.72823 13.9059 8.79774 13.9819 8.84947C14.0522 8.88693 14.131 8.90496 14.2103 8.90164C14.3297 8.90335 14.4463 8.86459 14.5415 8.79157C14.5922 8.74788 14.6316 8.69242 14.6565 8.62988C14.6814 8.56734 14.6909 8.49959 14.6843 8.43249V8.40358C14.6528 8.3062 14.6065 8.21432 14.5472 8.13132V8.07342L13.4052 6.27806L14.3531 5.22396C14.3949 5.17611 14.4313 5.12372 14.4616 5.06765C14.4913 5.0147 14.5071 4.95482 14.5073 4.89388C14.5045 4.88051 14.5045 4.86674 14.5073 4.85337C14.5096 4.8419 14.5096 4.83005 14.5073 4.81859C14.4991 4.77184 14.4818 4.72725 14.4563 4.68744C14.4308 4.64764 14.3976 4.61343 14.3588 4.58691C14.2764 4.52979 14.1788 4.49947 14.079 4.50002C14.0108 4.49867 13.9435 4.51678 13.8849 4.5522C13.8226 4.60251 13.7635 4.65661 13.7078 4.71431L12.2632 6.40546V4.98656C12.266 4.94607 12.266 4.90538 12.2632 4.86489C12.2447 4.7603 12.19 4.66584 12.109 4.59851C12.0155 4.52945 11.9014 4.49518 11.786 4.50151C11.6705 4.50784 11.5607 4.55441 11.4752 4.63329Z" fill="white"/>
</g>
</svg>
