<svg width="17" height="16" viewBox="0 0 17 16" fill="none" xmlns="http://www.w3.org/2000/svg">
<g id="icon_kakao">
<path id="Subtract" fill-rule="evenodd" clip-rule="evenodd" d="M8.30484 0.5C3.87943 0.5 0.310547 3.39573 0.310547 6.91119C0.310547 9.19305 1.7952 11.1911 4.02218 12.3321L3.26843 15.1873C3.25422 15.2301 3.25204 15.276 3.26212 15.32C3.27221 15.364 3.29416 15.4043 3.32554 15.4363C3.37128 15.4772 3.43014 15.4999 3.49113 15.5C3.5417 15.4959 3.58968 15.4756 3.62818 15.4421L6.87157 13.224C7.35034 13.291 7.83296 13.3258 8.31626 13.3282C12.736 13.3282 16.3105 10.4324 16.3105 6.91119C16.3105 3.38994 12.7245 0.5 8.30484 0.5ZM3.10789 5.89749H2.23423C2.12595 5.90067 2.019 5.87254 1.92588 5.8164C1.88454 5.79013 1.849 5.75546 1.82148 5.71459C1.79397 5.67373 1.77508 5.62754 1.766 5.57893C1.76322 5.5481 1.76322 5.51714 1.766 5.48631C1.76328 5.42864 1.77432 5.37112 1.79818 5.31869C1.82204 5.26626 1.85801 5.22047 1.90304 5.18514C2.00259 5.11202 2.12275 5.07339 2.24565 5.07507H4.87806C4.9872 5.07118 5.09488 5.10153 5.18641 5.16195C5.22873 5.18706 5.26502 5.22142 5.29267 5.26248C5.32032 5.30355 5.33863 5.35031 5.3463 5.39943C5.34908 5.42831 5.34908 5.45742 5.3463 5.48631C5.34899 5.54482 5.33797 5.60313 5.31415 5.65648C5.29033 5.70984 5.25438 5.75667 5.20925 5.79321C5.11212 5.86625 4.99313 5.9031 4.87235 5.89749H4.02724V8.94384C4.03067 9.00874 4.02077 9.07362 3.99816 9.13444C3.97555 9.19525 3.94073 9.25067 3.8959 9.29711C3.85292 9.34153 3.80125 9.37633 3.74421 9.39927C3.68717 9.42221 3.62602 9.43277 3.56471 9.43031C3.45747 9.43341 3.3525 9.39865 3.26778 9.3319C3.18712 9.26669 3.13238 9.1741 3.11361 9.07123C3.10796 9.02896 3.10796 8.98612 3.11361 8.94384L3.10789 5.89749ZM5.7642 5.06974C5.6827 5.12358 5.62372 5.20611 5.5986 5.30141L4.38804 8.63154C4.38162 8.64944 4.37385 8.6678 4.36599 8.68637L4.36599 8.68638C4.34589 8.73388 4.32522 8.7827 4.32522 8.8285C4.31542 8.88599 4.31542 8.94472 4.32522 9.00221C4.3222 9.03495 4.3222 9.06794 4.32522 9.10069C4.34195 9.19672 4.39273 9.28319 4.46798 9.34389C4.54522 9.40271 4.6398 9.43334 4.73636 9.43077C4.8255 9.44213 4.91577 9.4218 4.99178 9.37323C5.06779 9.32465 5.12484 9.25085 5.15321 9.16439L5.39304 8.45204H6.89482L7.13465 9.16439C7.16371 9.24917 7.22009 9.32157 7.29467 9.3699C7.36926 9.41823 7.45771 9.43966 7.54578 9.43077C7.60305 9.43217 7.65999 9.42159 7.71305 9.39967C7.7661 9.37774 7.81413 9.34496 7.85413 9.30338C7.89542 9.26548 7.92805 9.21888 7.94975 9.16686C7.97145 9.11484 7.98169 9.05865 7.97976 9.00221C7.98171 8.96555 7.98171 8.92885 7.97976 8.8922C7.95992 8.80397 7.93514 8.71691 7.90553 8.63154L6.76349 5.35931C6.73618 5.24335 6.66688 5.14206 6.56934 5.07553C6.47729 5.02246 6.37251 4.99639 6.2667 5.00024H6.04971C5.94999 4.99573 5.85104 5.01981 5.7642 5.06974ZM5.62715 7.79759L6.16962 6.06013L6.70638 7.79759H5.62715ZM8.1106 5.48673C8.1048 5.35676 8.14997 5.22975 8.23623 5.13345C8.28008 5.08859 8.33272 5.05353 8.39075 5.03059C8.44878 5.00764 8.51091 4.99727 8.57313 5.00019C8.6801 4.99892 8.78448 5.03356 8.87006 5.09867C8.94937 5.1666 9.00205 5.2611 9.01853 5.36506C9.02415 5.4054 9.02415 5.44639 9.01853 5.48673V8.53308H10.5888C10.6977 8.53163 10.8047 8.56172 10.8972 8.61989C10.9388 8.64589 10.9745 8.68051 11.002 8.72141C11.0296 8.76232 11.0483 8.80863 11.0571 8.85737V8.94425C11.0598 9.00193 11.0487 9.05938 11.0249 9.11181C11.001 9.16423 10.9651 9.2101 10.92 9.24542C10.8205 9.31855 10.7003 9.3571 10.5774 9.35543H8.64736C8.52444 9.36345 8.40225 9.331 8.29904 9.26282C8.20672 9.1928 8.1452 9.08881 8.12773 8.97324C8.12355 8.9096 8.12355 8.84571 8.12773 8.78207L8.1106 5.48673ZM11.2857 5.13329C11.2015 5.23084 11.1567 5.35697 11.1601 5.48656L11.1258 8.9151C11.1202 8.95738 11.1202 9.00029 11.1258 9.04257C11.1446 9.14544 11.1993 9.23795 11.28 9.30316C11.363 9.36907 11.4658 9.40388 11.5712 9.40164C11.6343 9.40432 11.6972 9.39387 11.7561 9.37096C11.815 9.34805 11.8687 9.31311 11.9138 9.26838C11.998 9.17083 12.0429 9.0447 12.0394 8.9151V7.94796L12.5477 7.40932L13.6098 9.14678C13.6538 9.22823 13.7164 9.29774 13.7925 9.34947C13.8628 9.38693 13.9416 9.40496 14.0209 9.40164C14.1403 9.40335 14.2568 9.36459 14.3521 9.29157C14.4027 9.24788 14.4422 9.19242 14.467 9.12988C14.4919 9.06734 14.5014 8.99959 14.4948 8.93249V8.90358C14.4633 8.8062 14.4171 8.71432 14.3578 8.63132V8.57342L13.2157 6.77806L14.1636 5.72396C14.2054 5.67611 14.2418 5.62372 14.2721 5.56765C14.3019 5.5147 14.3176 5.45482 14.3178 5.39388C14.315 5.38051 14.315 5.36674 14.3178 5.35337C14.3201 5.3419 14.3201 5.33005 14.3178 5.31859C14.3097 5.27184 14.2924 5.22725 14.2668 5.18744C14.2413 5.14764 14.2082 5.11343 14.1694 5.08691C14.087 5.02979 13.9894 4.99947 13.8896 5.00002C13.8213 4.99867 13.7541 5.01678 13.6954 5.0522C13.6332 5.10251 13.5741 5.15661 13.5184 5.21431L12.0737 6.90546V5.48656C12.0765 5.44607 12.0765 5.40538 12.0737 5.36489C12.0553 5.2603 12.0006 5.16584 11.9195 5.09851C11.8261 5.02945 11.712 4.99518 11.5965 5.00151C11.4811 5.00784 11.3713 5.05441 11.2857 5.13329Z" fill="black"/>
</g>
</svg>
