<svg width="18" height="17" viewBox="0 0 18 17" fill="none" xmlns="http://www.w3.org/2000/svg">
<path id="Vector" d="M9.0008 0C6.69231 0 6.4026 0.0100939 5.49593 0.0513543C4.59102 0.0927918 3.97335 0.236052 3.43288 0.44625C2.87383 0.663354 2.39959 0.953771 1.92713 1.42641C1.45431 1.89886 1.16389 2.37309 0.946077 2.93197C0.735346 3.4726 0.591907 4.09045 0.551178 4.99499C0.510625 5.90166 0.5 6.19154 0.5 8.5C0.5 10.8085 0.510271 11.0973 0.551355 12.0039C0.59297 12.9088 0.736232 13.5265 0.946255 14.067C1.16354 14.626 1.45396 15.1003 1.9266 15.5727C2.39888 16.0455 2.87312 16.3366 3.43182 16.5538C3.97264 16.7639 4.59049 16.9072 5.49522 16.9486C6.40189 16.9899 6.69143 17 8.99973 17C11.3084 17 11.5972 16.9899 12.5039 16.9486C13.4088 16.9072 14.0272 16.7639 14.568 16.5538C15.1269 16.3366 15.6004 16.0455 16.0727 15.5727C16.5455 15.1003 16.8359 14.626 17.0537 14.0671C17.2627 13.5265 17.4061 12.9087 17.4486 12.0041C17.4894 11.0975 17.5 10.8085 17.5 8.5C17.5 6.19154 17.4894 5.90183 17.4486 4.99517C17.4061 4.09027 17.2627 3.4726 17.0537 2.93215C16.8359 2.37309 16.5455 1.89886 16.0727 1.42641C15.5999 0.953594 15.1271 0.663177 14.5675 0.44625C14.0256 0.236052 13.4076 0.0927918 12.5027 0.0513543C11.596 0.0100939 11.3073 0 8.99814 0H9.0008ZM8.23827 1.53177C8.46458 1.53142 8.71711 1.53177 9.0008 1.53177C11.2703 1.53177 11.5393 1.53992 12.4355 1.58065C13.2643 1.61854 13.7141 1.75702 14.0137 1.87336C14.4104 2.02743 14.6932 2.21159 14.9905 2.50909C15.288 2.80659 15.4722 3.08993 15.6266 3.48659C15.743 3.78586 15.8816 4.23566 15.9193 5.06441C15.9601 5.96045 15.9689 6.22961 15.9689 8.49805C15.9689 10.7665 15.9601 11.0357 15.9193 11.9317C15.8814 12.7604 15.743 13.2102 15.6266 13.5095C15.4726 13.9062 15.288 14.1886 14.9905 14.4859C14.693 14.7834 14.4106 14.9676 14.0137 15.1217C13.7144 15.2386 13.2643 15.3767 12.4355 15.4146C11.5395 15.4553 11.2703 15.4642 9.0008 15.4642C6.7311 15.4642 6.4621 15.4553 5.56605 15.4146C4.73729 15.3763 4.2875 15.2378 3.98769 15.1215C3.59102 14.9674 3.30769 14.7833 3.01018 14.4858C2.71268 14.1883 2.52851 13.9056 2.37409 13.5088C2.25775 13.2095 2.11909 12.7597 2.08137 11.931C2.04064 11.0349 2.0325 10.7658 2.0325 8.49593C2.0325 6.22607 2.04064 5.95832 2.08137 5.06228C2.11927 4.23353 2.25775 3.78374 2.37409 3.48411C2.52816 3.08745 2.71268 2.80411 3.01018 2.50661C3.30769 2.20911 3.59102 2.02495 3.98769 1.87053C4.28732 1.75366 4.73729 1.61553 5.56605 1.57746C6.35019 1.54204 6.65406 1.53142 8.23827 1.52965V1.53177ZM13.5381 2.94312C12.9749 2.94312 12.5181 3.39947 12.5181 3.96277C12.5181 4.5259 12.9749 4.98277 13.5381 4.98277C14.1012 4.98277 14.5581 4.5259 14.5581 3.96277C14.5581 3.39965 14.1012 2.94277 13.5381 2.94277V2.94312ZM9.0008 4.1349C6.59014 4.1349 4.63565 6.08936 4.63565 8.5C4.63565 10.9106 6.59014 12.8642 9.0008 12.8642C11.4115 12.8642 13.3652 10.9106 13.3652 8.5C13.3652 6.08936 11.4113 4.1349 9.00062 4.1349H9.0008ZM9.0008 5.66667C10.5655 5.66667 11.8342 6.93511 11.8342 8.5C11.8342 10.0647 10.5655 11.3333 9.0008 11.3333C7.43589 11.3333 6.16743 10.0647 6.16743 8.5C6.16743 6.93511 7.43589 5.66667 9.0008 5.66667Z" fill="black"/>
</svg>
