<svg width="16" height="19" viewBox="0 0 16 19" fill="none" xmlns="http://www.w3.org/2000/svg">
<path id="Vector" d="M1.87018 18.4062C1.48616 18.4062 1.1618 18.2683 0.897078 17.9924C0.632359 17.7165 0.5 17.3785 0.5 16.9783V4.05102C0.5 3.6508 0.632359 3.31274 0.897078 3.03686C1.1618 2.76097 1.48616 2.62302 1.87018 2.62302H3.71513V0.59375H4.61056V2.62302H11.4616V0.59375H12.2969V2.62302H14.1298C14.5138 2.62302 14.8382 2.76097 15.1029 3.03686C15.3676 3.31274 15.5 3.6508 15.5 4.05102V16.9783C15.5 17.3785 15.3676 17.7165 15.1029 17.9924C14.8382 18.2683 14.5138 18.4062 14.1298 18.4062H1.87018ZM1.87018 17.5795H14.1298C14.2741 17.5795 14.4063 17.5169 14.5265 17.3916C14.6466 17.2664 14.7067 17.1286 14.7067 16.9783V8.18472H1.29327V16.9783C1.29327 17.1286 1.35336 17.2664 1.47355 17.3916C1.59373 17.5169 1.72595 17.5795 1.87018 17.5795ZM1.29327 7.35799H14.7067V4.05102C14.7067 3.9007 14.6466 3.76291 14.5265 3.63765C14.4063 3.51239 14.2741 3.44976 14.1298 3.44976H1.87018C1.72595 3.44976 1.59373 3.51239 1.47355 3.63765C1.35336 3.76291 1.29327 3.9007 1.29327 4.05102V7.35799ZM8 11.7172C7.80648 11.7172 7.63791 11.6423 7.49429 11.4926C7.35066 11.3429 7.27885 11.1673 7.27885 10.9656C7.27885 10.7639 7.35066 10.5882 7.49429 10.4385C7.63791 10.2888 7.80648 10.214 8 10.214C8.19352 10.214 8.36209 10.2888 8.50571 10.4385C8.64934 10.5882 8.72115 10.7639 8.72115 10.9656C8.72115 11.1673 8.64934 11.3429 8.50571 11.4926C8.36209 11.6423 8.19352 11.7172 8 11.7172ZM4.25 11.7172C4.05648 11.7172 3.88791 11.6423 3.74429 11.4926C3.60066 11.3429 3.52885 11.1673 3.52885 10.9656C3.52885 10.7639 3.60066 10.5882 3.74429 10.4385C3.88791 10.2888 4.05648 10.214 4.25 10.214C4.44352 10.214 4.61209 10.2888 4.75571 10.4385C4.89934 10.5882 4.97115 10.7639 4.97115 10.9656C4.97115 11.1673 4.89934 11.3429 4.75571 11.4926C4.61209 11.6423 4.44352 11.7172 4.25 11.7172ZM11.75 11.7172C11.5565 11.7172 11.3879 11.6423 11.2443 11.4926C11.1007 11.3429 11.0289 11.1673 11.0289 10.9656C11.0289 10.7639 11.1007 10.5882 11.2443 10.4385C11.3879 10.2888 11.5565 10.214 11.75 10.214C11.9435 10.214 12.1121 10.2888 12.2557 10.4385C12.3993 10.5882 12.4711 10.7639 12.4711 10.9656C12.4711 11.1673 12.3993 11.3429 12.2557 11.4926C12.1121 11.6423 11.9435 11.7172 11.75 11.7172ZM8 15.4751C7.80648 15.4751 7.63791 15.4002 7.49429 15.2506C7.35066 15.1009 7.27885 14.9252 7.27885 14.7235C7.27885 14.5218 7.35066 14.3461 7.49429 14.1965C7.63791 14.0468 7.80648 13.9719 8 13.9719C8.19352 13.9719 8.36209 14.0468 8.50571 14.1965C8.64934 14.3461 8.72115 14.5218 8.72115 14.7235C8.72115 14.9252 8.64934 15.1009 8.50571 15.2506C8.36209 15.4002 8.19352 15.4751 8 15.4751ZM4.25 15.4751C4.05648 15.4751 3.88791 15.4002 3.74429 15.2506C3.60066 15.1009 3.52885 14.9252 3.52885 14.7235C3.52885 14.5218 3.60066 14.3461 3.74429 14.1965C3.88791 14.0468 4.05648 13.9719 4.25 13.9719C4.44352 13.9719 4.61209 14.0468 4.75571 14.1965C4.89934 14.3461 4.97115 14.5218 4.97115 14.7235C4.97115 14.9252 4.89934 15.1009 4.75571 15.2506C4.61209 15.4002 4.44352 15.4751 4.25 15.4751ZM11.75 15.4751C11.5565 15.4751 11.3879 15.4002 11.2443 15.2506C11.1007 15.1009 11.0289 14.9252 11.0289 14.7235C11.0289 14.5218 11.1007 14.3461 11.2443 14.1965C11.3879 14.0468 11.5565 13.9719 11.75 13.9719C11.9435 13.9719 12.1121 14.0468 12.2557 14.1965C12.3993 14.3461 12.4711 14.5218 12.4711 14.7235C12.4711 14.9252 12.3993 15.1009 12.2557 15.2506C12.1121 15.4002 11.9435 15.4751 11.75 15.4751Z" fill="black"/>
</svg>
