<svg width="16" height="15" viewBox="0 0 16 15" fill="none" xmlns="http://www.w3.org/2000/svg">
<g id="Group 316">
<path id="Subtract" fill-rule="evenodd" clip-rule="evenodd" d="M7.99429 0C3.56888 0 0 2.89573 0 6.41119C0 8.69305 1.48465 10.6911 3.71164 11.8321L2.95789 14.6873C2.94368 14.7301 2.94149 14.776 2.95158 14.82C2.96166 14.864 2.98362 14.9043 3.01499 14.9363C3.06073 14.9772 3.11959 14.9999 3.18059 15C3.23116 14.9959 3.27914 14.9756 3.31763 14.9421L6.56103 12.724C7.03979 12.791 7.52241 12.8258 8.00571 12.8282C12.4254 12.8282 16 9.93244 16 6.41119C16 2.88994 12.414 0 7.99429 0ZM2.79735 5.39749H1.92369C1.8154 5.40067 1.70845 5.37254 1.61533 5.3164C1.57399 5.29013 1.53845 5.25546 1.51093 5.21459C1.48342 5.17373 1.46453 5.12754 1.45545 5.07893C1.45268 5.0481 1.45268 5.01714 1.45545 4.98631C1.45274 4.92864 1.46377 4.87112 1.48763 4.81869C1.51149 4.76626 1.54746 4.72047 1.59249 4.68514C1.69204 4.61202 1.8122 4.57339 1.93511 4.57507H4.56751C4.67666 4.57118 4.78433 4.60153 4.87586 4.66195C4.91818 4.68706 4.95447 4.72142 4.98212 4.76248C5.00977 4.80355 5.02809 4.85031 5.03575 4.89943C5.03854 4.92831 5.03854 4.95742 5.03575 4.98631C5.03844 5.04482 5.02743 5.10313 5.00361 5.15648C4.97978 5.20984 4.94383 5.25667 4.8987 5.29321C4.80158 5.36625 4.68258 5.4031 4.5618 5.39749H3.71669V8.44384C3.72012 8.50874 3.71022 8.57362 3.68761 8.63444C3.665 8.69525 3.63018 8.75067 3.58536 8.79711C3.54237 8.84153 3.4907 8.87633 3.43366 8.89927C3.37662 8.92221 3.31547 8.93277 3.25416 8.93031C3.14692 8.93341 3.04196 8.89865 2.95723 8.8319C2.87657 8.76669 2.82183 8.6741 2.80306 8.57123C2.79742 8.52896 2.79742 8.48612 2.80306 8.44384L2.79735 5.39749ZM5.45365 4.56974C5.37215 4.62358 5.31317 4.70611 5.28806 4.80141L4.07749 8.13154C4.07107 8.14944 4.0633 8.1678 4.05545 8.18637L4.05544 8.18638C4.03534 8.23388 4.01468 8.2827 4.01468 8.3285C4.00487 8.38599 4.00487 8.44472 4.01468 8.50221C4.01165 8.53495 4.01165 8.56794 4.01468 8.60069C4.03141 8.69672 4.08218 8.78319 4.15743 8.84389C4.23467 8.90271 4.32925 8.93334 4.42581 8.93077C4.51496 8.94213 4.60522 8.9218 4.68123 8.87323C4.75724 8.82465 4.8143 8.75085 4.84266 8.66439L5.08249 7.95204H6.58427L6.8241 8.66439C6.85317 8.74917 6.90954 8.82157 6.98412 8.8699C7.05871 8.91823 7.14716 8.93966 7.23524 8.93077C7.29251 8.93217 7.34945 8.92159 7.4025 8.89967C7.45555 8.87774 7.50358 8.84496 7.54359 8.80338C7.58487 8.76548 7.61751 8.71888 7.6392 8.66686C7.6609 8.61484 7.67114 8.55865 7.66921 8.50221C7.67117 8.46555 7.67117 8.42885 7.66921 8.3922C7.64937 8.30397 7.62459 8.21691 7.59498 8.13154L6.45294 4.85931C6.42564 4.74335 6.35633 4.64206 6.25879 4.57553C6.16674 4.52246 6.06196 4.49639 5.95615 4.50024H5.73916C5.63944 4.49573 5.54049 4.51981 5.45365 4.56974ZM5.31661 7.29759L5.85908 5.56013L6.39583 7.29759H5.31661ZM7.80006 4.98673C7.79426 4.85676 7.83942 4.72975 7.92568 4.63345C7.96953 4.58859 8.02217 4.55353 8.0802 4.53059C8.13824 4.50764 8.20037 4.49727 8.26258 4.50019C8.36955 4.49892 8.47394 4.53356 8.55951 4.59867C8.63882 4.6666 8.6915 4.7611 8.70798 4.86506C8.7136 4.9054 8.7136 4.94639 8.70798 4.98673V8.03308H10.2783C10.3871 8.03163 10.4941 8.06172 10.5866 8.11989C10.6282 8.14589 10.6639 8.18051 10.6915 8.22141C10.719 8.26232 10.7378 8.30863 10.7465 8.35737V8.44425C10.7492 8.50193 10.7382 8.55938 10.7143 8.61181C10.6905 8.66423 10.6545 8.7101 10.6095 8.74542C10.5099 8.81855 10.3898 8.8571 10.2669 8.85543H8.33681C8.21389 8.86345 8.09171 8.831 7.98849 8.76282C7.89617 8.6928 7.83465 8.58881 7.81719 8.47324C7.813 8.4096 7.813 8.34571 7.81719 8.28207L7.80006 4.98673ZM10.9752 4.63329C10.891 4.73084 10.8461 4.85697 10.8495 4.98656L10.8153 8.4151C10.8096 8.45738 10.8096 8.50029 10.8153 8.54257C10.834 8.64544 10.8888 8.73795 10.9694 8.80316C11.0524 8.86907 11.1553 8.90388 11.2607 8.90164C11.3237 8.90432 11.3866 8.89387 11.4455 8.87096C11.5045 8.84805 11.5581 8.81311 11.6033 8.76838C11.6875 8.67083 11.7323 8.5447 11.7289 8.4151V7.44796L12.2371 6.90932L13.2992 8.64678C13.3432 8.72823 13.4059 8.79774 13.4819 8.84947C13.5522 8.88693 13.631 8.90496 13.7103 8.90164C13.8297 8.90335 13.9463 8.86459 14.0415 8.79157C14.0922 8.74788 14.1316 8.69242 14.1565 8.62988C14.1814 8.56734 14.1909 8.49959 14.1843 8.43249V8.40358C14.1528 8.3062 14.1065 8.21432 14.0472 8.13132V8.07342L12.9052 6.27806L13.8531 5.22396C13.8949 5.17611 13.9313 5.12372 13.9616 5.06765C13.9913 5.0147 14.0071 4.95482 14.0073 4.89388C14.0045 4.88051 14.0045 4.86674 14.0073 4.85337C14.0096 4.8419 14.0096 4.83005 14.0073 4.81859C13.9991 4.77184 13.9818 4.72725 13.9563 4.68744C13.9308 4.64764 13.8976 4.61343 13.8588 4.58691C13.7764 4.52979 13.6788 4.49947 13.579 4.50002C13.5108 4.49867 13.4435 4.51678 13.3849 4.5522C13.3226 4.60251 13.2635 4.65661 13.2078 4.71431L11.7632 6.40546V4.98656C11.766 4.94607 11.766 4.90538 11.7632 4.86489C11.7447 4.7603 11.69 4.66584 11.609 4.59851C11.5155 4.52945 11.4014 4.49518 11.286 4.50151C11.1705 4.50784 11.0607 4.55441 10.9752 4.63329Z" fill="black"/>
</g>
</svg>
