<svg width="16" height="19" viewBox="0 0 16 19" fill="none" xmlns="http://www.w3.org/2000/svg">
<path id="Vector" d="M8.00623 9.14462C8.45511 9.14462 8.83728 8.99356 9.15277 8.69145C9.46826 8.38932 9.62601 8.02614 9.62601 7.60189C9.62601 7.17764 9.46618 6.81643 9.14654 6.51825C8.82689 6.22007 8.44263 6.07098 7.99376 6.07098C7.54489 6.07098 7.16271 6.22203 6.84723 6.52414C6.53174 6.82625 6.37399 7.18943 6.37399 7.61368C6.37399 8.03792 6.53382 8.39915 6.85346 8.69734C7.17311 8.99553 7.55736 9.14462 8.00623 9.14462ZM8 17.3653C10.0434 15.6825 11.6552 13.9808 12.8354 12.2602C14.0156 10.5396 14.6057 9.04899 14.6057 7.78837C14.6057 5.9158 13.9799 4.3706 12.7283 3.15277C11.4766 1.93495 9.90056 1.32604 8 1.32604C6.09944 1.32604 4.52335 1.93495 3.27172 3.15277C2.02011 4.3706 1.39431 5.9158 1.39431 7.78837C1.39431 9.04899 1.9887 10.5396 3.1775 12.2602C4.3663 13.9808 5.9738 15.6825 8 17.3653ZM8 18.5C5.51626 16.424 3.64532 14.4879 2.38719 12.6918C1.12906 10.8956 0.5 9.26116 0.5 7.78837C0.5 5.67524 1.22798 3.93223 2.68395 2.55933C4.1399 1.18644 5.91191 0.5 8 0.5C10.0881 0.5 11.8601 1.18644 13.3161 2.55933C14.772 3.93223 15.5 5.67524 15.5 7.78837C15.5 9.26116 14.8709 10.8956 13.6128 12.6918C12.3547 14.4879 10.4837 16.424 8 18.5Z" fill="black"/>
</svg>
