<svg width="18" height="17" viewBox="0 0 18 17" fill="none" xmlns="http://www.w3.org/2000/svg">
<g clip-path="url(#clip0_311_7849)">
<path d="M14.0572 1.38711V0.910544C14.0572 0.407542 13.6689 0 13.1897 0C12.7104 0 12.3221 0.407542 12.3221 0.910544V1.38711H5.67647V0.910544C5.67647 0.407542 5.28818 0 4.80894 0C4.3297 0 3.94142 0.407542 3.94142 0.910544V1.38711H0.5V17H17.5V1.38711H14.0572ZM16.0161 15.4433H1.98319V4.50058H16.0161V15.4425V15.4433Z" fill="black"/>
<path d="M7.91242 9.74716L10.1771 13.1617H12.0549V6.78128H10.0875V10.1966L7.82287 6.78128H5.9458V13.1617H7.91242V9.74716Z" fill="black"/>
</g>
<defs>
<clipPath id="clip0_311_7849">
<rect width="17" height="17" fill="white" transform="translate(0.5)"/>
</clipPath>
</defs>
</svg>
