<svg width="18" height="18" viewBox="0 0 18 18" fill="none" xmlns="http://www.w3.org/2000/svg">
<g id="icon_naver" clip-path="url(#clip0_478_10340)">
<path id="Vector" d="M13.8677 1.88711V1.41054C13.8677 0.907542 13.4794 0.5 13.0002 0.5C12.521 0.5 12.1327 0.907542 12.1327 1.41054V1.88711H5.48701V1.41054C5.48701 0.907542 5.09873 0.5 4.61949 0.5C4.14025 0.5 3.75196 0.907542 3.75196 1.41054V1.88711H0.310547V17.5H17.3105V1.88711H13.8677ZM15.8267 15.9433H1.79374V5.00058H15.8267V15.9425V15.9433Z" fill="black"/>
<path id="Vector_2" d="M7.72297 10.2471L9.98763 13.6617H11.8654V7.28125H9.89808V10.6965L7.63342 7.28125H5.75635V13.6617H7.72297V10.2471Z" fill="black"/>
</g>
<defs>
<clipPath id="clip0_478_10340">
<rect width="17" height="17" fill="white" transform="translate(0.310547 0.5)"/>
</clipPath>
</defs>
</svg>
