<svg width="69" height="32" viewBox="0 0 69 32" fill="none" xmlns="http://www.w3.org/2000/svg">
<g clip-path="url(#clip0_24_1594)">
<path d="M5.28677 19.2487C3.44149 19.2487 1.54599 18.8144 0.624603 18.2997C0.704942 17.6218 0.895747 16.5373 1.08655 15.6711L1.49327 15.6159C1.95271 17.5139 3.33604 18.2997 5.36962 18.2997C7.59149 18.2997 9.51712 16.9716 9.51712 14.3405C9.51712 12.0358 8.13378 11.1696 5.64076 10.1102C3.47161 9.18877 1.27736 8.21215 1.27736 4.95842C1.27485 2.0612 3.71514 0.0552368 6.94125 0.0552368C8.5405 0.0552368 10.1146 0.489569 10.9532 0.896285C10.7096 1.49381 10.4385 2.30473 10.3029 3.09305L9.92383 3.12067C9.54473 1.82018 8.56811 0.979135 6.67011 0.979135C4.60891 0.979135 3.20047 2.2269 3.20047 4.42116C3.20047 6.7535 4.55619 7.51169 6.42658 8.26989C9.35393 9.46242 11.498 10.439 11.498 13.6099C11.498 16.7808 8.78654 19.2487 5.28928 19.2487H5.28677Z" fill="white"/>
<path d="M24.7263 19.3567C19.2356 19.3567 15.4095 15.5883 15.4095 9.67833C15.4095 3.7684 19.2356 0 24.7263 0C30.2169 0 34.0707 3.71317 34.0707 9.67833C34.0707 15.6435 30.2446 19.3567 24.7263 19.3567ZM24.7263 0.866154C20.6139 0.866154 17.5962 3.74078 17.5962 9.65071C17.5962 15.5606 20.6164 18.4353 24.7263 18.4353C28.8361 18.4353 31.884 15.4803 31.884 9.65071C31.884 3.82112 28.8662 0.868665 24.7263 0.868665V0.866154Z" fill="white"/>
<path d="M42.4285 19.2487C40.5857 19.2487 38.6877 18.8144 37.7663 18.2997C37.8466 17.6218 38.0374 16.5373 38.2257 15.6711L38.6324 15.6159C39.0944 17.5139 40.4752 18.2997 42.5088 18.2997C44.7307 18.2997 46.6563 16.9716 46.6563 14.3405C46.6563 12.0358 45.273 11.1696 42.7799 10.1101C40.6108 9.18876 38.414 8.21214 38.414 4.95841C38.414 2.05616 40.8543 0.0502014 44.0804 0.0502014C45.6797 0.0502014 47.2538 0.484534 48.0924 0.89125C47.8488 1.48877 47.5777 2.29969 47.4421 3.08802L47.063 3.11563C46.6839 1.81515 45.7073 0.974099 43.8093 0.974099C41.7481 0.974099 40.3396 2.22186 40.3396 4.41612C40.3396 6.74846 41.6954 7.50666 43.5658 8.26486C46.4931 9.45739 48.6346 10.434 48.6346 13.6049C48.6346 16.7758 45.9232 19.2437 42.426 19.2437L42.4285 19.2487Z" fill="white"/>
<path d="M68.157 10.9537C68.157 12.1739 68.0214 13.5823 67.6423 14.6669C66.7486 17.5139 64.4438 19.3567 60.457 19.3567C55.1697 19.3567 53.0006 17.2428 53.0006 11.737C53.0006 10.0574 53.0834 8.21215 53.0834 6.85643C53.0834 3.87385 53.0282 1.97584 52.9202 0.404213C53.2441 0.43183 53.7864 0.459446 54.168 0.459446C54.5195 0.459446 54.9538 0.43183 55.3881 0.404213C55.1973 1.97584 54.9814 5.85471 54.9814 9.89174C54.9814 14.8251 55.6593 18.242 61.0018 18.242C64.3359 18.242 66.018 16.5348 66.6682 13.7957C66.9117 12.7664 66.9394 11.7621 66.9394 10.1629C66.9394 6.15096 66.859 2.67881 66.6155 0.401703C66.9143 0.429319 67.213 0.456936 67.5093 0.456936C67.7528 0.456936 68.1595 0.429319 68.3754 0.401703C68.2398 2.86961 68.1595 5.44297 68.1595 10.9487L68.157 10.9537Z" fill="white"/>
<path d="M22.8258 26.2482L22.6425 26.2683C22.419 25.6382 21.7914 25.254 20.8374 25.254C19.2959 25.254 18.1485 26.198 18.1485 28.3697C18.1485 30.5413 19.2733 31.4728 20.9278 31.4728C21.7487 31.4728 22.4592 31.1589 22.876 30.6619L22.9764 30.702C22.9664 30.9154 22.9262 31.2895 22.886 31.4125C22.4893 31.7163 21.6985 32 20.7043 32C18.4624 32 16.961 30.702 16.961 28.3797C16.961 26.0574 18.4824 24.8097 20.7746 24.8097C21.7387 24.8097 22.5596 25.0331 23.0768 25.2766C22.9764 25.5302 22.8935 25.8641 22.8233 26.2507L22.8258 26.2482Z" fill="white"/>
<path d="M26.3155 31.8368C26.0519 31.8368 25.4644 31.8569 25.2309 31.8669C25.2811 31.056 25.3113 29.7154 25.3113 28.804V27.7897C25.3113 26.8759 25.2811 25.7411 25.2309 24.9302C25.4142 24.9402 25.6376 24.9503 25.8184 24.9503C25.9992 24.9503 26.2251 24.9402 26.4059 24.9302C26.3557 25.7411 26.3255 26.8784 26.3255 27.7897V28.804C26.3255 29.7179 26.3456 30.9355 26.3657 31.3724C27.2168 31.3724 28.2311 31.3322 29.0746 31.1991C29.0646 31.3724 29.0646 31.4728 29.0646 31.5431C29.0646 31.6033 29.0646 31.7063 29.0746 31.8669C28.2537 31.8569 27.1766 31.8368 26.3155 31.8368Z" fill="white"/>
<path d="M31.6907 31.8469C31.5074 31.8469 31.2839 31.8569 31.1032 31.8669C31.1534 31.056 31.1835 29.7154 31.1835 28.804V27.7897C31.1835 26.8759 31.1534 25.7411 31.1032 24.9302C31.2865 24.9402 31.5099 24.9503 31.6907 24.9503C31.8714 24.9503 32.0974 24.9402 32.2781 24.9302C32.2279 25.7411 32.1978 26.8784 32.1978 27.7897V28.804C32.1978 29.7078 32.2279 31.056 32.2781 31.8669C32.0949 31.8569 31.8714 31.8469 31.6907 31.8469Z" fill="white"/>
<path d="M40.769 28.5002V29.3111C40.769 30.3455 40.789 31.3196 40.8091 31.887H40.312C39.481 30.8225 37.5529 28.5806 35.9411 26.8257C35.8708 26.7554 35.808 26.6625 35.7277 26.562L35.6976 26.5721V28.2969C35.6976 29.5145 35.7578 31.056 35.8808 31.8669C35.7478 31.8569 35.5771 31.8468 35.4641 31.8468C35.3511 31.8468 35.1804 31.8569 35.0473 31.8669C35.1277 31.056 35.1804 29.512 35.1804 28.2969V27.7897C35.1804 26.5118 35.1503 25.3444 35.1402 24.8774H35.6875C36.875 26.3687 38.8735 28.5906 40.0484 29.8685C40.1087 29.9288 40.1589 30.0016 40.2417 30.0919L40.2618 30.0819V28.4977C40.2618 27.2801 40.2016 25.7386 40.0785 24.9277C40.2417 24.9377 40.3823 24.9477 40.5053 24.9477C40.6158 24.9477 40.789 24.9377 40.902 24.9277C40.8217 25.7386 40.769 27.2801 40.769 28.4977V28.5002Z" fill="white"/>
<path d="M44.2562 31.8469C44.0729 31.8469 43.8495 31.8569 43.6687 31.8669C43.7189 31.056 43.749 29.7154 43.749 28.804V27.7897C43.749 26.8759 43.7189 25.7411 43.6687 24.9302C43.852 24.9402 44.0754 24.9503 44.2562 24.9503C44.4369 24.9503 44.6629 24.9402 44.8437 24.9302C44.7934 25.7411 44.7633 26.8784 44.7633 27.7897V28.804C44.7633 29.7078 44.7934 31.056 44.8437 31.8669C44.6604 31.8569 44.4369 31.8469 44.2562 31.8469Z" fill="white"/>
<path d="M53.2115 26.2482L53.0282 26.2683C52.8047 25.6382 52.1771 25.254 51.2231 25.254C49.6816 25.254 48.5342 26.198 48.5342 28.3697C48.5342 30.5413 49.659 31.4728 51.3134 31.4728C52.1344 31.4728 52.8449 31.1589 53.2617 30.6619L53.3621 30.702C53.352 30.9154 53.3119 31.2895 53.2717 31.4125C52.875 31.7163 52.0842 32 51.09 32C48.848 32 47.3467 30.702 47.3467 28.3797C47.3467 26.0574 48.8681 24.8097 51.1603 24.8097C52.1244 24.8097 52.9453 25.0331 53.4625 25.2766C53.3621 25.5302 53.2792 25.8641 53.2089 26.2507L53.2115 26.2482Z" fill="white"/>
</g>
<defs>
<clipPath id="clip0_24_1594">
<rect width="67.7508" height="32" fill="white" transform="translate(0.624603)"/>
</clipPath>
</defs>
</svg>
