<svg width="150" height="18" viewBox="0 0 150 18" fill="none" xmlns="http://www.w3.org/2000/svg">
<g id="logo_wordmark" clip-path="url(#clip0_126_336)">
<path id="Vector" d="M4.24741 17.8995C2.56863 17.8995 0.839392 17.4968 0 17.0168C0.0733894 16.387 0.247689 15.3779 0.419696 14.5701L0.79123 14.521C1.21093 16.2863 2.47001 17.0168 4.3231 17.0168C6.34819 17.0168 8.10036 15.7806 8.10036 13.3363C8.10036 11.194 6.84127 10.3862 4.56849 9.40286C2.59156 8.54594 0.591702 7.63751 0.591702 4.61253C0.591702 1.91534 2.81403 0.0493164 5.75419 0.0493164C7.21051 0.0493164 8.6439 0.452022 9.4099 0.831314C9.18744 1.38621 8.93975 2.14245 8.8182 2.87294L8.47189 2.89869C8.12559 1.68823 7.23803 0.906236 5.50879 0.906236C3.63278 0.906236 2.34846 2.06519 2.34846 4.10915C2.34846 6.27721 3.58232 6.98194 5.28633 7.68902C7.95358 8.7988 9.90528 9.70723 9.90528 12.6549C9.90528 15.6026 7.43527 17.8995 4.24971 17.8995H4.24741Z" fill="white"/>
<path id="Vector_2" d="M21.955 18C16.953 18 13.467 14.4951 13.467 9C13.467 3.50494 16.953 0 21.955 0C26.9569 0 30.4659 3.45343 30.4659 9C30.4659 14.5466 26.9799 18 21.955 18ZM21.955 0.807752C18.2098 0.807752 15.46 3.47919 15.46 8.97659C15.46 14.474 18.2098 17.1454 21.955 17.1454C25.7001 17.1454 28.4752 14.3967 28.4752 8.97659C28.4752 3.55645 25.7231 0.807752 21.955 0.807752Z" fill="white"/>
<path id="Vector_3" d="M38.0799 17.8995C36.4011 17.8995 34.6719 17.4968 33.8325 17.0168C33.9059 16.387 34.0802 15.3779 34.2522 14.5701L34.6237 14.521C35.0434 16.2863 36.3025 17.0168 38.1556 17.0168C40.1807 17.0168 41.9329 15.7806 41.9329 13.3363C41.9329 11.194 40.6738 10.3862 38.401 9.40286C36.4264 8.54594 34.4242 7.63751 34.4242 4.61253C34.4242 1.91534 36.6465 0.0493164 39.5867 0.0493164C41.043 0.0493164 42.4764 0.452022 43.2424 0.831314C43.02 1.38621 42.7723 2.14245 42.6484 2.87294L42.3021 2.89869C41.9558 1.68823 41.066 0.906236 39.339 0.906236C37.463 0.906236 36.1787 2.06519 36.1787 4.10915C36.1787 6.27721 37.4125 6.98194 39.1189 7.68902C41.7861 8.7988 43.7355 9.70723 43.7355 12.6549C43.7355 15.6026 41.2655 17.8995 38.0799 17.8995Z" fill="white"/>
<path id="Vector_4" d="M61.5142 10.1847C61.5142 11.3202 61.3904 12.6314 61.0441 13.6381C60.2299 16.2862 58.1291 18 54.5009 18C49.6847 18 47.7101 16.0333 47.7101 10.9152C47.7101 9.35354 47.7858 7.63736 47.7858 6.37773C47.7858 3.60562 47.7353 1.84027 47.6367 0.376953C47.9326 0.402708 48.4257 0.426121 48.772 0.426121C49.093 0.426121 49.4875 0.400366 49.8843 0.376953C49.7123 1.83793 49.5127 5.44355 49.5127 9.20135C49.5127 13.7903 50.1297 16.9675 54.9963 16.9675C58.0328 16.9675 59.5648 15.3801 60.1565 12.8327C60.379 11.8751 60.4042 10.9409 60.4042 9.45422C60.4042 5.72217 60.3308 2.49584 60.1083 0.379294C60.379 0.405049 60.6519 0.428462 60.9225 0.428462C61.145 0.428462 61.5142 0.402708 61.7114 0.379294C61.5876 2.67378 61.5142 5.06894 61.5142 10.1847Z" fill="white"/>
<path id="Vector_5" d="M85.7165 3.22611L85.345 3.27528C84.9001 1.93839 83.3199 0.905873 80.9233 0.905873C76.9969 0.905873 73.9352 3.22611 73.9352 8.92252C73.9352 14.6189 77.2194 16.9134 81.0219 16.9134C83.2947 16.9134 84.923 16.0823 85.9367 14.8975L86.1339 14.9467C86.1087 15.3003 86.0101 16.1314 85.9115 16.4335C85.0216 17.2412 82.9736 17.9459 80.7008 17.9459C75.5659 17.9459 71.8115 14.6166 71.8115 8.89443C71.8115 3.17226 75.6163 0.074707 80.999 0.074707C83.0241 0.074707 84.9253 0.554676 86.2578 1.23366C86.0353 1.8143 85.8862 2.41836 85.7142 3.22611H85.7165Z" fill="white"/>
<path id="Vector_6" d="M92.3835 17.5458C91.7895 17.5458 90.4318 17.595 89.863 17.6207C89.9869 15.6048 90.0603 12.2755 90.0603 10.0068V7.48751C90.0603 5.21878 89.9869 2.39516 89.863 0.376953C90.136 0.402708 90.6038 0.426121 90.9249 0.426121C91.246 0.426121 91.7161 0.400366 91.9867 0.376953C91.8629 2.39282 91.7895 5.21644 91.7895 7.48751V10.0068C91.7895 12.2755 91.8377 15.7804 91.8881 16.6374C94.1861 16.6374 96.8282 16.5367 98.8532 16.2089C98.828 16.5882 98.828 16.8153 98.828 16.9417C98.828 17.0916 98.828 17.2953 98.8532 17.6207C97.1745 17.595 94.482 17.5458 92.3835 17.5458Z" fill="white"/>
<path id="Vector_7" d="M103.101 17.5715C102.754 17.5715 102.286 17.5973 102.016 17.6207C102.14 15.6048 102.213 12.2755 102.213 10.0068V7.48751C102.213 5.21878 102.14 2.39516 102.016 0.376953C102.286 0.402708 102.757 0.426121 103.101 0.426121C103.422 0.426121 103.892 0.400366 104.137 0.376953C104.013 2.39282 103.94 5.21644 103.94 7.48751V10.0068C103.94 12.2497 104.013 15.6048 104.137 17.6207C103.89 17.595 103.422 17.5715 103.101 17.5715Z" fill="white"/>
<path id="Vector_8" d="M122.882 17.6982C121.203 15.5559 115.916 9.63 111.077 4.33629C110.928 4.18411 110.807 4.03426 110.632 3.7814L110.559 3.80716V8.74732C110.559 11.7723 110.706 15.605 110.979 17.6209C110.781 17.5951 110.41 17.5717 110.187 17.5717C109.94 17.5717 109.621 17.5975 109.298 17.6209C109.52 15.605 109.644 11.7723 109.644 8.74732V7.4877C109.644 4.31054 109.593 1.41199 109.545 0.175781H109.816C112.582 3.3787 118.435 9.90627 121.62 13.4112C121.744 13.5634 121.891 13.739 122.04 13.9146L122.088 13.8888V9.2507C122.088 6.22573 121.939 2.393 121.694 0.377134C121.941 0.402888 122.212 0.426302 122.485 0.426302C122.707 0.426302 123.051 0.400547 123.375 0.377134C123.177 2.393 123.054 6.22573 123.054 9.2507V11.2689C123.054 13.8397 123.102 16.2606 123.152 17.6982H122.879H122.882Z" fill="white"/>
<path id="Vector_9" d="M129.526 17.5715C129.179 17.5715 128.711 17.5973 128.438 17.6207C128.562 15.6048 128.636 12.2755 128.636 10.0068V7.48751C128.636 5.21878 128.562 2.39516 128.438 0.376953C128.711 0.402708 129.179 0.426121 129.526 0.426121C129.847 0.426121 130.317 0.400366 130.562 0.376953C130.438 2.39282 130.365 5.21644 130.365 7.48751V10.0068C130.365 12.2497 130.438 15.6048 130.562 17.6207C130.314 17.595 129.847 17.5715 129.526 17.5715Z" fill="white"/>
<path id="Vector_10" d="M148.935 3.22611L148.563 3.27528C148.118 1.93839 146.538 0.905873 144.142 0.905873C140.215 0.905873 137.153 3.22611 137.153 8.92252C137.153 14.6189 140.438 16.9134 144.24 16.9134C146.513 16.9134 148.141 16.0823 149.155 14.8975L149.352 14.9467C149.327 15.3003 149.228 16.1314 149.13 16.4335C148.24 17.2412 146.192 17.9459 143.919 17.9459C138.784 17.9459 135.03 14.6166 135.03 8.89443C135.03 3.17226 138.835 0.074707 144.22 0.074707C146.245 0.074707 148.146 0.554676 149.478 1.23366C149.256 1.8143 149.107 2.41836 148.935 3.22611Z" fill="white"/>
</g>
<defs>
<clipPath id="clip0_126_336">
<rect width="149.478" height="18" fill="white"/>
</clipPath>
</defs>
</svg>
