<svg width="68" height="32" viewBox="0 0 68 32" fill="none" xmlns="http://www.w3.org/2000/svg">
<g id="sosu_wordmark" clip-path="url(#clip0_26_516)">
<path id="Vector" d="M4.66217 19.2487C2.81688 19.2487 0.921387 18.8144 0 18.2997C0.0803389 17.6218 0.271144 16.5373 0.461949 15.6711L0.868665 15.6159C1.3281 17.5139 2.71144 18.2997 4.74502 18.2997C6.96689 18.2997 8.89251 16.9716 8.89251 14.3405C8.89251 12.0358 7.50918 11.1696 5.01616 10.1102C2.84701 9.18877 0.652754 8.21215 0.652754 4.95842C0.650243 2.0612 3.09054 0.0552368 6.31665 0.0552368C7.91589 0.0552368 9.49004 0.489569 10.3286 0.896285C10.085 1.49381 9.8139 2.30473 9.67833 3.09305L9.29923 3.12067C8.92013 1.82018 7.94351 0.979135 6.0455 0.979135C3.98431 0.979135 2.57587 2.2269 2.57587 4.42116C2.57587 6.7535 3.93159 7.51169 5.80198 8.26989C8.72933 9.46242 10.8734 10.439 10.8734 13.6099C10.8734 16.7808 8.16193 19.2487 4.66468 19.2487H4.66217Z" fill="black"/>
<path id="Vector_2" d="M24.1017 19.3567C18.6111 19.3567 14.7849 15.5883 14.7849 9.67833C14.7849 3.7684 18.6111 0 24.1017 0C29.5924 0 33.4461 3.71317 33.4461 9.67833C33.4461 15.6435 29.62 19.3567 24.1017 19.3567ZM24.1017 0.866154C19.9894 0.866154 16.9716 3.74078 16.9716 9.65071C16.9716 15.5606 19.9919 18.4353 24.1017 18.4353C28.2116 18.4353 31.2594 15.4803 31.2594 9.65071C31.2594 3.82112 28.2417 0.868665 24.1017 0.868665V0.866154Z" fill="black"/>
<path id="Vector_3" d="M41.8038 19.2487C39.961 19.2487 38.063 18.8144 37.1416 18.2997C37.2219 17.6218 37.4127 16.5373 37.601 15.6711L38.0078 15.6159C38.4697 17.5139 39.8505 18.2997 41.8841 18.2997C44.106 18.2997 46.0316 16.9716 46.0316 14.3405C46.0316 12.0358 44.6483 11.1696 42.1553 10.1101C39.9861 9.18876 37.7893 8.21214 37.7893 4.95841C37.7893 2.05616 40.2296 0.0502014 43.4557 0.0502014C45.055 0.0502014 46.6291 0.484534 47.4677 0.89125C47.2241 1.48877 46.953 2.29969 46.8174 3.08802L46.4383 3.11563C46.0592 1.81515 45.0826 0.974099 43.1846 0.974099C41.1234 0.974099 39.715 2.22186 39.715 4.41612C39.715 6.74846 41.0707 7.50666 42.9411 8.26486C45.8684 9.45739 48.01 10.434 48.01 13.6049C48.01 16.7758 45.2985 19.2437 41.8013 19.2437L41.8038 19.2487Z" fill="black"/>
<path id="Vector_4" d="M67.5324 10.9537C67.5324 12.1739 67.3969 13.5823 67.0178 14.6669C66.124 17.5139 63.8193 19.3567 59.8325 19.3567C54.5451 19.3567 52.376 17.2428 52.376 11.737C52.376 10.0574 52.4588 8.21215 52.4588 6.85643C52.4588 3.87385 52.4036 1.97584 52.2957 0.404213C52.6195 0.43183 53.1618 0.459446 53.5434 0.459446C53.8949 0.459446 54.3292 0.43183 54.7636 0.404213C54.5728 1.97584 54.3568 5.85471 54.3568 9.89174C54.3568 14.8251 55.0347 18.242 60.3772 18.242C63.7113 18.242 65.3934 16.5348 66.0437 13.7957C66.2872 12.7664 66.3148 11.7621 66.3148 10.1629C66.3148 6.15096 66.2345 2.67881 65.9909 0.401703C66.2897 0.429319 66.5885 0.456936 66.8847 0.456936C67.1282 0.456936 67.5349 0.429319 67.7509 0.401703C67.6153 2.86961 67.5349 5.44297 67.5349 10.9487L67.5324 10.9537Z" fill="black"/>
<path id="Vector_5" d="M22.2012 26.2482L22.0179 26.2683C21.7945 25.6382 21.1668 25.254 20.2128 25.254C18.6713 25.254 17.5239 26.198 17.5239 28.3697C17.5239 30.5413 18.6487 31.4728 20.3032 31.4728C21.1241 31.4728 21.8346 31.1589 22.2514 30.6619L22.3518 30.702C22.3418 30.9154 22.3016 31.2895 22.2614 31.4125C21.8647 31.7163 21.0739 32 20.0797 32C17.8378 32 16.3364 30.702 16.3364 28.3797C16.3364 26.0574 17.8578 24.8097 20.15 24.8097C21.1141 24.8097 21.935 25.0331 22.4522 25.2766C22.3518 25.5302 22.269 25.8641 22.1987 26.2507L22.2012 26.2482Z" fill="black"/>
<path id="Vector_6" d="M25.6908 31.8368C25.4272 31.8368 24.8397 31.8569 24.6062 31.8669C24.6564 31.056 24.6865 29.7154 24.6865 28.804V27.7897C24.6865 26.8759 24.6564 25.7411 24.6062 24.9302C24.7895 24.9402 25.0129 24.9503 25.1937 24.9503C25.3744 24.9503 25.6004 24.9402 25.7812 24.9302C25.7309 25.7411 25.7008 26.8784 25.7008 27.7897V28.804C25.7008 29.7179 25.7209 30.9355 25.741 31.3724C26.5921 31.3724 27.6064 31.3322 28.4499 31.1991C28.4399 31.3724 28.4399 31.4728 28.4399 31.5431C28.4399 31.6033 28.4399 31.7063 28.4499 31.8669C27.629 31.8569 26.5519 31.8368 25.6908 31.8368Z" fill="black"/>
<path id="Vector_7" d="M31.066 31.8469C30.8827 31.8469 30.6593 31.8569 30.4785 31.8669C30.5287 31.056 30.5589 29.7154 30.5589 28.804V27.7897C30.5589 26.8759 30.5287 25.7411 30.4785 24.9302C30.6618 24.9402 30.8852 24.9503 31.066 24.9503C31.2468 24.9503 31.4727 24.9402 31.6535 24.9302C31.6033 25.7411 31.5731 26.8784 31.5731 27.7897V28.804C31.5731 29.7078 31.6033 31.056 31.6535 31.8669C31.4702 31.8569 31.2468 31.8469 31.066 31.8469Z" fill="black"/>
<path id="Vector_8" d="M40.1442 28.5002V29.3111C40.1442 30.3455 40.1643 31.3196 40.1844 31.887H39.6873C38.8563 30.8225 36.9282 28.5806 35.3164 26.8257C35.2461 26.7554 35.1833 26.6625 35.103 26.562L35.0728 26.5721V28.2969C35.0728 29.5145 35.1331 31.056 35.2561 31.8669C35.1231 31.8569 34.9523 31.8468 34.8394 31.8468C34.7264 31.8468 34.5557 31.8569 34.4226 31.8669C34.5029 31.056 34.5557 29.512 34.5557 28.2969V27.7897C34.5557 26.5118 34.5255 25.3444 34.5155 24.8774H35.0628C36.2503 26.3687 38.2487 28.5906 39.4237 29.8685C39.484 29.9288 39.5342 30.0016 39.617 30.0919L39.6371 30.0819V28.4977C39.6371 27.2801 39.5769 25.7386 39.4538 24.9277C39.617 24.9377 39.7576 24.9477 39.8806 24.9477C39.9911 24.9477 40.1643 24.9377 40.2773 24.9277C40.197 25.7386 40.1442 27.2801 40.1442 28.4977V28.5002Z" fill="black"/>
<path id="Vector_9" d="M43.6317 31.8469C43.4484 31.8469 43.225 31.8569 43.0442 31.8669C43.0944 31.056 43.1245 29.7154 43.1245 28.804V27.7897C43.1245 26.8759 43.0944 25.7411 43.0442 24.9302C43.2275 24.9402 43.4509 24.9503 43.6317 24.9503C43.8124 24.9503 44.0384 24.9402 44.2191 24.9302C44.1689 25.7411 44.1388 26.8784 44.1388 27.7897V28.804C44.1388 29.7078 44.1689 31.056 44.2191 31.8669C44.0359 31.8569 43.8124 31.8469 43.6317 31.8469Z" fill="black"/>
<path id="Vector_10" d="M52.5869 26.2482L52.4036 26.2683C52.1802 25.6382 51.5525 25.254 50.5985 25.254C49.057 25.254 47.9097 26.198 47.9097 28.3697C47.9097 30.5413 49.0344 31.4728 50.6889 31.4728C51.5099 31.4728 52.2204 31.1589 52.6371 30.6619L52.7375 30.702C52.7275 30.9154 52.6873 31.2895 52.6472 31.4125C52.2505 31.7163 51.4597 32 50.4655 32C48.2235 32 46.7222 30.702 46.7222 28.3797C46.7222 26.0574 48.2436 24.8097 50.5358 24.8097C51.4998 24.8097 52.3208 25.0331 52.838 25.2766C52.7375 25.5302 52.6547 25.8641 52.5844 26.2507L52.5869 26.2482Z" fill="black"/>
</g>
<defs>
<clipPath id="clip0_26_516">
<rect width="67.7508" height="32" fill="white"/>
</clipPath>
</defs>
</svg>
