<svg width="57" height="52" viewBox="0 0 57 52" fill="none" xmlns="http://www.w3.org/2000/svg">
<g id="Group 317">
<path id="Vector" d="M56.5 26.8939L0.5 28.259V28.8828H56.5V26.8939Z" fill="white"/>
<path id="Vector_2" d="M56.5 31.5095L0.5 32.8746V33.4984H56.5V31.5095Z" fill="white"/>
<path id="Vector_3" d="M56.5 36.125L0.5 37.4901V38.1139H56.5V36.125Z" fill="white"/>
<path id="Vector_4" d="M56.5 40.7406L0.5 42.1057V42.7295H56.5V40.7406Z" fill="white"/>
<path id="Vector_5" d="M56.5 45.3562L0.5 46.7213V47.3451H56.5V45.3562Z" fill="white"/>
<path id="Vector_6" d="M56.5 49.9718L0.5 51.3369V51.9607H56.5V49.9718Z" fill="white"/>
<path id="Vector_7" d="M0.5 2.02843L56.5 0.663339V0.0395355H0.5V2.02843Z" fill="white"/>
<path id="Vector_8" d="M0.5 6.64402L56.5 5.27892V4.65512H0.5V6.64402Z" fill="white"/>
<path id="Vector_9" d="M0.5 11.2596L56.5 9.89452V9.27071H0.5V11.2596Z" fill="white"/>
<path id="Vector_10" d="M0.5 15.8752L56.5 14.5101V13.8863H0.5V15.8752Z" fill="white"/>
<path id="Vector_11" d="M0.5 20.4908L56.5 19.1257V18.5019H0.5V20.4908Z" fill="white"/>
<path id="Vector_12" d="M0.5 25.1064L56.5 23.7413V23.1175H0.5V25.1064Z" fill="white"/>
</g>
</svg>
