<svg width="220" height="206" viewBox="0 0 220 206" fill="none" xmlns="http://www.w3.org/2000/svg">
<g id="Group 317">
<path id="Vector" d="M220 106.344L0 111.75V114.22H220V106.344Z" fill="black"/>
<path id="Vector_2" d="M220 124.622L0 130.028V132.498H220V124.622Z" fill="black"/>
<path id="Vector_3" d="M220 142.9L0 148.306V150.776H220V142.9Z" fill="black"/>
<path id="Vector_4" d="M220 161.178L0 166.584V169.054H220V161.178Z" fill="black"/>
<path id="Vector_5" d="M220 179.456L0 184.862V187.332H220V179.456Z" fill="black"/>
<path id="Vector_6" d="M220 197.734L0 203.14V205.61H220V197.734Z" fill="black"/>
<path id="Vector_7" d="M0 7.87612L220 2.47029V0H0V7.87612Z" fill="black"/>
<path id="Vector_8" d="M0 26.154L220 20.7482V18.2779H0V26.154Z" fill="black"/>
<path id="Vector_9" d="M0 44.432L220 39.0261V36.5558H0V44.432Z" fill="black"/>
<path id="Vector_10" d="M0 62.7099L220 57.3041V54.8338H0V62.7099Z" fill="black"/>
<path id="Vector_11" d="M0 80.9878L220 75.582V73.1117H0V80.9878Z" fill="black"/>
<path id="Vector_12" d="M0 99.2657L220 93.8599V91.3896H0V99.2657Z" fill="black"/>
</g>
</svg>
