<svg width="15" height="18" viewBox="0 0 15 18" fill="none" xmlns="http://www.w3.org/2000/svg">
<path id="TikTok" d="M11.1394 1.14669L10.7292 0.5H8.24718V6.32447L8.23872 12.0137C8.24295 12.0559 8.24718 12.1024 8.24718 12.1447C8.24718 13.5691 7.08861 14.7315 5.65942 14.7315C4.23024 14.7315 3.07167 13.5733 3.07167 12.1447C3.07167 10.7203 4.23024 9.55793 5.65942 9.55793C5.95541 9.55793 6.24294 9.61288 6.50932 9.70587V6.86549C6.23448 6.819 5.95118 6.79363 5.65942 6.79363C2.71226 6.79786 0.310547 9.19866 0.310547 12.1489C0.310547 15.0992 2.71226 17.5 5.66365 17.5C8.61505 17.5 11.0168 15.0992 11.0168 12.1489V5.3819C12.0865 6.45127 13.4692 7.49528 14.9999 7.82919V4.92541C13.3381 4.18995 11.6848 2.0174 11.1394 1.14669Z" fill="black"/>
</svg>
