<svg width="116" height="116" viewBox="0 0 116 116" fill="none" xmlns="http://www.w3.org/2000/svg">
<path id="Vector" d="M38 73C35.6667 73 33.6944 72.1945 32.0833 70.5833C30.4722 68.9722 29.6667 67 29.6667 64.6667C29.6667 62.3333 30.4722 60.3611 32.0833 58.75C33.6944 57.1389 35.6667 56.3333 38 56.3333C40.3333 56.3333 42.3056 57.1389 43.9167 58.75C45.5278 60.3611 46.3333 62.3333 46.3333 64.6667C46.3333 67 45.5278 68.9722 43.9167 70.5833C42.3056 72.1945 40.3333 73 38 73ZM78 73C75.6667 73 73.6945 72.1945 72.0833 70.5833C70.4722 68.9722 69.6667 67 69.6667 64.6667C69.6667 62.3333 70.4722 60.3611 72.0833 58.75C73.6945 57.1389 75.6667 56.3333 78 56.3333C80.3333 56.3333 82.3056 57.1389 83.9167 58.75C85.5278 60.3611 86.3333 62.3333 86.3333 64.6667C86.3333 67 85.5278 68.9722 83.9167 70.5833C82.3056 72.1945 80.3333 73 78 73ZM58 111.333C72.8889 111.333 85.5 106.167 95.8333 95.8333C106.167 85.5 111.333 72.8889 111.333 58C111.333 55.3333 111.167 52.75 110.833 50.25C110.5 47.75 109.889 45.3333 109 43C106.667 43.5556 104.333 43.9722 102 44.25C99.6667 44.5278 97.2222 44.6667 94.6667 44.6667C84.5556 44.6667 75 42.5 66 38.1667C57 33.8333 49.3333 27.7778 43 20C39.4444 28.6667 34.3611 36.1944 27.75 42.5833C21.1389 48.9722 13.4444 53.7778 4.66667 57V58C4.66667 72.8889 9.83333 85.5 20.1667 95.8333C30.5 106.167 43.1111 111.333 58 111.333ZM58.029 116C50.0097 116 42.469 114.478 35.407 111.435C28.3449 108.391 22.2018 104.261 16.9778 99.0435C11.7539 93.8261 7.61833 87.6908 4.571 80.6377C1.52367 73.5846 0 66.0483 0 58.029C0 50.0097 1.52172 42.469 4.56517 35.407C7.60872 28.3449 11.7392 22.2019 16.9565 16.978C22.1739 11.754 28.3092 7.61834 35.3623 4.571C42.4154 1.52367 49.9517 0 57.971 0C65.9903 0 73.531 1.52172 80.593 4.56517C87.6551 7.60872 93.7981 11.7392 99.022 16.9565C104.246 22.1739 108.382 28.3092 111.429 35.3623C114.476 42.4154 116 49.9517 116 57.971C116 65.9903 114.478 73.531 111.435 80.593C108.391 87.6551 104.261 93.7982 99.0435 99.0222C93.8261 104.246 87.6908 108.382 80.6377 111.429C73.5846 114.476 66.0483 116 58.029 116ZM40.8333 7.16667C46.5 18.9444 54.5833 27.3611 65.0833 32.4167C75.5833 37.4722 85.4445 40 94.6667 40C96.8889 40 99.0833 39.8889 101.25 39.6667C103.417 39.4444 105.556 39.0556 107.667 38.5C103.556 27.9444 96.9167 19.6667 87.75 13.6667C78.5833 7.66667 68.6667 4.66667 58 4.66667C54.6667 4.66667 51.6389 4.86111 48.9167 5.25C46.1944 5.63889 43.5 6.27778 40.8333 7.16667ZM5 51.8333C12.2222 48.8333 19.7778 43.5833 27.6667 36.0833C35.5556 28.5833 39.9444 18.9444 40.8333 7.16667C30.9444 10.6111 22.8333 16.3056 16.5 24.25C10.1667 32.1944 6.33333 41.3889 5 51.8333Z" fill="black"/>
</svg>
