<svg width="90" height="104" viewBox="0 0 90 104" fill="none" xmlns="http://www.w3.org/2000/svg">
<g id="_?&#235;&#141;&#137;&#236;&#148;&#160;??1" clip-path="url(#clip0_445_14016)">
<path id="Vector" d="M6.0957 59.4351C6.0957 59.4351 11.7257 59.5851 12.8657 61.2051" stroke="black" stroke-width="2" stroke-linecap="round" stroke-linejoin="round"/>
<path id="Vector_2" d="M84.2056 59.4351C84.2056 59.4351 78.5755 59.5851 77.4355 61.2051" stroke="black" stroke-width="2" stroke-linecap="round" stroke-linejoin="round"/>
<path id="Vector_3" d="M48.0452 10.2646C63.9652 10.2646 76.9152 25.9346 76.9452 45.2046L75.9452 61.0646C75.9452 61.0646 75.9452 61.1446 75.9452 61.1946C75.9452 70.4547 74.3052 92.3546 59.1052 95.7846C58.9152 95.8246 58.7352 95.8947 58.5652 95.9947L51.0052 100.235C49.1452 101.275 47.1752 101.805 45.1352 101.805C43.0952 101.805 41.1252 101.275 39.2652 100.235L31.7052 95.9947C31.5452 95.9047 31.3852 95.8447 31.2052 95.7946C18.7452 92.7047 14.3252 75.2246 14.3252 61.1946C14.3252 61.1546 14.3252 61.1146 14.3252 61.0646L13.3252 45.2046C13.3552 25.9346 26.3052 10.2646 42.2252 10.2646H48.0252M48.0252 8.26465H42.2252C25.1652 8.26465 11.3252 24.8347 11.3252 45.2747L12.3252 61.2046C12.3252 76.8546 17.3252 94.4247 30.7252 97.7447L38.2852 101.985C40.4552 103.205 42.7952 103.815 45.1352 103.815C47.4752 103.815 49.8152 103.205 51.9852 101.985L59.5452 97.7447C73.6952 94.5546 77.9452 76.8646 77.9452 61.2046L78.9452 45.2747C78.9452 24.8347 65.1152 8.26465 48.0452 8.26465H48.0252Z" fill="black"/>
<path id="Vector_4" d="M12.8652 51.6248C12.8652 32.9948 26.0752 17.8848 42.3752 17.8848H47.9152C64.2152 17.8848 77.4252 32.9948 77.4252 51.6248" stroke="black" stroke-width="2" stroke-linecap="round" stroke-linejoin="round"/>
<path id="Vector_5" d="M9.20505 52.325C4.31505 35.945 8.01505 3.705 37.105 1.365C39.875 1.145 50.3851 1.145 53.1451 1.355C83.275 3.625 84.595 37.015 80.845 52.325" stroke="black" stroke-width="2" stroke-linecap="round" stroke-linejoin="round"/>
<path id="Vector_6" d="M13.4253 74.385C7.06527 74.385 1.90527 68.865 1.90527 62.045V59.615C1.90527 56.005 4.63527 53.085 8.00527 53.085H12.5853" stroke="black" stroke-width="2" stroke-linecap="round" stroke-linejoin="round"/>
<path id="Vector_7" d="M76.5752 74.385C82.9352 74.385 88.0952 68.865 88.0952 62.045V59.615C88.0952 56.005 85.3652 53.085 81.9952 53.085H77.4152" stroke="black" stroke-width="2" stroke-linecap="round" stroke-linejoin="round"/>
<g id="Group">
<path id="Vector_8" d="M36.0755 76.605C36.0755 76.605 33.9155 82.615 30.6855 85.215" stroke="#B4B0AA" stroke-width="2" stroke-miterlimit="10" stroke-linecap="round"/>
<path id="Vector_9" d="M54.2256 76.605C54.2256 76.605 56.3856 82.615 59.6156 85.215" stroke="#B4B0AA" stroke-width="2" stroke-miterlimit="10" stroke-linecap="round"/>
</g>
<g id="Group_2">
<path id="Vector_10" d="M17.9355 54.835C17.9355 54.835 21.2255 55.745 22.5655 55.225" stroke="#B4B0AA" stroke-width="2" stroke-miterlimit="10" stroke-linecap="round"/>
<path id="Vector_11" d="M19.0957 59.4348C19.0957 59.4348 21.7857 59.5648 22.5657 58.6548" stroke="#B4B0AA" stroke-width="2" stroke-miterlimit="10" stroke-linecap="round"/>
</g>
<g id="Group_3">
<path id="Vector_12" d="M71.965 54.835C71.965 54.835 68.675 55.745 67.335 55.225" stroke="#B4B0AA" stroke-width="2" stroke-miterlimit="10" stroke-linecap="round"/>
<path id="Vector_13" d="M70.805 59.4348C70.805 59.4348 68.115 59.5648 67.335 58.6548" stroke="#B4B0AA" stroke-width="2" stroke-miterlimit="10" stroke-linecap="round"/>
</g>
</g>
<defs>
<clipPath id="clip0_445_14016">
<rect width="88.19" height="103.61" fill="white" transform="translate(0.905273 0.194824)"/>
</clipPath>
</defs>
</svg>
