<svg width="102" height="104" viewBox="0 0 102 104" fill="none" xmlns="http://www.w3.org/2000/svg">
<g id="_?&#235;&#141;&#137;&#236;&#148;&#160;??1" clip-path="url(#clip0_446_4577)">
<path id="Vector" d="M34.0106 56.3651C32.0906 57.8151 29.3106 58.6551 26.1906 58.2451C23.0706 57.8351 20.7106 56.8451 19.3906 54.4851" stroke="black" stroke-width="2" stroke-linecap="round" stroke-linejoin="round"/>
<path id="Vector_2" d="M54.4707 56.3651C56.3907 57.8151 59.1707 58.6551 62.2907 58.2451C65.4107 57.8351 67.7707 56.8451 69.0907 54.4851" stroke="black" stroke-width="2" stroke-linecap="round" stroke-linejoin="round"/>
<path id="Vector_3" d="M70.5107 46.395C68.2107 45.285 64.8907 44.645 61.1707 44.965C57.4507 45.285 54.7107 45.825 52.7607 47.295" stroke="black" stroke-width="2" stroke-linecap="round" stroke-linejoin="round"/>
<path id="Vector_4" d="M17.9707 46.395C20.2707 45.285 23.5907 44.645 27.3107 44.965C31.0307 45.285 33.8907 46.475 35.8507 47.835" stroke="black" stroke-width="2" stroke-linecap="round" stroke-linejoin="round"/>
<path id="Vector_5" d="M52.7601 47.2952C52.7601 47.2952 41.9101 53.0652 49.1101 70.6352L45.6201 73.8552" stroke="black" stroke-width="2" stroke-linecap="round" stroke-linejoin="round"/>
<path id="Vector_6" d="M36.3105 82.125C36.3105 82.125 38.8105 83.065 41.2805 82.085C42.7005 81.515 43.2705 81.455 44.6805 82.085C46.0905 82.715 46.4305 81.065 48.9305 82.085C50.6805 82.805 52.6705 82.775 54.3905 82.195C54.3905 82.195 52.8105 90.715 39.6205 87.225" stroke="black" stroke-width="2" stroke-linecap="round" stroke-linejoin="round"/>
<path id="Vector_7" d="M5.4707 59.4351C5.4707 59.4351 11.1007 59.5851 12.2407 61.2051" stroke="black" stroke-width="2" stroke-linecap="round" stroke-linejoin="round"/>
<path id="Vector_8" d="M83.5806 59.4351C83.5806 59.4351 77.9505 59.5851 76.8105 61.2051" stroke="black" stroke-width="2" stroke-linecap="round" stroke-linejoin="round"/>
<path id="Vector_9" d="M88.43 34.885H95.27L87.96 44.915H95.27" stroke="black" stroke-width="2" stroke-linecap="round" stroke-linejoin="round"/>
<path id="Vector_10" d="M93.8802 16.2651H100.72L93.4102 26.2851H100.72" stroke="black" stroke-width="2" stroke-linecap="round" stroke-linejoin="round"/>
<path id="Vector_11" d="M47.4207 10.2651C63.3407 10.2651 76.2907 25.9351 76.3207 45.2051L75.3207 61.0651C75.3207 61.0651 75.3207 61.1451 75.3207 61.1951C75.3207 76.6451 68.6607 89.9751 57.9507 95.9851L50.3907 100.225C48.5307 101.265 46.5607 101.795 44.5207 101.795C42.4807 101.795 40.5107 101.265 38.6507 100.225L31.0907 95.9851C20.3707 89.9751 13.7207 76.6351 13.7207 61.1951C13.7207 61.1551 13.7207 61.1151 13.7207 61.0651L12.7207 45.2051C12.7507 25.9351 25.7007 10.2651 41.6207 10.2651H47.4207ZM47.4207 8.26514H41.6207C24.5607 8.26514 10.7207 24.8351 10.7207 45.2751L11.7207 61.2051C11.7207 76.8551 18.2807 91.1051 30.1207 97.7451L37.6807 101.985C39.8507 103.205 42.1907 103.815 44.5307 103.815C46.8707 103.815 49.2107 103.205 51.3807 101.985L58.9407 97.7451C70.7807 91.1051 77.3407 76.8651 77.3407 61.2051L78.3407 45.2751C78.3407 24.8351 64.5107 8.26514 47.4407 8.26514H47.4207Z" fill="black"/>
<path id="Vector_12" d="M12.2402 51.625C12.2402 32.995 25.4502 17.885 41.7502 17.885H47.2902C63.5902 17.885 76.8002 32.995 76.8002 51.625" stroke="black" stroke-width="2" stroke-linecap="round" stroke-linejoin="round"/>
<path id="Vector_13" d="M8.58005 52.325C3.69005 35.945 7.39005 3.705 36.48 1.365C39.25 1.145 49.7601 1.145 52.5201 1.355C82.65 3.625 83.97 37.015 80.22 52.325" stroke="black" stroke-width="2" stroke-linecap="round" stroke-linejoin="round"/>
<path id="Vector_14" d="M12.8003 74.385C6.44027 74.385 1.28027 68.865 1.28027 62.045V59.615C1.28027 56.005 4.01027 53.085 7.38027 53.085H11.9603" stroke="black" stroke-width="2" stroke-linecap="round" stroke-linejoin="round"/>
<path id="Vector_15" d="M75.9502 74.385C82.3102 74.385 87.4702 68.865 87.4702 62.045V59.615C87.4702 56.005 84.7402 53.085 81.3702 53.085H76.7902" stroke="black" stroke-width="2" stroke-linecap="round" stroke-linejoin="round"/>
</g>
<defs>
<clipPath id="clip0_446_4577">
<rect width="101.44" height="103.61" fill="white" transform="translate(0.280273 0.195068)"/>
</clipPath>
</defs>
</svg>
