<svg width="106" height="106" viewBox="0 0 106 106" fill="none" xmlns="http://www.w3.org/2000/svg">
<g id="_?&#235;&#141;&#137;&#236;&#148;&#160;??1" clip-path="url(#clip0_446_4558)">
<g id="Group">
<path id="Vector" d="M35.5648 10.2351C35.7148 10.2351 36.0148 10.2751 36.2748 10.5251L83.8148 58.0651L58.0648 83.8151L10.5248 36.2751C10.1348 35.8851 10.1348 35.2551 10.5248 34.8651L34.8648 10.5251C35.1148 10.2751 35.4148 10.2351 35.5748 10.2351M35.5748 8.23511C34.8048 8.23511 34.0348 8.52511 33.4548 9.11511L9.1148 33.4451C7.9448 34.6151 7.9448 36.5151 9.1148 37.6851L58.0648 86.6351L86.6448 58.0551L37.6848 9.11511C37.0948 8.52511 36.3348 8.23511 35.5648 8.23511H35.5748Z" fill="black"/>
<path id="Vector_2" d="M99.6254 74.2949C99.7754 74.2949 100.075 74.3349 100.335 74.5849L103.595 77.8449C103.985 78.2349 103.985 78.8649 103.595 79.2549L79.2654 103.585C79.0154 103.835 78.7154 103.875 78.5554 103.875C78.3954 103.875 78.1054 103.835 77.8454 103.585L74.5854 100.325C74.1954 99.9349 74.1954 99.3049 74.5854 98.9149L98.9154 74.5849C99.1654 74.3349 99.4654 74.2949 99.6254 74.2949ZM99.6254 72.2949C98.8554 72.2949 98.0854 72.5849 97.5054 73.1749L73.1754 97.5049C72.0054 98.6749 72.0054 100.575 73.1754 101.745L76.4354 105.005C77.0254 105.595 77.7854 105.885 78.5554 105.885C79.3254 105.885 80.0954 105.595 80.6754 105.005L105.005 80.6749C106.175 79.5049 106.175 77.6049 105.005 76.4349L101.745 73.1749C101.155 72.5849 100.395 72.2949 99.6254 72.2949Z" fill="black"/>
<path id="Vector_3" d="M85.4648 71.465L92.2248 78.225L78.2248 92.225L71.4648 85.465L85.4648 71.465ZM85.4648 68.635L68.6348 85.465L78.2248 95.055L95.0548 78.225L85.4648 68.635Z" fill="black"/>
<path id="Vector_4" d="M23.6254 10.0349C23.7754 10.0349 24.0753 10.0749 24.3354 10.3249L28.2954 14.2849L14.2954 28.2849L10.3354 24.3249C9.94535 23.9349 9.94535 23.3049 10.3354 22.9149L22.9254 10.3249C23.1754 10.0749 23.4754 10.0349 23.6354 10.0349M23.6354 8.0349C22.8654 8.0349 22.0954 8.3249 21.5154 8.9149L8.92535 21.5049C7.75535 22.6749 7.75535 24.5749 8.92535 25.7449L14.3054 31.1249L31.1254 14.2849L25.7453 8.9049C25.1553 8.3149 24.3954 8.0249 23.6254 8.0249L23.6354 8.0349Z" fill="black"/>
<path id="Vector_5" d="M90.0052 54.885C90.1552 54.885 90.4552 54.925 90.7152 55.175L93.9752 58.435C94.3652 58.825 94.3652 59.455 93.9752 59.845L59.8552 93.965C59.6052 94.215 59.3052 94.255 59.1452 94.255C58.9852 94.255 58.6952 94.215 58.4352 93.965L55.1752 90.705C54.9252 90.455 54.8852 90.155 54.8852 89.995C54.8852 89.835 54.9252 89.545 55.1752 89.285L89.2952 55.165C89.5452 54.915 89.8452 54.875 90.0052 54.875M90.0052 52.875C89.2352 52.875 88.4652 53.165 87.8852 53.755L53.7652 87.875C52.5952 89.045 52.5952 90.945 53.7652 92.115L57.0252 95.375C57.6152 95.965 58.3752 96.255 59.1452 96.255C59.9152 96.255 60.6852 95.965 61.2652 95.375L95.3852 61.255C96.5552 60.085 96.5552 58.185 95.3852 57.015L92.1252 53.755C91.5352 53.165 90.7752 52.875 90.0052 52.875Z" fill="black"/>
<path id="Vector_6" d="M34.7654 51.3049L29.7754 56.2949" stroke="black" stroke-width="2" stroke-miterlimit="10" stroke-linecap="round"/>
<path id="Vector_7" d="M28.7957 45.335L23.8057 50.325" stroke="black" stroke-width="2" stroke-miterlimit="10" stroke-linecap="round"/>
<path id="Vector_8" d="M22.825 39.365L17.835 44.355" stroke="black" stroke-width="2" stroke-miterlimit="10" stroke-linecap="round"/>
<path id="Vector_9" d="M52.5457 69.085L47.5557 74.075" stroke="black" stroke-width="2" stroke-miterlimit="10" stroke-linecap="round"/>
<path id="Vector_10" d="M46.575 63.115L41.585 68.105" stroke="black" stroke-width="2" stroke-miterlimit="10" stroke-linecap="round"/>
<path id="Vector_11" d="M40.6052 57.145L35.6152 62.135" stroke="black" stroke-width="2" stroke-miterlimit="10" stroke-linecap="round"/>
<path id="Vector_12" d="M15.7952 15.795L1.11523 1.11499" stroke="black" stroke-width="2" stroke-miterlimit="10" stroke-linecap="round"/>
</g>
<path id="Vector_13" fill-rule="evenodd" clip-rule="evenodd" d="M19.6251 103.115C19.2551 103.115 18.8851 103.105 18.5251 103.075C7.83506 102.355 1.77506 90.365 6.95506 80.985L19.6151 58.075L32.2751 80.985C37.4651 90.365 31.4051 102.355 20.7051 103.075C20.3451 103.095 19.9751 103.115 19.6051 103.115H19.6251Z" stroke="black" stroke-width="2" stroke-miterlimit="10" stroke-linecap="round"/>
</g>
<defs>
<clipPath id="clip0_446_4558">
<rect width="105.77" height="105.77" fill="white" transform="translate(0.115234 0.11499)"/>
</clipPath>
</defs>
</svg>
