<svg width="92" height="104" viewBox="0 0 92 104" fill="none" xmlns="http://www.w3.org/2000/svg">
<g id="_?&#235;&#141;&#137;&#236;&#148;&#160;??1" clip-path="url(#clip0_445_14117)">
<g id="Group">
<g id="Group_2">
<path id="Vector" d="M20.1602 66.9448C19.6202 66.9448 19.1702 66.5148 19.1602 65.9648C19.1602 65.6148 19.1602 65.4248 19.1602 65.4248C19.1702 64.8748 19.6002 64.4448 20.1802 64.4448C20.7302 64.4448 21.1702 64.9048 21.1602 65.4648C21.1602 65.4748 21.1602 65.6348 21.1602 65.9248C21.1702 66.4748 20.7402 66.9348 20.1802 66.9448H20.1602Z" fill="#B4B0AA"/>
<path id="Vector_2" d="M32.2704 95.4146C32.0304 95.4146 31.7804 95.3246 31.5904 95.1446C31.3204 94.8946 31.0604 94.6446 30.8004 94.3946C30.4104 94.0046 30.4004 93.3746 30.8004 92.9846C31.1904 92.5946 31.8204 92.5846 32.2104 92.9846C32.4504 93.2246 32.7004 93.4546 32.9504 93.6946C33.3604 94.0746 33.3804 94.7046 33.0004 95.1046C32.8004 95.3146 32.5304 95.4246 32.2704 95.4246V95.4146ZM28.0504 90.6846C27.7404 90.6846 27.4404 90.5446 27.2504 90.2846C27.0304 89.9946 26.8204 89.6946 26.6204 89.3946C26.3104 88.9446 26.4204 88.3146 26.8704 88.0046C27.3204 87.6946 27.9504 87.8046 28.2604 88.2546C28.4504 88.5346 28.6504 88.8146 28.8604 89.0846C29.1904 89.5246 29.1004 90.1546 28.6504 90.4846C28.4704 90.6146 28.2604 90.6846 28.0604 90.6846H28.0504ZM24.7504 85.2746C24.3804 85.2746 24.0304 85.0746 23.8504 84.7246C23.6904 84.3946 23.5304 84.0746 23.3804 83.7446C23.1504 83.2446 23.3604 82.6446 23.8604 82.4146C24.3604 82.1846 24.9504 82.3946 25.1904 82.8946C25.3304 83.2046 25.4804 83.5146 25.6404 83.8246C25.8904 84.3146 25.6804 84.9246 25.1904 85.1646C25.0504 85.2346 24.8904 85.2646 24.7504 85.2646V85.2746ZM22.3604 79.4046C21.9404 79.4046 21.5504 79.1346 21.4104 78.7146C21.3004 78.3646 21.1904 78.0246 21.0904 77.6846C20.9304 77.1546 21.2304 76.5946 21.7604 76.4446C22.2904 76.2846 22.8504 76.5846 23.0004 77.1146C23.1004 77.4446 23.2004 77.7746 23.3104 78.1046C23.4804 78.6346 23.1904 79.1946 22.6704 79.3646C22.5704 79.3946 22.4604 79.4146 22.3604 79.4146V79.4046ZM20.8304 73.2446C20.3504 73.2446 19.9304 72.9046 19.8504 72.4246C19.7804 72.0546 19.7304 71.7046 19.6704 71.3646C19.5804 70.8146 19.9604 70.3046 20.5004 70.2246C21.0504 70.1346 21.5604 70.5146 21.6404 71.0546C21.6904 71.3846 21.7504 71.7246 21.8104 72.0746C21.9104 72.6146 21.5404 73.1346 21.0004 73.2346C20.9404 73.2446 20.8804 73.2546 20.8204 73.2546L20.8304 73.2446Z" fill="#B4B0AA"/>
<path id="Vector_3" d="M36.8506 98.9547C36.6706 98.9547 36.4806 98.9047 36.3106 98.7947L35.8806 98.5147C35.4206 98.2047 35.2906 97.5847 35.6006 97.1247C35.9006 96.6647 36.5306 96.5347 36.9906 96.8447L37.4006 97.1147C37.8706 97.4147 38.0006 98.0347 37.7006 98.4947C37.5106 98.7947 37.1906 98.9547 36.8606 98.9547H36.8506Z" fill="#B4B0AA"/>
</g>
<g id="Group_3">
<path id="Vector_4" d="M71.84 66.9448H71.82C71.27 66.9348 70.83 66.4748 70.84 65.9248C70.84 65.6348 70.84 65.4748 70.84 65.4648C70.84 64.9148 71.27 64.4548 71.82 64.4448C72.37 64.4548 72.83 64.8748 72.84 65.4248C72.84 65.4248 72.84 65.6148 72.84 65.9648C72.83 66.5048 72.38 66.9448 71.84 66.9448Z" fill="#B4B0AA"/>
<path id="Vector_5" d="M59.7297 95.4147C59.4597 95.4147 59.1897 95.3047 58.9997 95.0947C58.6197 94.6847 58.6497 94.0547 59.0497 93.6847C59.2997 93.4547 59.5497 93.2147 59.7897 92.9747C60.1797 92.5847 60.8197 92.5947 61.1997 92.9747C61.5897 93.3647 61.5797 94.0047 61.1997 94.3847C60.9397 94.6347 60.6797 94.8847 60.4097 95.1347C60.2197 95.3147 59.9697 95.4047 59.7297 95.4047V95.4147ZM63.9497 90.6847C63.7397 90.6847 63.5297 90.6247 63.3597 90.4847C62.9197 90.1547 62.8197 89.5247 63.1497 89.0847C63.3497 88.8047 63.5497 88.5347 63.7497 88.2547C64.0597 87.7947 64.6897 87.6847 65.1397 88.0047C65.5897 88.3147 65.7097 88.9447 65.3897 89.3947C65.1797 89.6947 64.9697 89.9847 64.7597 90.2847C64.5597 90.5447 64.2597 90.6847 63.9597 90.6847H63.9497ZM67.2497 85.2747C67.0997 85.2747 66.9497 85.2447 66.8097 85.1747C66.3197 84.9247 66.1097 84.3247 66.3597 83.8347C66.5097 83.5247 66.6597 83.2147 66.8097 82.9047C67.0397 82.4047 67.6397 82.1847 68.1397 82.4247C68.6397 82.6547 68.8597 83.2547 68.6197 83.7547C68.4697 84.0747 68.3097 84.4047 68.1497 84.7347C67.9797 85.0847 67.6197 85.2847 67.2497 85.2847V85.2747ZM69.6397 79.4047C69.5397 79.4047 69.4297 79.3847 69.3297 79.3547C68.7997 79.1847 68.5197 78.6247 68.6897 78.0947C68.7997 77.7647 68.8997 77.4347 68.9997 77.1047C69.1597 76.5747 69.7097 76.2747 70.2397 76.4347C70.7697 76.5947 71.0697 77.1447 70.9097 77.6747C70.8097 78.0147 70.6997 78.3647 70.5897 78.7047C70.4497 79.1247 70.0597 79.3947 69.6397 79.3947V79.4047ZM71.1697 73.2447C71.1097 73.2447 71.0497 73.2447 70.9897 73.2247C70.4497 73.1247 70.0797 72.6047 70.1797 72.0647C70.2397 71.7147 70.2997 71.3747 70.3497 71.0447C70.4397 70.4947 70.9497 70.1247 71.4897 70.2147C72.0397 70.3047 72.4097 70.8147 72.3197 71.3547C72.2697 71.6947 72.2097 72.0547 72.1397 72.4147C72.0497 72.8947 71.6297 73.2347 71.1597 73.2347L71.1697 73.2447Z" fill="#B4B0AA"/>
<path id="Vector_6" d="M55.1499 98.9547C54.8199 98.9547 54.4999 98.7947 54.3099 98.4947C54.0099 98.0347 54.1499 97.4147 54.6099 97.1147L55.0199 96.8447C55.4799 96.5447 56.0999 96.6647 56.4099 97.1247C56.7099 97.5847 56.5899 98.2047 56.1299 98.5147L55.6999 98.7947C55.5299 98.9047 55.3499 98.9547 55.1599 98.9547H55.1499Z" fill="#B4B0AA"/>
</g>
</g>
<path id="Vector_7" d="M6.93945 59.4351C6.93945 59.4351 12.5695 59.5851 13.7095 61.2051" stroke="black" stroke-width="2" stroke-linecap="round" stroke-linejoin="round"/>
<path id="Vector_8" d="M85.06 59.4351C85.06 59.4351 79.43 59.5851 78.29 61.2051" stroke="black" stroke-width="2" stroke-linecap="round" stroke-linejoin="round"/>
<path id="Vector_9" d="M48.9002 10.2646C64.8202 10.2646 77.7702 25.9346 77.8002 45.2046L76.8002 61.0646C76.8002 61.0646 76.8002 61.1446 76.8002 61.1946C76.8002 76.6446 70.1402 89.9746 59.4302 95.9846L51.8702 100.225C50.0102 101.265 48.0402 101.795 46.0002 101.795C43.9602 101.795 41.9902 101.265 40.1302 100.225L32.5702 95.9846C21.8502 89.9746 15.2002 76.6347 15.2002 61.1946C15.2002 61.1546 15.2002 61.1146 15.2002 61.0646L14.2002 45.2046C14.2302 25.9346 27.1802 10.2646 43.1002 10.2646H48.9002ZM48.9002 8.26465H43.1002C26.0402 8.26465 12.2002 24.8347 12.2002 45.2747L13.2002 61.2046C13.2002 76.8546 19.7602 91.1047 31.6002 97.7447L39.1602 101.985C41.3302 103.205 43.6702 103.815 46.0102 103.815C48.3502 103.815 50.6902 103.205 52.8602 101.985L60.4202 97.7447C72.2602 91.1047 78.8202 76.8646 78.8202 61.2046L79.8202 45.2747C79.8202 24.8347 65.9902 8.26465 48.9202 8.26465H48.9002Z" fill="black"/>
<path id="Vector_10" d="M13.7197 51.6248C13.7197 32.9948 26.9297 17.8848 43.2297 17.8848H48.7697C65.0697 17.8848 78.2797 32.9948 78.2797 51.6248" stroke="black" stroke-width="2" stroke-linecap="round" stroke-linejoin="round"/>
<path id="Vector_11" d="M10.0495 52.325C5.15951 35.945 8.86951 3.705 37.9495 1.365C40.7195 1.145 51.2295 1.145 53.9895 1.355C84.1195 3.625 85.4395 37.015 81.6895 52.325" stroke="black" stroke-width="2" stroke-linecap="round" stroke-linejoin="round"/>
<path id="Vector_12" d="M14.2798 74.385C7.91976 74.385 2.75977 68.865 2.75977 62.045V59.615C2.75977 56.005 5.48977 53.085 8.85977 53.085H13.4398" stroke="black" stroke-width="2" stroke-linecap="round" stroke-linejoin="round"/>
<path id="Vector_13" d="M77.4297 74.385C83.7897 74.385 88.9497 68.865 88.9497 62.045V59.615C88.9497 56.005 86.2197 53.085 82.8497 53.085H78.2697" stroke="black" stroke-width="2" stroke-linecap="round" stroke-linejoin="round"/>
<g id="Group_4">
<path id="Vector_14" d="M87.3093 89.1347C81.7793 100.325 65.8193 100.765 65.8193 100.765C80.8593 91.8446 82.3693 83.3646 82.3693 83.3646L79.4493 80.8646L91.1993 78.7646L89.6093 92.9046L87.3193 89.1347H87.3093Z" fill="#B4B0AA"/>
<path id="Vector_15" d="M4.6898 89.1347C10.2198 100.325 26.1798 100.765 26.1798 100.765C11.1398 91.8446 9.6298 83.3646 9.6298 83.3646L12.5498 80.8646L0.799805 78.7646L2.3898 92.9046L4.6798 89.1347H4.6898Z" fill="#B4B0AA"/>
</g>
</g>
<defs>
<clipPath id="clip0_445_14117">
<rect width="90.4" height="103.61" fill="white" transform="translate(0.799805 0.194824)"/>
</clipPath>
</defs>
</svg>
