<svg width="94" height="100" viewBox="0 0 94 100" fill="none" xmlns="http://www.w3.org/2000/svg">
<g clip-path="url(#clip0_446_4532)">
<path d="M91.0048 45.6902C91.4548 45.6902 91.8248 46.1302 91.8248 46.6702V96.6502C91.8248 97.1902 91.4548 97.6302 91.0048 97.6302H2.9948C2.5448 97.6302 2.1748 97.1902 2.1748 96.6502V46.6702C2.1748 46.1302 2.5448 45.6902 2.9948 45.6902H91.0048ZM91.0048 43.6902H2.9948C1.4348 43.6902 0.174805 45.0202 0.174805 46.6702V96.6502C0.174805 98.3002 1.4348 99.6302 2.9948 99.6302H91.0048C92.5648 99.6302 93.8248 98.3002 93.8248 96.6502V46.6702C93.8248 45.0202 92.5648 43.6902 91.0048 43.6902Z" fill="black"/>
<path d="M91.8252 56.8701V85.8101H27.8252C27.2752 85.8101 26.8252 85.3601 26.8252 84.8101V57.8701C26.8252 57.3201 27.2752 56.8701 27.8252 56.8701H91.8252ZM93.8252 54.8701H27.8252C26.1652 54.8701 24.8252 56.2101 24.8252 57.8701V84.8101C24.8252 86.4701 26.1652 87.8101 27.8252 87.8101H93.8252V54.8701Z" fill="black"/>
<path d="M6.22461 43.6901V25.9401C6.22461 24.3801 7.48461 23.1201 9.04461 23.1201H84.9646C86.5246 23.1201 87.7846 24.3801 87.7846 25.9401V43.6901" stroke="black" stroke-width="2" stroke-miterlimit="10" stroke-linecap="round"/>
<path d="M6.22461 38.3201L87.7746 29.8401" stroke="black" stroke-width="2" stroke-miterlimit="10" stroke-linecap="round"/>
<path d="M6.22461 33.6301L59.1046 28.1301" stroke="black" stroke-width="2" stroke-miterlimit="10" stroke-linecap="round"/>
<path d="M37.1943 40.1702L87.7743 34.9102" stroke="black" stroke-width="2" stroke-miterlimit="10" stroke-linecap="round"/>
<path d="M56.9646 1.37012C56.9646 6.05012 52.9146 9.85012 47.9246 9.85012H25.0846C17.2746 9.85012 10.9346 15.7901 10.9346 23.1201H82.5446C82.5446 11.1101 72.1646 1.37012 59.3646 1.37012H56.9646Z" stroke="black" stroke-width="2" stroke-miterlimit="10" stroke-linecap="round"/>
</g>
<defs>
<clipPath id="clip0_446_4532">
<rect width="93.65" height="99.26" fill="white" transform="translate(0.174805 0.370117)"/>
</clipPath>
</defs>
</svg>
