<svg width="102" height="104" viewBox="0 0 102 104" fill="none" xmlns="http://www.w3.org/2000/svg">
<g id="_?&#235;&#141;&#137;&#236;&#148;&#160;??1" clip-path="url(#clip0_446_4544)">
<path id="Vector" d="M57.8803 46.1899C58.4303 46.1899 58.8803 46.6399 58.8803 47.1899V83.5399C58.8803 84.0899 58.4303 84.5399 57.8803 84.5399H11.3604C10.8104 84.5399 10.3604 84.0899 10.3604 83.5399V47.1899C10.3604 46.6399 10.8104 46.1899 11.3604 46.1899H57.8803ZM57.8803 44.1899H11.3604C9.70035 44.1899 8.36035 45.5299 8.36035 47.1899V83.5399C8.36035 85.1999 9.70035 86.5399 11.3604 86.5399H57.8803C59.5403 86.5399 60.8803 85.1999 60.8803 83.5399V47.1899C60.8803 45.5299 59.5403 44.1899 57.8803 44.1899Z" fill="black"/>
<path id="Vector_2" d="M36.4303 7.13989C36.9803 7.13989 37.4303 7.58989 37.4303 8.13989V9.88989C37.4303 10.4399 36.9803 10.8899 36.4303 10.8899H32.8203C32.2703 10.8899 31.8203 10.4399 31.8203 9.88989V8.13989C31.8203 7.58989 32.2703 7.13989 32.8203 7.13989H36.4303ZM36.4303 5.13989H32.8203C31.1603 5.13989 29.8203 6.47989 29.8203 8.13989V9.88989C29.8203 11.5499 31.1603 12.8899 32.8203 12.8899H36.4303C38.0903 12.8899 39.4303 11.5499 39.4303 9.88989V8.13989C39.4303 6.47989 38.0903 5.13989 36.4303 5.13989Z" fill="black"/>
<path id="Vector_3" d="M87.8501 31.46C88.4001 31.46 88.8501 31.91 88.8501 32.46V35.84C88.8501 36.39 88.4001 36.84 87.8501 36.84H76.1201C75.5701 36.84 75.1201 36.39 75.1201 35.84V32.46C75.1201 31.91 75.5701 31.46 76.1201 31.46H87.8501ZM87.8501 29.46H76.1201C74.4601 29.46 73.1201 30.8 73.1201 32.46V35.84C73.1201 37.5 74.4601 38.84 76.1201 38.84H87.8501C89.5101 38.84 90.8501 37.5 90.8501 35.84V32.46C90.8501 30.8 89.5101 29.46 87.8501 29.46Z" fill="black"/>
<path id="Vector_4" d="M47.6304 2.44995C48.2304 2.44995 48.7104 2.93995 48.7104 3.52995V11.57H65.1704C65.7704 11.57 66.2504 12.06 66.2504 12.65V90.9699C66.2504 91.5699 65.7604 92.0499 65.1704 92.0499H4.02043C3.42043 92.0499 2.94043 91.5599 2.94043 90.9699V12.65C2.94043 12.05 3.43043 11.57 4.02043 11.57H20.5304V3.52995C20.5304 2.92995 21.0204 2.44995 21.6104 2.44995H47.6204M47.6204 0.449951H21.6204C19.9204 0.449951 18.5404 1.82995 18.5404 3.52995V9.55995H4.02043C2.32043 9.55995 0.94043 10.94 0.94043 12.64V90.9699C0.94043 92.6699 2.32043 94.0499 4.02043 94.0499H65.1704C66.8704 94.0499 68.2504 92.6699 68.2504 90.9699V12.65C68.2504 10.95 66.8704 9.56995 65.1704 9.56995H50.7104V3.52995C50.7104 1.82995 49.3304 0.449951 47.6304 0.449951H47.6204Z" fill="black"/>
<path id="Vector_5" d="M34.6006 93.4699V96.4599C34.6006 99.8199 37.3106 102.54 40.6606 102.54H94.0106C97.3606 102.54 100.071 99.8199 100.071 96.4599V77.6799C100.071 74.3199 97.3606 71.5999 94.0106 71.5999H87.9606C84.6106 71.5999 81.9006 68.8799 81.9006 65.5199V38.4099" stroke="black" stroke-width="2" stroke-miterlimit="10" stroke-linecap="round"/>
<path id="Vector_6" d="M60.21 21.28H67.05" stroke="black" stroke-width="2" stroke-miterlimit="10" stroke-linecap="round"/>
<path id="Vector_7" d="M60.21 29.46H67.05" stroke="black" stroke-width="2" stroke-miterlimit="10" stroke-linecap="round"/>
<path id="Vector_8" d="M60.21 37.6399H67.05" stroke="black" stroke-width="2" stroke-miterlimit="10" stroke-linecap="round"/>
<path id="Vector_9" d="M81.9805 29.46V25.71" stroke="black" stroke-width="2" stroke-miterlimit="10" stroke-linecap="round"/>
</g>
<defs>
<clipPath id="clip0_446_4544">
<rect width="100.12" height="103.1" fill="white" transform="translate(0.94043 0.449951)"/>
</clipPath>
</defs>
</svg>
