<svg width="90" height="104" viewBox="0 0 90 104" fill="none" xmlns="http://www.w3.org/2000/svg">
<g id="_?&#235;&#141;&#137;&#236;&#148;&#160;??1" clip-path="url(#clip0_445_14004)">
<g id="Group">
<path id="Vector" d="M73.7057 80.8849C75.2057 77.4049 78.1757 68.3149 72.6957 67.8549C68.4057 67.4849 67.6457 72.7349 66.2257 77.0149C63.6757 84.7249 60.2757 88.1249 62.7757 89.3549C66.2757 91.0849 71.7357 85.4549 73.6957 80.8949L73.7057 80.8849Z" fill="#B4B0AA"/>
<path id="Vector_2" d="M16.5957 80.8849C15.0957 77.4049 12.1257 68.3149 17.6057 67.8549C21.8957 67.4849 22.6557 72.7349 24.0757 77.0149C26.6257 84.7249 30.0257 88.1249 27.5257 89.3549C24.0257 91.0849 18.5657 85.4549 16.6057 80.8949L16.5957 80.8849Z" fill="#B4B0AA"/>
</g>
<path id="Vector_3" d="M6.0957 59.4351C6.0957 59.4351 11.7257 59.5851 12.8657 61.2051" stroke="black" stroke-width="2" stroke-linecap="round" stroke-linejoin="round"/>
<path id="Vector_4" d="M84.2056 59.4351C84.2056 59.4351 78.5755 59.5851 77.4355 61.2051" stroke="black" stroke-width="2" stroke-linecap="round" stroke-linejoin="round"/>
<path id="Vector_5" d="M48.0457 10.2646C63.9657 10.2646 76.9157 25.9346 76.9457 45.2046L75.9457 61.0646C75.9457 61.0646 75.9457 61.1446 75.9457 61.1946C75.9457 77.4646 69.9757 90.1447 59.5757 95.9846L52.0157 100.225C50.2357 101.225 47.7357 101.795 45.1457 101.795C42.5557 101.795 40.0557 101.225 38.2757 100.225L30.7157 95.9846C20.3057 90.1447 14.3457 77.4646 14.3457 61.1946C14.3457 61.1546 14.3457 61.1146 14.3457 61.0646L13.3457 45.2046C13.3757 25.9346 26.3257 10.2646 42.2457 10.2646H48.0457ZM48.0457 8.26465H42.2457C25.1857 8.26465 11.3457 24.8347 11.3457 45.2747L12.3457 61.2046C12.3457 76.8546 17.9057 91.1047 29.7457 97.7447L37.3057 101.985C39.4757 103.205 42.3157 103.815 45.1557 103.815C47.9957 103.815 50.8357 103.205 53.0057 101.985L60.5657 97.7447C72.4057 91.1047 77.9657 76.8646 77.9657 61.2046L78.9657 45.2747C78.9657 24.8347 65.1357 8.26465 48.0657 8.26465H48.0457Z" fill="black"/>
<path id="Vector_6" d="M51.705 96.3447C47.545 98.7747 42.745 98.7747 38.585 96.3447" stroke="#B4B0AA" stroke-width="2" stroke-miterlimit="10" stroke-linecap="round"/>
<path id="Vector_7" d="M12.8652 51.6248C12.8652 32.9948 26.0752 17.8848 42.3752 17.8848H47.9152C64.2152 17.8848 77.4252 32.9948 77.4252 51.6248" stroke="black" stroke-width="2" stroke-linecap="round" stroke-linejoin="round"/>
<path id="Vector_8" d="M9.20505 52.325C4.31505 35.945 8.01505 3.705 37.105 1.365C39.875 1.145 50.3851 1.145 53.1451 1.355C83.275 3.625 84.595 37.015 80.845 52.325" stroke="black" stroke-width="2" stroke-linecap="round" stroke-linejoin="round"/>
<path id="Vector_9" d="M13.4253 74.385C7.06527 74.385 1.90527 68.865 1.90527 62.045V59.615C1.90527 56.005 4.63527 53.085 8.00527 53.085H12.5853" stroke="black" stroke-width="2" stroke-linecap="round" stroke-linejoin="round"/>
<path id="Vector_10" d="M76.5752 74.385C82.9352 74.385 88.0952 68.865 88.0952 62.045V59.615C88.0952 56.005 85.3652 53.085 81.9952 53.085H77.4152" stroke="black" stroke-width="2" stroke-linecap="round" stroke-linejoin="round"/>
</g>
<defs>
<clipPath id="clip0_445_14004">
<rect width="88.19" height="103.61" fill="white" transform="translate(0.905273 0.194824)"/>
</clipPath>
</defs>
</svg>
