<svg width="100" height="96" viewBox="0 0 100 96" fill="none" xmlns="http://www.w3.org/2000/svg">
<g id="_?&#235;&#141;&#137;&#236;&#148;&#160;??1" clip-path="url(#clip0_557_10196)">
<path id="Vector" d="M1.5957 55.0851C9.0657 55.0851 18.3057 53.5751 27.4557 49.0051" stroke="black" stroke-width="2" stroke-linecap="round" stroke-linejoin="round"/>
<path id="Vector_2" d="M4.33398 7.51502C4.33398 7.51502 10.204 9.52502 16.484 5.39502" stroke="black" stroke-width="2" stroke-linecap="round" stroke-linejoin="round"/>
<path id="Vector_3" d="M6.5957 1.88501C6.5957 1.88501 9.5857 4.44501 7.7757 7.01501" stroke="black" stroke-width="2" stroke-linecap="round" stroke-linejoin="round"/>
<path id="Vector_4" d="M54.0752 15.3551C54.0752 15.3551 59.8452 9.96512 63.5652 13.3851C67.2852 16.8051 64.2752 25.7551 60.5552 31.9051C56.8352 38.0551 53.2552 34.7651 52.7852 34.5851" stroke="black" stroke-width="2" stroke-linecap="round" stroke-linejoin="round"/>
<path id="Vector_5" d="M53.5254 25.0851C53.5254 25.0851 55.6754 17.1351 59.4654 18.2951" stroke="black" stroke-width="2" stroke-linecap="round" stroke-linejoin="round"/>
<path id="Vector_6" d="M14.6055 55.085C14.6055 55.085 18.2455 73.495 14.6055 85.195" stroke="black" stroke-width="2" stroke-linecap="round" stroke-linejoin="round"/>
<path id="Vector_7" d="M15.8848 71.9849C15.8848 71.9849 9.17484 85.8749 1.21484 89.4249" stroke="black" stroke-width="2" stroke-linecap="round" stroke-linejoin="round"/>
<path id="Vector_8" d="M54.6148 35.4651C54.6148 35.4651 49.0348 57.2451 61.3848 66.4551C67.2848 70.8651 98.7848 94.1051 98.7848 94.1051" stroke="black" stroke-width="2" stroke-linecap="round" stroke-linejoin="round"/>
<path id="Vector_9" d="M88.4757 95.1152H87.9557C87.4057 95.0952 86.9657 94.6452 86.9757 94.0852C86.9857 93.5352 87.4257 93.1452 87.9957 93.1052H88.4057C88.5857 93.1052 88.7657 93.1052 88.9357 93.1052C89.5157 93.0452 89.9557 93.5152 89.9757 94.0652C89.9957 94.6152 89.5657 95.0852 89.0157 95.1052C88.8357 95.1052 88.6656 95.1052 88.4856 95.1052L88.4757 95.1152ZM83.0257 94.4252C82.9457 94.4252 82.8757 94.4252 82.7957 94.3952C82.4657 94.3152 82.1357 94.2352 81.7957 94.1452C81.2657 94.0052 80.9457 93.4552 81.0956 92.9152C81.2356 92.3852 81.7857 92.0652 82.3257 92.2052C82.6457 92.2952 82.9557 92.3752 83.2657 92.4452C83.8057 92.5752 84.1357 93.1152 84.0057 93.6452C83.8957 94.1052 83.4857 94.4152 83.0357 94.4152L83.0257 94.4252ZM93.7757 93.9252C93.4257 93.9252 93.0857 93.7452 92.9057 93.4152C92.6357 92.9352 92.8057 92.3252 93.2857 92.0552C93.5357 91.9152 93.7757 91.7552 93.9856 91.5852C94.4156 91.2452 95.0457 91.3152 95.3857 91.7452C95.7257 92.1752 95.6557 92.8052 95.2257 93.1552C94.9257 93.3852 94.6057 93.6052 94.2657 93.7952C94.1057 93.8852 93.9456 93.9252 93.7757 93.9252ZM77.3257 92.5452C77.1957 92.5452 77.0657 92.5252 76.9357 92.4652C76.6257 92.3352 76.3157 92.1952 75.9957 92.0552C75.4957 91.8352 75.2656 91.2352 75.4856 90.7352C75.7056 90.2352 76.2956 90.0052 76.8056 90.2252C77.1056 90.3552 77.4057 90.4852 77.7057 90.6152C78.2157 90.8252 78.4556 91.4152 78.2356 91.9252C78.0756 92.3052 77.7057 92.5352 77.3157 92.5352L77.3257 92.5452ZM71.9657 89.8552C71.7957 89.8552 71.6257 89.8152 71.4657 89.7152C71.1757 89.5452 70.8857 89.3752 70.5857 89.1952C70.1157 88.9052 69.9657 88.2952 70.2557 87.8152C70.5457 87.3452 71.1557 87.1952 71.6357 87.4852C71.9157 87.6552 72.1957 87.8252 72.4757 87.9852C72.9557 88.2652 73.1157 88.8752 72.8357 89.3552C72.6457 89.6752 72.3157 89.8552 71.9757 89.8552H71.9657ZM96.7457 89.0252C96.7457 89.0252 96.7157 89.0252 96.6957 89.0252C96.1457 88.9952 95.7157 88.5352 95.7457 87.9752C95.7457 87.8752 95.7457 87.7752 95.7457 87.6752C95.7457 87.4852 95.7457 87.2952 95.7257 87.1052C95.6857 86.5552 96.0957 86.0752 96.6457 86.0252C97.2057 85.9852 97.6757 86.3952 97.7257 86.9452C97.7457 87.1952 97.7557 87.4352 97.7557 87.6752C97.7557 87.8052 97.7557 87.9352 97.7557 88.0652C97.7357 88.6052 97.2857 89.0152 96.7557 89.0152L96.7457 89.0252ZM66.9757 86.5252C66.7657 86.5252 66.5557 86.4552 66.3757 86.3252C66.1057 86.1152 65.8357 85.9052 65.5657 85.6952C65.1357 85.3552 65.0657 84.7252 65.4057 84.2952C65.7457 83.8652 66.3757 83.7852 66.8157 84.1352C67.0657 84.3352 67.3257 84.5352 67.5857 84.7352C68.0257 85.0652 68.1056 85.6952 67.7757 86.1352C67.5757 86.3952 67.2757 86.5252 66.9757 86.5252ZM95.2757 83.2652C94.9057 83.2652 94.5557 83.0652 94.3757 82.7152C94.2357 82.4352 94.0857 82.1552 93.9257 81.8752C93.6557 81.3952 93.8256 80.7852 94.3056 80.5152C94.7856 80.2452 95.3956 80.4152 95.6656 80.8952C95.8356 81.2052 96.0057 81.5152 96.1557 81.8252C96.4057 82.3152 96.2057 82.9152 95.7057 83.1652C95.5657 83.2352 95.4057 83.2652 95.2657 83.2652H95.2757ZM62.4557 82.5952C62.1957 82.5952 61.9457 82.4952 61.7457 82.3052C61.5057 82.0652 61.2657 81.8152 61.0257 81.5752C60.6457 81.1752 60.6557 80.5452 61.0557 80.1652C61.4557 79.7852 62.0857 79.7952 62.4657 80.1952C62.6857 80.4252 62.9157 80.6652 63.1457 80.8952C63.5357 81.2852 63.5357 81.9152 63.1457 82.3052C62.9457 82.5052 62.6957 82.5952 62.4357 82.5952H62.4557ZM91.9557 78.2952C91.6656 78.2952 91.3857 78.1752 91.1857 77.9352C90.9857 77.6952 90.7656 77.4452 90.5556 77.1952C90.1856 76.7852 90.2257 76.1452 90.6457 75.7852C91.0557 75.4152 91.6956 75.4552 92.0556 75.8752C92.2856 76.1352 92.5057 76.3952 92.7257 76.6552C93.0757 77.0752 93.0257 77.7052 92.5956 78.0652C92.4057 78.2252 92.1856 78.2952 91.9557 78.2952ZM58.5857 78.0252C58.2657 78.0252 57.9557 77.8752 57.7657 77.5952C57.5657 77.3052 57.3757 77.0152 57.1857 76.7352C56.8857 76.2652 57.0257 75.6552 57.4857 75.3552C57.9457 75.0552 58.5657 75.1952 58.8657 75.6552C59.0357 75.9252 59.2157 76.1852 59.3957 76.4552C59.7057 76.9052 59.5957 77.5352 59.1457 77.8452C58.9757 77.9652 58.7757 78.0252 58.5757 78.0252H58.5857ZM87.7557 74.0152C87.5257 74.0152 87.2856 73.9352 87.0956 73.7652C86.8556 73.5552 86.6057 73.3352 86.3557 73.1252C85.9357 72.7652 85.8756 72.1352 86.2356 71.7152C86.5956 71.2952 87.2257 71.2352 87.6457 71.5952C87.9057 71.8152 88.1657 72.0352 88.4257 72.2652C88.8357 72.6352 88.8857 73.2652 88.5157 73.6752C88.3157 73.8952 88.0457 74.0152 87.7657 74.0152H87.7557ZM55.8657 72.7052C55.4357 72.7052 55.0457 72.4252 54.9057 71.9952C54.7957 71.6452 54.7057 71.2952 54.6257 70.9452C54.5057 70.4052 54.8457 69.8752 55.3857 69.7552C55.9257 69.6352 56.4557 69.9752 56.5757 70.5152C56.6357 70.8052 56.7157 71.1052 56.8057 71.4052C56.9657 71.9352 56.6757 72.4952 56.1457 72.6552C56.0457 72.6852 55.9457 72.6952 55.8457 72.6952L55.8657 72.7052ZM83.0057 70.3552C82.8157 70.3552 82.6157 70.2952 82.4457 70.1852C82.1757 70.0052 81.9057 69.8252 81.6257 69.6452C81.1657 69.3452 81.0257 68.7252 81.3357 68.2652C81.6357 67.8052 82.2557 67.6752 82.7157 67.9752C83.0057 68.1652 83.2857 68.3452 83.5657 68.5352C84.0257 68.8452 84.1457 69.4652 83.8357 69.9252C83.6457 70.2152 83.3257 70.3652 83.0057 70.3652V70.3552ZM78.9757 67.8952C78.8157 67.8952 78.6457 67.8552 78.4957 67.7752C78.2057 67.6152 77.9157 67.4652 77.6357 67.3152C77.1457 67.0652 76.9557 66.4552 77.2057 65.9652C77.4557 65.4752 78.0656 65.2852 78.5556 65.5352C78.8556 65.6952 79.1557 65.8552 79.4557 66.0152C79.9356 66.2752 80.1157 66.8852 79.8557 67.3752C79.6757 67.7052 79.3357 67.8952 78.9757 67.8952ZM56.0357 66.8552C55.8857 66.8552 55.7257 66.8152 55.5757 66.7452C55.0857 66.4952 54.8957 65.8852 55.1457 65.3952C55.2457 65.2052 55.3457 65.0252 55.4657 64.8452C55.5657 64.6852 55.6757 64.5452 55.7857 64.3952C56.1257 63.9552 56.7557 63.8852 57.1857 64.2252C57.6257 64.5652 57.6957 65.1952 57.3557 65.6252C57.2757 65.7252 57.2057 65.8252 57.1457 65.9252C57.0657 66.0452 56.9957 66.1752 56.9257 66.3052C56.7457 66.6452 56.3957 66.8452 56.0357 66.8452V66.8552ZM73.5357 65.3652C73.4157 65.3652 73.2957 65.3452 73.1757 65.2952C72.8657 65.1752 72.5657 65.0652 72.2657 64.9552C71.7457 64.7752 71.4657 64.2052 71.6557 63.6852C71.8357 63.1652 72.4057 62.8852 72.9257 63.0752C73.2457 63.1852 73.5657 63.3052 73.8857 63.4252C74.4057 63.6252 74.6557 64.2052 74.4657 64.7152C74.3157 65.1152 73.9357 65.3552 73.5357 65.3552V65.3652ZM67.7757 63.7052C67.7156 63.7052 67.6557 63.7052 67.5956 63.6852C67.2757 63.6252 66.9557 63.5752 66.6457 63.5252C66.0957 63.4452 65.7256 62.9352 65.8056 62.3952C65.8856 61.8452 66.3957 61.4652 66.9457 61.5552C67.2857 61.6052 67.6257 61.6652 67.9657 61.7252C68.5057 61.8252 68.8657 62.3452 68.7657 62.8952C68.6757 63.3752 68.2557 63.7152 67.7857 63.7152L67.7757 63.7052ZM60.8157 63.5852C60.3557 63.5852 59.9357 63.2652 59.8357 62.7952C59.7157 62.2552 60.0657 61.7252 60.6057 61.6052C60.9557 61.5352 61.3057 61.4752 61.6757 61.4252C62.2257 61.3652 62.7257 61.7452 62.7957 62.2952C62.8657 62.8452 62.4757 63.3452 61.9257 63.4152C61.6157 63.4552 61.3157 63.5052 61.0257 63.5652C60.9557 63.5852 60.8857 63.5852 60.8157 63.5852Z" fill="#B4B0AA"/>
</g>
<defs>
<clipPath id="clip0_557_10196">
<rect width="99.57" height="94.23" fill="white" transform="translate(0.214844 0.88501)"/>
</clipPath>
</defs>
</svg>
