<svg width="74" height="106" viewBox="0 0 74 106" fill="none" xmlns="http://www.w3.org/2000/svg">
<g id="_?&#235;&#141;&#137;&#236;&#148;&#160;??1" clip-path="url(#clip0_445_14747)">
<path id="Vector" d="M18.54 105.78C18.16 105.78 17.8 105.57 17.63 105.2L17.56 105.06C17.33 104.56 17.56 103.96 18.06 103.73C18.56 103.5 19.16 103.73 19.38 104.23L19.44 104.35C19.67 104.85 19.46 105.44 18.96 105.68C18.82 105.74 18.68 105.77 18.54 105.77V105.78ZM16.43 101.06C16.05 101.06 15.68 100.84 15.51 100.46L15.11 99.5399C14.89 99.0299 15.12 98.4399 15.63 98.2199C16.14 97.9999 16.73 98.2199 16.95 98.7399L17.35 99.6599C17.57 100.17 17.35 100.76 16.84 100.98C16.71 101.04 16.57 101.06 16.44 101.06H16.43ZM14.04 95.5399C13.65 95.5399 13.28 95.3099 13.12 94.9299L12.73 94.0099C12.51 93.4999 12.75 92.9099 13.26 92.6999C13.77 92.4799 14.36 92.7199 14.57 93.2299L14.96 94.1499C15.18 94.6599 14.94 95.2499 14.43 95.4599C14.3 95.5099 14.17 95.5399 14.04 95.5399ZM11.72 89.9899C11.33 89.9899 10.95 89.7599 10.79 89.3699L10.41 88.4399C10.2 87.9299 10.45 87.3499 10.96 87.1399C11.47 86.9299 12.05 87.1799 12.26 87.6899L12.64 88.6099C12.85 89.1199 12.6 89.7099 12.09 89.9099C11.97 89.9599 11.84 89.9799 11.71 89.9799L11.72 89.9899ZM9.48 84.4099C9.08 84.4099 8.7 84.1699 8.55 83.7699L8.18 82.8399C7.98 82.3299 8.23 81.7499 8.75 81.5499C9.27 81.3499 9.84 81.5999 10.05 82.1199L10.41 83.0499C10.61 83.5599 10.36 84.1399 9.84 84.3499C9.72 84.3999 9.6 84.4199 9.48 84.4199V84.4099ZM7.33 78.7899C6.92 78.7899 6.54 78.5399 6.39 78.1399L6.04 77.1999C5.85 76.6799 6.12 76.1099 6.63 75.9199C7.15 75.7299 7.72 75.9999 7.91 76.5099L8.26 77.4499C8.45 77.9699 8.19 78.5399 7.67 78.7399C7.56 78.7799 7.44 78.7999 7.32 78.7999L7.33 78.7899ZM5.3 73.1299C4.88 73.1299 4.5 72.8699 4.35 72.4499L4.03 71.4999C3.85 70.9799 4.13 70.4099 4.66 70.2299C5.18 70.0499 5.75 70.3299 5.93 70.8599L6.25 71.7999C6.43 72.3199 6.15 72.8899 5.63 73.0699C5.52 73.1099 5.41 73.1199 5.31 73.1199L5.3 73.1299ZM3.45 67.4099C3.02 67.4099 2.62 67.1299 2.49 66.6999L2.2 65.7299C2.05 65.1999 2.35 64.6499 2.88 64.4899C3.41 64.3399 3.97 64.6399 4.12 65.1699L4.4 66.1199C4.56 66.6499 4.26 67.2099 3.73 67.3699C3.63 67.3999 3.54 67.4099 3.44 67.4099H3.45ZM1.89 61.5999C1.43 61.5999 1.02 61.2899 0.92 60.8199C0.84 60.4799 0.77 60.1499 0.7 59.8199C0.59 59.2799 0.93 58.7499 1.47 58.6399C2.01 58.5299 2.54 58.8699 2.65 59.4099C2.72 59.7199 2.79 60.0399 2.86 60.3699C2.98 60.9099 2.65 61.4399 2.11 61.5699C2.04 61.5899 1.96 61.5899 1.89 61.5899V61.5999ZM1 55.6599C0.46 55.6599 0.02 55.2299 0 54.6899C0 54.5299 0 54.3799 0 54.2399C0 54.0199 0 53.8099 0.02 53.6099C0.05 53.0599 0.53 52.6399 1.07 52.6599C1.62 52.6899 2.05 53.1599 2.02 53.7099C2.02 53.8799 2.01 54.0599 2.01 54.2399C2.01 54.3699 2.01 54.4999 2.01 54.6299C2.03 55.1799 1.59 55.6399 1.04 55.6599H1.01H1Z" fill="#B4B0AA"/>
<path id="Vector_2" d="M55.4603 105.78C55.3203 105.78 55.1703 105.75 55.0403 105.69C54.5403 105.46 54.3203 104.86 54.5603 104.36L54.6203 104.24C54.8503 103.74 55.4403 103.51 55.9403 103.74C56.4403 103.97 56.6603 104.56 56.4403 105.07L56.3703 105.21C56.2003 105.57 55.8403 105.79 55.4603 105.79V105.78ZM57.5703 101.06C57.4403 101.06 57.3003 101.03 57.1703 100.98C56.6603 100.76 56.4403 100.17 56.6603 99.6599L57.0603 98.7399C57.2803 98.2299 57.8703 97.9999 58.3803 98.2199C58.8903 98.4399 59.1203 99.0299 58.9003 99.5399L58.5003 100.46C58.3403 100.83 57.9703 101.06 57.5803 101.06H57.5703ZM59.9603 95.5399C59.8303 95.5399 59.7003 95.5099 59.5703 95.4599C59.0603 95.2399 58.8203 94.6599 59.0403 94.1499L59.4303 93.2299C59.6403 92.7199 60.2303 92.4799 60.7403 92.6999C61.2503 92.9099 61.4903 93.4999 61.2703 94.0099L60.8803 94.9299C60.7203 95.3099 60.3503 95.5399 59.9603 95.5399ZM62.2803 89.9899C62.1503 89.9899 62.0303 89.9699 61.9003 89.9199C61.3903 89.7099 61.1403 89.1299 61.3503 88.6199L61.7303 87.6999C61.9403 87.1899 62.5203 86.9399 63.0303 87.1499C63.5403 87.3599 63.7903 87.9399 63.5803 88.4499L63.2003 89.3799C63.0403 89.7699 62.6703 89.9999 62.2703 89.9999L62.2803 89.9899ZM64.5203 84.4099C64.4003 84.4099 64.2803 84.3899 64.1603 84.3399C63.6503 84.1399 63.3903 83.5599 63.5903 83.0399L63.9503 82.1099C64.1503 81.5999 64.7303 81.3399 65.2503 81.5399C65.7603 81.7399 66.0203 82.3199 65.8203 82.8299L65.4503 83.7599C65.3003 84.1499 64.9203 84.3999 64.5203 84.3999V84.4099ZM66.6703 78.7899C66.5503 78.7899 66.4403 78.7699 66.3203 78.7299C65.8003 78.5399 65.5403 77.9599 65.7303 77.4399L66.0803 76.4999C66.2703 75.9799 66.8403 75.7099 67.3603 75.9099C67.8803 76.0999 68.1403 76.6699 67.9503 77.1899L67.6003 78.1299C67.4503 78.5299 67.0703 78.7799 66.6603 78.7799L66.6703 78.7899ZM68.7003 73.1299C68.5903 73.1299 68.4803 73.1099 68.3803 73.0799C67.8603 72.8999 67.5803 72.3299 67.7603 71.8099L68.0803 70.8699C68.2603 70.3499 68.8203 70.0599 69.3503 70.2399C69.8703 70.4199 70.1503 70.9799 69.9803 71.5099L69.6603 72.4599C69.5203 72.8799 69.1303 73.1399 68.7103 73.1399L68.7003 73.1299ZM70.5503 67.4099C70.4503 67.4099 70.3603 67.3999 70.2603 67.3699C69.7303 67.2099 69.4303 66.6499 69.5903 66.1199L69.8703 65.1699C70.0303 64.6399 70.5803 64.3399 71.1103 64.4899C71.6403 64.6499 71.9403 65.1999 71.7903 65.7299L71.5003 66.6999C71.3703 67.1299 70.9703 67.4099 70.5403 67.4099H70.5503ZM72.1103 61.5999C72.0403 61.5999 71.9603 61.5999 71.8903 61.5799C71.3503 61.4599 71.0103 60.9199 71.1403 60.3799C71.2103 60.0499 71.2803 59.7299 71.3503 59.4199C71.4603 58.8799 71.9903 58.5299 72.5303 58.6499C73.0703 58.7599 73.4203 59.2899 73.3003 59.8299C73.2303 60.1599 73.1603 60.4899 73.0803 60.8299C72.9703 61.2899 72.5603 61.6099 72.1103 61.6099V61.5999ZM73.0003 55.6599H72.9703C72.4203 55.6399 71.9803 55.1799 72.0003 54.6299C72.0003 54.4999 72.0003 54.3699 72.0003 54.2399C72.0003 54.0599 72.0003 53.8799 71.9903 53.7099C71.9603 53.1599 72.3903 52.6899 72.9403 52.6599C73.4903 52.6399 73.9603 53.0599 73.9903 53.6099C74.0003 53.8099 74.0103 54.0199 74.0103 54.2399C74.0103 54.3899 74.0103 54.5399 74.0103 54.6899C73.9903 55.2299 73.5503 55.6599 73.0103 55.6599H73.0003Z" fill="#B4B0AA"/>
<g id="Group">
<path id="Vector_3" d="M10.6594 1.21997L16.2094 28.93C16.2094 28.93 1.60937 42 1.01937 53.68C0.429375 65.36 11.2494 104.78 11.2494 104.78" stroke="black" stroke-width="2" stroke-linecap="round" stroke-linejoin="round"/>
<path id="Vector_4" d="M63.3391 1.21997L57.7891 28.93C57.7891 28.93 72.3891 42 72.9691 53.68C73.5491 65.36 62.7391 104.78 62.7391 104.78" stroke="black" stroke-width="2" stroke-linecap="round" stroke-linejoin="round"/>
</g>
<path id="Vector_5" d="M37.0996 73.25V104.78" stroke="black" stroke-width="2" stroke-linecap="round" stroke-linejoin="round"/>
<path id="Vector_6" d="M37.0996 32.5601V34.9001" stroke="black" stroke-width="2" stroke-linecap="round" stroke-linejoin="round"/>
</g>
<defs>
<clipPath id="clip0_445_14747">
<rect width="74" height="105.56" fill="white" transform="translate(0 0.219971)"/>
</clipPath>
</defs>
</svg>
