<svg width="85" height="102" viewBox="0 0 85 102" fill="none" xmlns="http://www.w3.org/2000/svg">
<g id="_?&#235;&#141;&#137;&#236;&#148;&#160;??1" clip-path="url(#clip0_445_14801)">
<path id="Vector" d="M5.41075 1.52002L8.02075 31.61C8.02075 31.61 -8.90925 51 13.2608 100.48" stroke="black" stroke-width="2" stroke-linecap="round" stroke-linejoin="round"/>
<path id="Vector_2" d="M36.9891 1.52002L34.1191 35.52C34.1191 35.52 40.6391 69.54 30.3691 82.21L30.9891 100.48" stroke="black" stroke-width="2" stroke-linecap="round" stroke-linejoin="round"/>
<path id="Vector_3" d="M25.2403 79.87C25.2403 79.87 11.4303 63.37 9.59032 45.96C9.59032 45.96 4.89032 77.79 25.2403 79.87Z" fill="#B4B0AA"/>
<path id="Vector_4" d="M13.7598 33.4302C13.7598 33.4302 22.1498 32.7302 28.3698 35.5202" stroke="black" stroke-width="2" stroke-linecap="round" stroke-linejoin="round"/>
<path id="Vector_5" d="M14.9805 23.1299C14.9805 23.1299 22.7205 20.8299 28.3705 24.1299L14.9805 23.1299Z" fill="#B4B0AA"/>
<path id="Vector_6" d="M13.7598 17.5702C13.7598 17.5702 22.9098 14.8502 29.5898 18.7502L13.7598 17.5702Z" fill="#B4B0AA"/>
<path id="Vector_7" d="M11.9395 9.55995C11.9395 9.55995 23.1995 6.20995 31.4195 11.01L11.9395 9.55995Z" fill="#B4B0AA"/>
<path id="Vector_8" d="M79.5902 1.52002L76.9802 31.61C76.9802 31.61 93.9102 51 71.7402 100.48" stroke="black" stroke-width="2" stroke-linecap="round" stroke-linejoin="round"/>
<path id="Vector_9" d="M48 1.52002L50.87 35.52C50.87 35.52 44.35 69.54 54.62 82.21L54 100.48" stroke="black" stroke-width="2" stroke-linecap="round" stroke-linejoin="round"/>
<path id="Vector_10" d="M59.7598 79.87C59.7598 79.87 73.5698 63.37 75.4098 45.96C75.4098 45.96 80.1098 77.79 59.7598 79.87Z" fill="#B4B0AA"/>
<path id="Vector_11" d="M71.2291 33.4302C71.2291 33.4302 62.8391 32.7302 56.6191 35.5202" stroke="black" stroke-width="2" stroke-linecap="round" stroke-linejoin="round"/>
<path id="Vector_12" d="M70.0209 23.1299C70.0209 23.1299 62.2809 20.8299 56.6309 24.1299L70.0209 23.1299Z" fill="#B4B0AA"/>
<path id="Vector_13" d="M71.2304 17.5702C71.2304 17.5702 62.0804 14.8502 55.4004 18.7502L71.2304 17.5702Z" fill="#B4B0AA"/>
<path id="Vector_14" d="M73.0601 9.55995C73.0601 9.55995 61.8001 6.20995 53.5801 11.01L73.0601 9.55995Z" fill="#B4B0AA"/>
</g>
<defs>
<clipPath id="clip0_445_14801">
<rect width="83.34" height="100.96" fill="white" transform="translate(0.830078 0.52002)"/>
</clipPath>
</defs>
</svg>
