<svg width="81" height="104" viewBox="0 0 81 104" fill="none" xmlns="http://www.w3.org/2000/svg">
<g id="_?&#235;&#141;&#137;&#236;&#148;&#160;??1" clip-path="url(#clip0_445_14786)">
<path id="Vector" d="M68.155 59.255C60.195 68.815 44.625 65.535 44.625 65.535C61.275 60.395 64.715 52.515 64.715 52.515L62.465 49.415L74.335 50.115L69.505 63.455L68.155 59.275V59.255Z" fill="#B4B0AA"/>
<path id="Vector_2" d="M13.4945 59.255C21.4545 68.815 37.0245 65.535 37.0245 65.535C20.3745 60.395 16.9345 52.515 16.9345 52.515L19.1845 49.415L7.31445 50.115L12.1445 63.455L13.4945 59.275V59.255Z" fill="#B4B0AA"/>
<g id="Group">
<path id="Vector_3" d="M14.0861 1.06494L18.1861 21.5249C18.1861 21.5249 2.51607 35.5549 1.88607 48.0949C1.25607 60.6349 12.8661 102.935 12.8661 102.935" stroke="black" stroke-width="2" stroke-linecap="round" stroke-linejoin="round"/>
<path id="Vector_4" d="M66.9164 1.06494L62.8164 21.5249C62.8164 21.5249 78.4864 35.5549 79.1164 48.0849C79.7464 60.6249 68.1364 102.925 68.1364 102.925" stroke="black" stroke-width="2" stroke-linecap="round" stroke-linejoin="round"/>
</g>
<path id="Vector_5" d="M19.6855 71.165C19.6855 71.165 31.8355 75.135 40.6055 69.085V102.925" stroke="black" stroke-width="2" stroke-linecap="round" stroke-linejoin="round"/>
<path id="Vector_6" d="M61.5255 71.165C61.5255 71.165 49.3755 75.135 40.6055 69.085" stroke="black" stroke-width="2" stroke-linecap="round" stroke-linejoin="round"/>
</g>
<defs>
<clipPath id="clip0_445_14786">
<rect width="79.27" height="103.87" fill="white" transform="translate(0.865234 0.0649414)"/>
</clipPath>
</defs>
</svg>
