<svg width="95" height="104" viewBox="0 0 95 104" fill="none" xmlns="http://www.w3.org/2000/svg">
<g id="_?&#235;&#141;&#137;&#236;&#148;&#160;??1" clip-path="url(#clip0_445_14827)">
<path id="Vector" d="M8.811 18.7352C8.811 18.7352 8.781 18.7352 8.771 18.7352C8.411 18.7152 8.061 18.6952 7.721 18.6652C7.171 18.6152 6.771 18.1252 6.821 17.5752C6.871 17.0252 7.361 16.6152 7.911 16.6752C8.211 16.7052 8.531 16.7252 8.861 16.7352C9.411 16.7552 9.841 17.2252 9.821 17.7752C9.801 18.3152 9.351 18.7352 8.821 18.7352H8.811ZM13.791 18.4152C13.311 18.4152 12.881 18.0652 12.801 17.5752C12.711 17.0352 13.081 16.5152 13.621 16.4252C13.931 16.3752 14.251 16.3152 14.571 16.2552C15.121 16.1352 15.641 16.4952 15.751 17.0452C15.861 17.5852 15.511 18.1152 14.961 18.2252C14.611 18.2952 14.281 18.3552 13.941 18.4052C13.891 18.4052 13.831 18.4152 13.781 18.4152H13.791ZM2.981 17.4852C2.841 17.4852 2.701 17.4552 2.571 17.3952C1.921 17.1052 1.571 16.8652 1.531 16.8452C1.071 16.5352 0.961002 15.9152 1.271 15.4552C1.581 14.9952 2.201 14.8852 2.651 15.1852C2.661 15.1852 2.911 15.3552 3.391 15.5652C3.891 15.7952 4.121 16.3852 3.891 16.8852C3.721 17.2552 3.361 17.4752 2.981 17.4752V17.4852ZM19.591 16.9052C19.181 16.9052 18.791 16.6452 18.651 16.2352C18.471 15.7152 18.741 15.1452 19.261 14.9652C19.561 14.8552 19.871 14.7452 20.181 14.6352C20.691 14.4452 21.271 14.6952 21.471 15.2152C21.671 15.7352 21.401 16.3052 20.891 16.5052C20.571 16.6252 20.241 16.7452 19.931 16.8552C19.821 16.8952 19.711 16.9152 19.601 16.9152L19.591 16.9052ZM25.101 14.5352C24.731 14.5352 24.381 14.3352 24.211 13.9852C23.961 13.4952 24.161 12.8952 24.661 12.6452C24.951 12.5052 25.241 12.3552 25.531 12.1952C26.021 11.9352 26.621 12.1252 26.881 12.6152C27.141 13.1052 26.951 13.7052 26.461 13.9652C26.151 14.1252 25.851 14.2852 25.551 14.4352C25.411 14.5052 25.251 14.5452 25.101 14.5452V14.5352ZM30.311 11.5752C29.981 11.5752 29.651 11.4052 29.461 11.1052C29.171 10.6352 29.301 10.0252 29.771 9.7252C30.041 9.5552 30.321 9.37519 30.601 9.19519C31.061 8.89519 31.681 9.02519 31.981 9.48519C32.281 9.94519 32.151 10.5652 31.691 10.8652C31.401 11.0552 31.121 11.2352 30.841 11.4152C30.671 11.5152 30.491 11.5652 30.311 11.5652V11.5752Z" fill="#B4B0AA"/>
<path id="Vector_2" d="M41.0709 75.765C40.7209 75.765 40.3809 75.765 40.0409 75.745C39.4909 75.725 39.0609 75.265 39.0709 74.715C39.0909 74.165 39.5709 73.725 40.1009 73.745C40.4209 73.745 40.7409 73.765 41.0709 73.765C41.6209 73.765 42.0709 74.215 42.0709 74.765C42.0709 75.315 41.6209 75.765 41.0709 75.765ZM35.1209 75.155C35.0409 75.155 34.9709 75.155 34.8909 75.125C34.5409 75.045 34.1909 74.955 33.8709 74.855C33.3409 74.695 33.0409 74.145 33.2009 73.615C33.3609 73.085 33.9109 72.785 34.4409 72.945C34.7309 73.035 35.0309 73.115 35.3509 73.185C35.8909 73.315 36.2209 73.845 36.1009 74.385C35.9909 74.845 35.5809 75.155 35.1309 75.155H35.1209ZM29.8309 72.505C29.5709 72.505 29.3209 72.405 29.1209 72.205C28.8509 71.935 28.6009 71.635 28.3709 71.345C28.0409 70.905 28.1309 70.275 28.5809 69.945C29.0209 69.615 29.6509 69.705 29.9809 70.155C30.1509 70.375 30.3309 70.595 30.5409 70.805C30.9309 71.195 30.9309 71.835 30.5409 72.215C30.3409 72.405 30.0909 72.505 29.8409 72.505H29.8309ZM27.7909 67.045C27.2409 67.045 26.7909 66.585 26.8009 66.035C26.8009 65.675 26.8209 65.315 26.8609 64.945C26.9209 64.395 27.4209 64.005 27.9509 64.045C28.5009 64.095 28.9009 64.585 28.8509 65.135C28.8209 65.435 28.8009 65.745 28.8009 66.045C28.8009 66.595 28.3509 67.035 27.8009 67.035L27.7909 67.045ZM29.1009 61.225C28.9809 61.225 28.8509 61.205 28.7309 61.155C28.2209 60.955 27.9709 60.365 28.1709 59.855C28.3009 59.525 28.4309 59.215 28.5709 58.895C28.7909 58.395 29.3809 58.165 29.8909 58.385C30.3909 58.605 30.6209 59.195 30.4009 59.705C30.2709 59.995 30.1509 60.295 30.0309 60.595C29.8709 60.985 29.5009 61.225 29.1009 61.225ZM31.8709 55.905C31.6809 55.905 31.5009 55.855 31.3309 55.745C30.8709 55.445 30.7309 54.825 31.0309 54.365C31.3909 53.805 31.6209 53.485 31.6209 53.485C31.9409 53.035 32.5709 52.935 33.0209 53.265C33.4709 53.585 33.5709 54.215 33.2409 54.665C33.2409 54.675 33.0309 54.965 32.7109 55.455C32.5209 55.755 32.2009 55.915 31.8709 55.915V55.905Z" fill="#B4B0AA"/>
<path id="Vector_3" d="M20.0197 103.415C17.0297 103.415 14.1097 102.745 13.2697 100.465C12.2997 97.8448 13.8897 97.1748 15.1697 96.6348C16.3897 96.1148 17.9097 95.4748 19.3497 93.2248C20.5797 91.3048 21.7097 87.8748 22.4497 83.8148C23.6697 77.1048 22.3997 70.8948 18.4297 64.2848C3.38969 39.2048 -1.94031 24.2148 1.15969 15.6748C7.23969 -1.11521 52.2797 8.60479 65.9397 11.9748L66.1897 12.0348C66.7197 12.1548 67.0597 12.6748 66.9597 13.2048C66.8497 13.7348 66.3497 14.0848 65.8197 13.9948C65.7997 13.9948 65.6797 13.9648 65.4697 13.9148C39.4097 7.48479 7.41969 4.25479 3.03969 16.3548C-0.680312 26.6248 11.0297 48.0348 20.1597 63.2548C24.3897 70.3048 25.7497 76.9548 24.4297 84.1748C23.6397 88.4848 22.4097 92.1748 21.0497 94.3048C19.2797 97.0748 17.2797 97.9148 15.9697 98.4748C15.6097 98.6248 15.0697 98.8548 14.9897 98.9848C14.9897 98.9848 14.9297 99.1548 15.1597 99.7748C16.0197 102.105 23.0897 101.615 26.4497 100.485C28.2097 99.8848 29.1997 98.1048 30.4497 95.8548C32.3797 92.3948 34.7697 88.0748 41.2797 85.6548C42.3497 85.2548 42.9997 84.4348 43.2297 83.2048C43.7897 80.1848 41.7097 75.5848 38.4897 72.7248C34.4397 69.1348 32.0197 64.1448 31.6897 58.6848C31.6097 57.4548 31.5397 56.1248 31.4697 54.7348C30.8997 44.0548 30.1197 29.4348 25.6797 24.5148C25.3097 24.1048 25.3397 23.4748 25.7497 23.1048C26.1597 22.7348 26.7897 22.7648 27.1597 23.1748C32.0797 28.6248 32.8797 43.6548 33.4697 54.6248C33.5397 56.0148 33.6097 57.3348 33.6897 58.5648C33.9897 63.4948 36.1697 67.9948 39.8197 71.2348C43.5797 74.5648 45.8897 79.8748 45.1997 83.5748C44.8397 85.5148 43.7297 86.8748 41.9797 87.5248C36.1597 89.6848 34.0597 93.4748 32.1997 96.8148C30.8597 99.2348 29.5897 101.515 27.0897 102.365C25.8397 102.795 22.8997 103.405 20.0297 103.405L20.0197 103.415Z" fill="black"/>
<path id="Vector_4" d="M73.401 45.8248C55.671 45.8248 32.291 37.3148 31.031 36.8548C30.511 36.6648 30.251 36.0848 30.441 35.5748C30.631 35.0648 31.211 34.7948 31.721 34.9848C32.111 35.1248 70.561 49.1248 85.591 41.6148C88.331 40.2448 90.051 38.2848 90.851 35.6348C96.641 16.3048 86.671 2.3148 86.561 2.1748C86.231 1.7248 86.331 1.1048 86.781 0.774801C87.231 0.444801 87.851 0.544801 88.181 0.994801C88.621 1.5948 98.841 15.9348 92.771 36.2048C91.821 39.3648 89.711 41.7848 86.491 43.3948C83.001 45.1348 78.431 45.8248 73.411 45.8248H73.401Z" fill="black"/>
<path id="Vector_5" d="M48.811 9.32478C48.661 9.32478 48.501 9.28478 48.351 9.21478C47.861 8.96478 47.661 8.36478 47.921 7.86478C48.151 7.32478 48.051 4.56478 47.821 2.33478C47.761 1.78478 48.161 1.29478 48.711 1.23478C49.271 1.18478 49.751 1.57478 49.811 2.12478C49.981 3.73478 50.311 7.59478 49.711 8.77478C49.531 9.12478 49.181 9.31478 48.821 9.31478L48.811 9.32478Z" fill="black"/>
</g>
<defs>
<clipPath id="clip0_445_14827">
<rect width="94.38" height="102.83" fill="white" transform="translate(0.310547 0.584961)"/>
</clipPath>
</defs>
</svg>
