<svg width="100" height="96" viewBox="0 0 100 96" fill="none" xmlns="http://www.w3.org/2000/svg">
<g id="_?&#235;&#141;&#137;&#236;&#148;&#160;??1" clip-path="url(#clip0_557_10186)">
<path id="Vector" d="M26.0816 58.6551C25.5516 58.6551 25.1116 58.2351 25.0816 57.7051C25.0516 57.1551 25.4816 56.6851 26.0316 56.6551C26.0516 56.6551 26.3816 56.6351 26.9816 56.5751C27.5416 56.5251 28.0216 56.9151 28.0816 57.4651C28.1416 58.0151 27.7316 58.5051 27.1916 58.5651C26.5116 58.6351 26.1416 58.6551 26.1416 58.6551C26.1216 58.6551 26.1116 58.6551 26.0916 58.6551H26.0816ZM32.0216 57.7951C31.5616 57.7951 31.1416 57.4651 31.0416 56.9951C30.9316 56.4551 31.2816 55.9251 31.8216 55.8151C32.1316 55.7551 32.4516 55.6851 32.7816 55.6051C33.3216 55.4851 33.8516 55.8251 33.9716 56.3651C34.0916 56.9051 33.7516 57.4351 33.2116 57.5551C32.8716 57.6351 32.5416 57.7051 32.2216 57.7651C32.1516 57.7751 32.0816 57.7851 32.0216 57.7851V57.7951ZM37.8316 56.2851C37.4016 56.2851 37.0116 56.0151 36.8816 55.5851C36.7216 55.0551 37.0116 54.4951 37.5416 54.3351C37.8516 54.2351 38.1616 54.1351 38.4816 54.0351C39.0016 53.8651 39.5716 54.1451 39.7416 54.6651C39.9116 55.1851 39.6316 55.7551 39.1016 55.9251C38.7716 56.0351 38.4516 56.1351 38.1316 56.2351C38.0316 56.2651 37.9316 56.2751 37.8316 56.2751V56.2851ZM43.4616 54.2151C43.0716 54.2151 42.7016 53.9851 42.5416 53.6051C42.3216 53.0951 42.5616 52.5051 43.0716 52.2951C43.3716 52.1651 43.6716 52.0351 43.9716 51.9051C44.4816 51.6851 45.0716 51.9051 45.2916 52.4151C45.5116 52.9251 45.2916 53.5151 44.7816 53.7351C44.4716 53.8751 44.1616 54.0051 43.8516 54.1351C43.7216 54.1851 43.5916 54.2151 43.4616 54.2151ZM48.8616 51.5951C48.5116 51.5951 48.1616 51.4051 47.9816 51.0751C47.7116 50.5951 47.8916 49.9851 48.3816 49.7151C48.6616 49.5551 48.9516 49.3951 49.2416 49.2351C49.7216 48.9551 50.3316 49.1251 50.6016 49.6051C50.8716 50.0851 50.7116 50.6951 50.2316 50.9651C49.9316 51.1351 49.6416 51.3051 49.3416 51.4651C49.1916 51.5451 49.0216 51.5851 48.8616 51.5851V51.5951ZM53.9516 48.4251C53.6316 48.4251 53.3216 48.2751 53.1316 47.9951C52.8116 47.5451 52.9216 46.9151 53.3816 46.6051C53.6516 46.4151 53.9116 46.2251 54.1816 46.0351C54.6316 45.7151 55.2516 45.8051 55.5816 46.2551C55.9116 46.7051 55.8116 47.3251 55.3616 47.6551C55.0816 47.8551 54.8116 48.0551 54.5316 48.2451C54.3616 48.3651 54.1616 48.4251 53.9616 48.4251H53.9516Z" fill="#B4B0AA"/>
<path id="Vector_2" d="M34.3697 61.2652C31.5697 61.2652 29.3797 60.6652 27.5497 60.1652C26.1197 59.7752 24.8897 59.4352 23.6697 59.4352C20.5597 59.4352 18.2697 58.5752 16.8497 56.8752C15.1897 54.8852 15.4397 52.6052 15.5597 51.9452C15.8597 50.2852 15.7297 46.9452 15.6797 45.8452L12.9997 43.0352C12.7097 42.7352 12.6397 42.2752 12.8297 41.8952L13.9997 39.5652C11.2997 37.7652 11.5997 36.7352 11.6997 36.3752C11.7497 36.1952 11.8397 35.9852 11.9397 35.7452C12.3097 34.8852 12.8797 33.5852 11.8197 31.3152C11.3297 30.2652 9.91974 29.2752 8.55974 28.3252C6.79974 27.0952 5.14974 25.9352 4.91974 24.3152C4.80974 23.5252 5.05974 22.7552 5.66974 22.0252C6.02974 21.5852 6.74974 21.0152 7.82974 20.1552C11.9497 16.8752 20.5097 10.0352 18.1897 2.22517C18.0297 1.69517 18.3297 1.13517 18.8597 0.985174C19.3897 0.825174 19.9497 1.12517 20.0997 1.65517C22.8097 10.7652 13.5297 18.1652 9.06974 21.7152C8.22974 22.3852 7.43974 23.0152 7.20974 23.2952C6.85974 23.7252 6.88974 23.9652 6.89974 24.0452C6.99974 24.8052 8.43974 25.8052 9.69974 26.6952C11.2797 27.8052 12.9197 28.9452 13.6297 30.4852C15.0597 33.5752 14.2197 35.5152 13.7697 36.5552C13.7397 36.6152 13.7197 36.6752 13.6897 36.7252C13.9897 37.1052 14.9097 37.8152 15.7997 38.3452C16.2497 38.6152 16.4197 39.1852 16.1797 39.6552L14.9197 42.1652L17.3697 44.7352C17.5297 44.9052 17.6297 45.1252 17.6397 45.3652C17.6497 45.5552 17.9097 50.0752 17.5097 52.2952C17.3497 53.1952 17.4897 54.5252 18.3697 55.5852C19.3797 56.7952 21.2097 57.4252 23.6597 57.4252C25.1497 57.4252 26.5697 57.8152 28.0697 58.2252C30.2997 58.8352 32.8197 59.5252 36.3397 59.1452C42.2597 58.5052 47.1197 57.1052 51.1797 54.8752C51.6597 54.6152 52.2697 54.7852 52.5397 55.2652C52.8097 55.7452 52.6297 56.3552 52.1497 56.6252C47.8497 58.9952 42.7497 60.4652 36.5597 61.1352C35.7897 61.2152 35.0597 61.2552 34.3697 61.2552V61.2652Z" fill="black"/>
<path id="Vector_3" d="M30.8712 12.365C28.5612 12.365 27.0312 11.855 26.9012 11.815C26.3812 11.635 26.1012 11.065 26.2812 10.545C26.4612 10.025 27.0312 9.74503 27.5512 9.92503C27.7912 10.005 33.0712 11.705 38.8212 7.91503C39.2812 7.61503 39.9012 7.73503 40.2012 8.20503C40.5012 8.66503 40.3812 9.28503 39.9112 9.58503C36.5312 11.805 33.2712 12.365 30.8612 12.365H30.8712Z" fill="black"/>
<path id="Vector_4" d="M30.6712 11.3549C30.4712 11.3549 30.2712 11.2949 30.0912 11.1749C29.6412 10.8549 29.5312 10.2349 29.8512 9.78495C31.1112 8.00495 28.9312 6.07495 28.8312 5.99495C28.4112 5.63495 28.3712 5.00495 28.7312 4.58495C29.0912 4.16495 29.7212 4.11495 30.1412 4.47495C31.4112 5.56495 33.3312 8.32495 31.4912 10.9349C31.3012 11.2149 30.9912 11.3549 30.6712 11.3549Z" fill="black"/>
<path id="Vector_5" d="M78.55 39.9652C77.03 39.9652 75.87 39.2252 75.38 38.9152L75.24 38.8252C74.73 38.6252 74.51 38.0552 74.71 37.5452C74.91 37.0352 75.53 36.7952 76.04 36.9952C76.12 37.0252 76.27 37.1052 76.45 37.2252C76.93 37.5352 77.94 38.1752 79.15 37.8952C80.33 37.6152 81.48 36.5552 82.58 34.7352C86.38 28.4352 88.79 20.2452 85.77 17.4752C82.76 14.7152 77.69 19.3952 77.64 19.4352C77.24 19.8152 76.6 19.7952 76.23 19.3852C75.85 18.9852 75.88 18.3452 76.28 17.9752C76.54 17.7252 82.78 12.0052 87.13 15.9952C91.76 20.2452 87.53 30.4252 84.3 35.7652C82.91 38.0652 81.33 39.4352 79.61 39.8452C79.24 39.9352 78.88 39.9652 78.54 39.9652H78.55Z" fill="black"/>
<path id="Vector_6" d="M76.4111 29.435C76.3211 29.435 76.2411 29.425 76.1511 29.395C75.6211 29.255 75.3011 28.705 75.4511 28.165C75.6011 27.595 77.0411 22.545 79.8511 20.985C80.7411 20.495 81.7011 20.385 82.6411 20.675C83.1711 20.835 83.4711 21.395 83.3011 21.925C83.1411 22.455 82.5811 22.755 82.0511 22.585C81.6211 22.455 81.2311 22.505 80.8111 22.735C79.0411 23.715 77.7311 27.365 77.3711 28.685C77.2511 29.135 76.8511 29.425 76.4111 29.425V29.435Z" fill="black"/>
<path id="Vector_7" d="M37.5002 89.545C37.4002 89.545 37.3002 89.535 37.2002 89.505C36.6702 89.335 36.3802 88.775 36.5402 88.255C40.0602 76.955 36.5502 60.535 36.5202 60.365C36.4002 59.825 36.7402 59.295 37.2802 59.175C37.8202 59.055 38.3502 59.395 38.4702 59.935C38.6202 60.625 42.1302 77.035 38.4502 88.845C38.3202 89.275 37.9202 89.545 37.5002 89.545Z" fill="black"/>
<path id="Vector_8" d="M3.91078 95.0649C3.19078 95.0649 2.50078 95.0249 1.85078 94.9449C1.30078 94.8749 0.910783 94.3749 0.980783 93.8349C1.05078 93.2849 1.56078 92.8949 2.09078 92.9649C13.1508 94.3249 37.6208 82.2449 37.8708 82.1249C38.3608 81.8749 38.9708 82.0849 39.2108 82.5749C39.4608 83.0749 39.2508 83.6649 38.7608 83.9149C37.7908 84.3949 16.1308 95.0749 3.91078 95.0749V95.0649Z" fill="black"/>
<path id="Vector_9" d="M98.0302 86.8152C97.8702 86.8152 97.7002 86.7752 97.5502 86.6952C97.4602 86.6452 88.5402 81.7452 82.6502 77.3452C69.9202 67.8452 76.2602 39.7852 76.5302 38.5952C76.6502 38.0552 77.1902 37.7252 77.7302 37.8452C78.2702 37.9652 78.6002 38.5052 78.4802 39.0452C78.4202 39.3252 72.1602 67.0252 83.8402 75.7452C89.6202 80.0552 98.4202 84.8952 98.5002 84.9452C98.9802 85.2152 99.1602 85.8152 98.9002 86.3052C98.7202 86.6352 98.3802 86.8252 98.0202 86.8252L98.0302 86.8152Z" fill="black"/>
</g>
<defs>
<clipPath id="clip0_557_10186">
<rect width="98.06" height="94.13" fill="white" transform="translate(0.970703 0.935059)"/>
</clipPath>
</defs>
</svg>
