<svg width="72" height="104" viewBox="0 0 72 104" fill="none" xmlns="http://www.w3.org/2000/svg">
<g id="_?&#235;&#141;&#137;&#236;&#148;&#160;??1" clip-path="url(#clip0_445_14794)">
<path id="Vector" d="M27.2593 84.8951C26.9593 84.8951 26.6593 84.7551 26.4593 84.5051C26.2593 84.2351 26.0493 83.9451 25.8593 83.6251C25.5693 83.1551 25.7093 82.5351 26.1793 82.2451C26.6493 81.9551 27.2693 82.0951 27.5593 82.5651C27.7193 82.8251 27.8893 83.0651 28.0493 83.2851C28.3793 83.7251 28.2993 84.3551 27.8593 84.6851C27.6793 84.8251 27.4693 84.8951 27.2493 84.8951H27.2593ZM24.6493 79.5451C24.2393 79.5451 23.8493 79.2851 23.7093 78.8751C23.5993 78.5651 23.4893 78.2451 23.3793 77.9151C23.2093 77.3951 23.4893 76.8251 24.0093 76.6551C24.5293 76.4851 25.0993 76.7651 25.2693 77.2851C25.3793 77.6051 25.4793 77.9151 25.5893 78.2151C25.7693 78.7351 25.4993 79.3051 24.9793 79.4951C24.8693 79.5351 24.7593 79.5551 24.6493 79.5551V79.5451ZM22.9393 73.7851C22.4893 73.7851 22.0793 73.4851 21.9693 73.0251L21.7293 72.0451C21.5993 71.5051 21.9293 70.9651 22.4593 70.8351C22.9993 70.7051 23.5393 71.0351 23.6693 71.5651L23.9093 72.5351C24.0393 73.0751 23.7193 73.6151 23.1793 73.7451C23.0993 73.7651 23.0193 73.7751 22.9393 73.7751V73.7851ZM21.6093 67.9251C21.1393 67.9251 20.7293 67.5951 20.6293 67.1251L20.4293 66.1351C20.3193 65.5951 20.6693 65.0651 21.2193 64.9551C21.7693 64.8351 22.2893 65.1951 22.3993 65.7451L22.5993 66.7251C22.7093 67.2651 22.3593 67.7951 21.8193 67.9051C21.7493 67.9151 21.6893 67.9251 21.6193 67.9251H21.6093ZM20.4993 62.0151C20.0193 62.0151 19.5993 61.6751 19.5193 61.1851L19.3493 60.1951C19.2593 59.6551 19.6193 59.1351 20.1693 59.0451C20.7193 58.9551 21.2293 59.3251 21.3193 59.8651L21.4893 60.8451C21.5793 61.3851 21.2193 61.9051 20.6793 62.0051C20.6193 62.0051 20.5593 62.0151 20.5093 62.0151H20.4993ZM19.5393 56.0751C19.0493 56.0751 18.6293 55.7151 18.5493 55.2251L18.3993 54.2351C18.3193 53.6851 18.6993 53.1851 19.2393 53.1051C19.7793 53.0251 20.2993 53.4051 20.3793 53.9451L20.5293 54.9351C20.6093 55.4851 20.2393 55.9851 19.6893 56.0751C19.6393 56.0751 19.5893 56.0851 19.5393 56.0851V56.0751ZM18.6993 50.1251C18.2093 50.1251 17.7793 49.7651 17.7093 49.2551L17.5793 48.2551C17.5093 47.7051 17.8893 47.2051 18.4393 47.1351C18.9793 47.0651 19.4893 47.4451 19.5593 47.9951L19.6893 48.9851C19.7593 49.5351 19.3793 50.0351 18.8293 50.1051C18.7893 50.1051 18.7393 50.1051 18.6993 50.1051V50.1251ZM17.9493 44.1651C17.4493 44.1651 17.0193 43.7951 16.9593 43.2851L16.8393 42.2851C16.7793 41.7351 17.1693 41.2451 17.7193 41.1751C18.2693 41.1051 18.7593 41.5051 18.8293 42.0551L18.9493 43.0451C19.0193 43.5951 18.6193 44.0951 18.0793 44.1551C18.0393 44.1551 17.9993 44.1551 17.9593 44.1551L17.9493 44.1651ZM17.2793 38.1951C16.7793 38.1951 16.3393 37.8151 16.2893 37.3051L16.1793 36.3051C16.1193 35.7551 16.5193 35.2651 17.0693 35.2051C17.6193 35.1351 18.1093 35.5451 18.1693 36.0951L18.2693 37.0851C18.3293 37.6351 17.9293 38.1251 17.3793 38.1851C17.3393 38.1851 17.3093 38.1851 17.2693 38.1851L17.2793 38.1951ZM16.6693 32.2151C16.1593 32.2151 15.7193 31.8251 15.6793 31.3051L15.5893 30.3551C15.5393 29.8051 15.9393 29.2951 16.4893 29.2351C17.0393 29.1851 17.5193 29.5651 17.5793 30.1151L17.6693 31.1151C17.7193 31.6651 17.3193 32.1551 16.7693 32.2051C16.7393 32.2051 16.7093 32.2051 16.6693 32.2051V32.2151ZM16.1393 26.2151C15.6193 26.2151 15.1893 25.8151 15.1393 25.2951L15.0593 24.2751C15.0193 23.7251 15.4293 23.2451 15.9793 23.2051C16.5293 23.1651 17.0093 23.5751 17.0493 24.1251L17.1293 25.1251C17.1693 25.6751 16.7693 26.1551 16.2093 26.2051C16.1793 26.2051 16.1493 26.2051 16.1293 26.2051L16.1393 26.2151Z" fill="#B4B0AA"/>
<path id="Vector_2" d="M51.5693 1.63501C51.5693 1.63501 47.1893 16.585 50.7293 30.795C54.2693 45.005 85.2493 70.275 63.0493 96.125L62.1593 102.375" stroke="black" stroke-width="2" stroke-linecap="round" stroke-linejoin="round"/>
<path id="Vector_3" d="M5.08917 1.63501C5.08917 1.63501 2.59917 3.37501 1.48917 5.63501C-0.930831 10.515 6.21917 24.755 15.3892 21.705" stroke="black" stroke-width="2" stroke-linecap="round" stroke-linejoin="round"/>
<path id="Vector_4" d="M27.5289 88.515C20.1289 86.445 9.55891 82.095 9.26891 68.115C8.97891 54.135 13.6189 22.135 13.6189 22.135" stroke="black" stroke-width="2" stroke-linecap="round" stroke-linejoin="round"/>
<path id="Vector_5" d="M27.5293 85.2148C27.5293 85.2148 28.6493 94.1348 29.1293 101.735" stroke="black" stroke-width="2" stroke-linecap="round" stroke-linejoin="round"/>
<path id="Vector_6" d="M9.26953 101.735C9.26953 101.735 13.4695 85.225 13.4595 81.105" stroke="black" stroke-width="2" stroke-linecap="round" stroke-linejoin="round"/>
</g>
<defs>
<clipPath id="clip0_445_14794">
<rect width="71.98" height="102.73" fill="white" transform="translate(0.00976562 0.63501)"/>
</clipPath>
</defs>
</svg>
